<?xml version="1.0" encoding="iso-8859-1"?>
<!-- Generator: Adobe Illustrator 19.1.1, SVG Export Plug-In . SVG Version: 6.00 Build 0)  -->
<svg version="1.1" id="Layer_1" xmlns="http://www.w3.org/2000/svg" xmlns:xlink="http://www.w3.org/1999/xlink" x="0px" y="0px"
	 viewBox="0 0 40 40" style="enable-background:new 0 0 40 40;" xml:space="preserve">
<g>
	<path style="fill:#FFEEA3;" d="M29.498,25.896c-0.131,0-0.26-0.027-0.382-0.081l-11.949-5.22c-0.444-0.194-0.663-0.696-0.498-1.143
		L23.515,2.12c0.138-0.371,0.492-0.614,0.885-0.614c0.102,0,0.202,0.016,0.299,0.048l11.776,4.899
		c0.276,0.092,0.469,0.257,0.58,0.479c0.108,0.215,0.125,0.458,0.047,0.686l-6.708,17.633
		C30.261,25.643,29.903,25.896,29.498,25.896z"/>
	<path style="fill:#C29653;" d="M24.4,2.006c0.039,0,0.078,0.005,0.116,0.015l11.767,4.894l0.036,0.015l0.037,0.012
		c0.151,0.05,0.223,0.155,0.252,0.214c0.033,0.067,0.064,0.174,0.033,0.267l-6.727,17.685c-0.067,0.199-0.258,0.288-0.417,0.288
		c-0.062,0-0.124-0.013-0.182-0.039l-11.948-5.22c-0.205-0.09-0.304-0.309-0.237-0.49l6.858-17.363
		C24.058,2.092,24.246,2.006,24.4,2.006 M24.4,1.006c-0.588,0-1.139,0.358-1.35,0.93L16.2,19.279
		c-0.258,0.697,0.077,1.472,0.767,1.774l11.948,5.22c0.19,0.083,0.388,0.122,0.583,0.122c0.598,0,1.162-0.37,1.364-0.966
		l6.714-17.65c0.251-0.74-0.156-1.54-0.909-1.787L24.855,1.079C24.704,1.029,24.551,1.006,24.4,1.006L24.4,1.006z"/>
</g>
<g>
	<path style="fill:#B0C1D4;" d="M15.703,38.506c-0.161,0-0.32-0.041-0.461-0.119L2.98,31.843c-0.395-0.218-0.5-0.622-0.465-0.926
		l0.065-0.558H2.5v-1.918l28-3.504v2.5l-0.004,0.037c-0.024,0.251-0.149,0.478-0.351,0.639L16.312,38.288
		C16.129,38.433,15.918,38.506,15.703,38.506z"/>
	<path style="fill:#A3B7CC;" d="M30,25.504v1.903l-0.002,0.021c-0.011,0.118-0.066,0.217-0.134,0.272L15.986,37.908
		c-0.08,0.063-0.18,0.098-0.283,0.098c-0.077,0-0.153-0.02-0.232-0.063L3.228,31.408c-0.232-0.128-0.224-0.364-0.216-0.434
		l0.11-1.115H3v-0.977L30,25.504 M31,24.371L2,28v2.86h0.019c-0.063,0.547,0.178,1.122,0.726,1.424L15,38.825
		c0.22,0.121,0.462,0.181,0.703,0.181c0.322,0,0.642-0.107,0.905-0.315l13.848-10.187c0.327-0.26,0.502-0.616,0.537-0.982v0H31
		V24.371L31,24.371z"/>
</g>
<g>
	<path style="fill:#839CB2;" d="M15.703,35.499c-0.161,0-0.321-0.041-0.462-0.119L2.98,28.836c-0.285-0.158-0.462-0.438-0.479-0.768
		s0.129-0.626,0.402-0.815l14.149-9.588c0.166-0.115,0.354-0.174,0.55-0.174c0.134,0,0.264,0.027,0.386,0.082l11.929,5.936
		c0.326,0.145,0.533,0.42,0.575,0.748c0.042,0.331-0.084,0.64-0.347,0.849L16.312,35.281C16.129,35.425,15.918,35.499,15.703,35.499
		z"/>
	<g>
		<path style="fill:#66798F;" d="M17.603,17.991c0.064,0,0.126,0.013,0.142,0.019l11.991,5.966c0.199,0.088,0.249,0.253,0.26,0.344
			c0.012,0.09,0.006,0.261-0.133,0.372L15.986,34.901c-0.08,0.063-0.18,0.098-0.283,0.098c-0.077,0-0.153-0.02-0.232-0.063
			L3.228,28.401c-0.187-0.103-0.223-0.269-0.227-0.359c-0.005-0.089,0.014-0.258,0.178-0.372l14.164-9.598
			C17.419,18.019,17.509,17.991,17.603,17.991 M17.602,16.991c-0.293,0-0.583,0.088-0.831,0.26L2.618,26.842
			c-0.876,0.609-0.808,1.919,0.127,2.434L15,35.818c0.22,0.121,0.462,0.181,0.703,0.181c0.322,0,0.642-0.107,0.905-0.315
			l13.848-10.187c0.848-0.673,0.676-1.999-0.317-2.436L18.19,17.115C18.002,17.032,17.802,16.991,17.602,16.991L17.602,16.991z"/>
	</g>
</g>
<g>
	<circle style="fill:#FFEEA3;" cx="12" cy="25.383" r="1.5"/>
	<path style="fill:#66798F;" d="M12,24.383c0.552,0,1,0.448,1,1c0,0.552-0.448,1-1,1c-0.552,0-1-0.448-1-1
		C11,24.831,11.448,24.383,12,24.383 M12,23.383c-1.103,0-2,0.897-2,2s0.897,2,2,2s2-0.897,2-2S13.103,23.383,12,23.383L12,23.383z"
		/>
</g>
<g>
	<circle style="fill:#F78F8F;" cx="15" cy="27" r="1.5"/>
	<path style="fill:#66798F;" d="M15,26c0.552,0,1,0.448,1,1c0,0.552-0.448,1-1,1c-0.552,0-1-0.448-1-1C14,26.448,14.448,26,15,26
		 M15,25c-1.103,0-2,0.897-2,2s0.897,2,2,2s2-0.897,2-2S16.103,25,15,25L15,25z"/>
</g>
<g>
	<circle style="fill:#8BB7F0;" cx="18" cy="28.672" r="1.5"/>
	<path style="fill:#66798F;" d="M18,27.672c0.552,0,1,0.448,1,1c0,0.552-0.448,1-1,1c-0.552,0-1-0.448-1-1
		C17,28.119,17.448,27.672,18,27.672 M18,26.672c-1.103,0-2,0.897-2,2s0.897,2,2,2s2-0.897,2-2S19.103,26.672,18,26.672L18,26.672z"
		/>
</g>
<g>
	<ellipse style="fill:#E1EBF2;" cx="20.5" cy="23" rx="3.5" ry="2"/>
</g>
<g>
	<polygon style="fill:#E1EBF2;" points="15.559,33.049 17.658,31.494 8.21,26.299 6.031,27.813 	"/>
</g>
<g>
	<circle style="fill:#C29653;" cx="21.5" cy="13.5" r="0.5"/>
</g>
<g>
	<circle style="fill:#C29653;" cx="23.5" cy="14.5" r="0.5"/>
</g>
<g>
	<circle style="fill:#C29653;" cx="25.5" cy="15.5" r="0.5"/>
</g>
<g>
	<circle style="fill:#C29653;" cx="27.5" cy="16.5" r="0.5"/>
</g>
<g>
	<circle style="fill:#C29653;" cx="27.5" cy="14.5" r="0.5"/>
</g>
<g>
	<circle style="fill:#C29653;" cx="25.5" cy="13.5" r="0.5"/>
</g>
<g>
	<circle style="fill:#C29653;" cx="23.5" cy="12.5" r="0.5"/>
</g>
<g>
	<circle style="fill:#C29653;" cx="21.5" cy="11.5" r="0.5"/>
</g>
<g>
	<circle style="fill:#C29653;" cx="29.5" cy="15.5" r="0.5"/>
</g>
<g>
	<circle style="fill:#C29653;" cx="29.5" cy="13.5" r="0.5"/>
</g>
<g>
	<circle style="fill:#C29653;" cx="27.5" cy="12.5" r="0.5"/>
</g>
<g>
	<circle style="fill:#C29653;" cx="25.5" cy="11.5" r="0.5"/>
</g>
<g>
	<circle style="fill:#C29653;" cx="23.5" cy="10.5" r="0.5"/>
</g>
<g>
	<circle style="fill:#C29653;" cx="21.5" cy="9.5" r="0.5"/>
</g>
<g>
	<circle style="fill:#C29653;" cx="23.5" cy="8.5" r="0.5"/>
</g>
<g>
	<circle style="fill:#C29653;" cx="25.5" cy="9.5" r="0.5"/>
</g>
<g>
	<circle style="fill:#C29653;" cx="27.5" cy="10.5" r="0.5"/>
</g>
<g>
	<circle style="fill:#C29653;" cx="29.5" cy="11.5" r="0.5"/>
</g>
<g>
	<circle style="fill:#C29653;" cx="29.5" cy="9.5" r="0.5"/>
</g>
<g>
	<circle style="fill:#C29653;" cx="31.5" cy="10.5" r="0.5"/>
</g>
<g>
	<circle style="fill:#C29653;" cx="27.5" cy="8.5" r="0.5"/>
</g>
<g>
	<circle style="fill:#C29653;" cx="25.5" cy="7.5" r="0.5"/>
</g>
<g>
	<circle style="fill:#C29653;" cx="23.5" cy="6.5" r="0.5"/>
</g>
<g>
	<circle style="fill:#C29653;" cx="23.5" cy="4.5" r="0.5"/>
</g>
<g>
	<circle style="fill:#C29653;" cx="25.5" cy="5.5" r="0.5"/>
</g>
<g>
	<circle style="fill:#C29653;" cx="27.5" cy="6.5" r="0.5"/>
</g>
<g>
	<circle style="fill:#C29653;" cx="29.5" cy="7.5" r="0.5"/>
</g>
<g>
	<circle style="fill:#C29653;" cx="31.5" cy="8.5" r="0.5"/>
</g>
<g>
	<circle style="fill:#C29653;" cx="31.5" cy="6.5" r="0.5"/>
</g>
<g>
	<circle style="fill:#C29653;" cx="31.5" cy="16.5" r="0.5"/>
</g>
<g>
	<circle style="fill:#C29653;" cx="31.5" cy="14.5" r="0.5"/>
</g>
<g>
	<circle style="fill:#C29653;" cx="35.5" cy="8.5" r="0.5"/>
</g>
<g>
	<circle style="fill:#C29653;" cx="35.5" cy="6.5" r="0.5"/>
</g>
<g>
	<circle style="fill:#C29653;" cx="33.5" cy="5.5" r="0.5"/>
</g>
<g>
	<circle style="fill:#C29653;" cx="31.5" cy="4.5" r="0.5"/>
</g>
<g>
	<circle style="fill:#C29653;" cx="33.5" cy="13.5" r="0.5"/>
</g>
<g>
	<circle style="fill:#C29653;" cx="35.5" cy="10.5" r="0.5"/>
</g>
<g>
	<circle style="fill:#C29653;" cx="31.5" cy="12.5" r="0.5"/>
</g>
<g>
	<circle style="fill:#C29653;" cx="33.5" cy="11.5" r="0.5"/>
</g>
<g>
	<circle style="fill:#C29653;" cx="33.5" cy="9.5" r="0.5"/>
</g>
<g>
	<circle style="fill:#C29653;" cx="33.5" cy="7.5" r="0.5"/>
</g>
<g>
	<circle style="fill:#C29653;" cx="29.5" cy="21.5" r="0.5"/>
</g>
<g>
	<circle style="fill:#C29653;" cx="29.5" cy="19.5" r="0.5"/>
</g>
<g>
	<circle style="fill:#C29653;" cx="29.5" cy="17.5" r="0.5"/>
</g>
<g>
	<circle style="fill:#C29653;" cx="29.5" cy="5.5" r="0.5"/>
</g>
<g>
	<circle style="fill:#C29653;" cx="27.5" cy="4.5" r="0.5"/>
</g>
<g>
	<circle style="fill:#C29653;" cx="25.5" cy="3.5" r="0.5"/>
</g>
<g>
	<circle style="fill:#C29653;" cx="33.5" cy="15.5" r="0.5"/>
</g>
<g>
	<circle style="fill:#C29653;" cx="31.5" cy="18.5" r="0.5"/>
</g>
<g>
	<circle style="fill:#C29653;" cx="31.5" cy="20.5" r="0.5"/>
</g>
<g>
	<circle style="fill:#C29653;" cx="27.5" cy="18.5" r="0.5"/>
</g>
<g>
	<circle style="fill:#C29653;" cx="27.5" cy="20.5" r="0.5"/>
</g>
<g>
	<circle style="fill:#C29653;" cx="25.5" cy="19.5" r="0.5"/>
</g>
<g>
	<circle style="fill:#C29653;" cx="25.5" cy="17.5" r="0.5"/>
</g>
<g>
	<circle style="fill:#C29653;" cx="23.5" cy="16.5" r="0.5"/>
</g>
<g>
	<circle style="fill:#C29653;" cx="23.5" cy="18.5" r="0.5"/>
</g>
<g>
	<circle style="fill:#C29653;" cx="21.5" cy="15.5" r="0.5"/>
</g>
<g>
	<circle style="fill:#C29653;" cx="21.5" cy="17.5" r="0.5"/>
</g>
<g>
	<circle style="fill:#C29653;" cx="19.5" cy="14.5" r="0.5"/>
</g>
<g>
	<circle style="fill:#C29653;" cx="19.5" cy="16.5" r="0.5"/>
</g>
<g>
	<circle style="fill:#C29653;" cx="21.5" cy="7.5" r="0.5"/>
</g>
<g>
	<circle style="fill:#C29653;" cx="23.5" cy="2.5" r="0.5"/>
</g>
<g>
	<circle style="fill:#C29653;" cx="19.5" cy="12.5" r="0.5"/>
</g>
</svg>
