<svg xmlns="http://www.w3.org/2000/svg" xmlns:odm="http://product.corel.com/CGS/11/cddns/" viewBox="750 150 1500 1500">
 <defs>
  <style type="text/css">
   <![CDATA[
    .str0 {stroke:#000000;stroke-width:63}
    .str1 {stroke:#09098F;stroke-width:63}
    .fil5 {fill:none}
    .fil1 {fill:#000000}
    .fil2 {fill:#000000}
    .fil3 {fill:lightblue}
    .fil0 {fill:cyan}
    .fil4 {fill:white}
   ]]>
  </style>
 </defs>
  <path class="fil3" d="M833 351l767 0 -145 307 -62 291 218 21 34 448 -812 0 0 -1067z"/>
  <path class="fil4" d="M1598 351l607 0 0 1067 -565 0 -22 -459 -228 4 52 -306 156 -306z"/>
  <path class="fil5 str0" d="M1628 1188c151,-3 263,-38 352,-91"/>
  <path class="fil5 str1" d="M1058 1094c171,88 349,108 537,96"/>
  <path class="fil5 str1" d="M1208 528l0 161"/>
  <path class="fil5 str0" d="M1792 528l0 161"/>
  <path class="fil5 str0" d="M1726 188c-170,201 -317,464 -333,771l250 0c-63,209 -29,443 67,632"/>
</svg>
