<svg xmlns="http://www.w3.org/2000/svg" xmlns:xlink="http://www.w3.org/1999/xlink" x="0px" y="0px" viewBox="-50 -50 600 600">
	<path style="fill:white;" d="M256, 0C114.624, 0, 0, 106.112, 0, 237.024c0, 74.592, 37.216, 141.12, 95.392, 184.576V512l87.168 -47.84 c23.264, 6.432, 47.904, 9.92, 73.44, 9.92c141.376, 0, 256 -106.112, 256 -237.024C512, 106.112, 397.376, 0, 256, 0z"/>
	<g fill="royalblue" transform="translate(-75,-90), scale(1.25)">
		<path d="M362.685, 294.828h-32.08l10.084-77.658h21.996c10.345, 0, 18.732-8.387, 18.732-18.732   s-8.387-18.732-18.732-18.732h-17.131l3.634-27.98c1.332-10.259-5.905-19.656-16.163-20.988   c-10.276-1.337-19.656, 5.905-20.988, 16.163l-4.26, 32.804h-77.343l3.633-27.98c1.332-10.259-5.904-19.656-16.163-20.988   c-10.254-1.335-19.656, 5.904-20.988, 16.163l-4.26, 32.804h-43.339c-10.345, 0-18.732, 8.387-18.732, 18.732s8.387, 18.732, 18.732, 18.732   h38.474l-10.084, 77.658h-28.39c-10.345, 0-18.732, 8.387-18.732, 18.732s8.387, 18.732, 18.732, 18.732h23.526l-3.633, 27.98 c-1.332, 10.259, 5.904, 19.656, 16.163, 20.988c10.223, 1.332, 19.652-5.874, 20.988-16.163l4.26-32.804h77.342l-3.634, 27.98 c-1.332, 10.259, 5.906, 19.656, 16.163, 20.988c10.228, 1.331, 19.652-5.878, 20.988-16.163l4.26-32.804h36.945 c10.345, 0, 18.732-8.387, 18.732-18.732C381.416, 303.215, 373.029, 294.828, 362.685, 294.828z M215.483, 294.828l10.084-77.658h77.343 l-10.084, 77.658H215.483z"/>
		<path d="M362.685, 294.828h-32.08l10.084-77.658h21.996c10.345, 0, 18.732-8.387, 18.732-18.732  s-8.387-18.732-18.732-18.732h-17.131l3.634-27.98c1.332-10.259-5.905-19.656-16.163-20.988  c-10.276-1.337-19.656, 5.905-20.988, 16.163l-4.26, 32.804H256v37.463h46.91l-10.084, 77.658H256v37.463h31.961l-3.634, 27.98  c-1.332, 10.259, 5.905, 19.656, 16.163, 20.988c10.228, 1.331, 19.652-5.878, 20.988-16.163l4.26-32.804h36.945  c10.345, 0, 18.732-8.387, 18.732-18.732C381.415, 303.215, 373.029, 294.828, 362.685, 294.828z"/>
	</g>
</svg>
