<svg xmlns="http://www.w3.org/2000/svg" xmlns:xlink="http://www.w3.org/1999/xlink" viewBox="0 0 64 64">
	<defs>
		<style>.cls-1{fill:url(#linear-gradient);}.cls-2{fill:url(#linear-gradient-2);}.cls-3{fill:#ec3d70;}.cls-4{fill:url(#linear-gradient-3);}.cls-5{fill:url(#New_Gradient_Swatch_copy_18);}.cls-6{fill:url(#linear-gradient-4);}.cls-7{fill:url(#linear-gradient-5);}.cls-8{fill:url(#linear-gradient-6);}.cls-9{fill:url(#linear-gradient-7);}.cls-10{fill:#333390;}.cls-11{fill:url(#linear-gradient-8);}.cls-12{fill:url(#linear-gradient-9);}.cls-13{fill:url(#linear-gradient-10);}.cls-14{fill:url(#linear-gradient-11);}.cls-15{fill:url(#linear-gradient-12);}.cls-16{fill:#eceff0;}
		</style>
		<linearGradient id="linear-gradient" x1="22.97" y1="11.94" x2="40.91" y2="11.94" gradientTransform="translate(43.97 20.03) rotate(90)" gradientUnits="userSpaceOnUse">
			<stop offset="0" stop-color="#c6c6c6"/>
			<stop offset="0.42" stop-color="#aeaeae"/>
			<stop offset="1" stop-color="#878787"/>
		</linearGradient>
		<linearGradient id="linear-gradient-2" x1="26.34" y1="-8.37" x2="37.59" y2="-8.37" gradientTransform="translate(43.97 20.03) rotate(90)" gradientUnits="userSpaceOnUse">
			<stop offset="0" stop-color="#7815fc"/>
			<stop offset="0.45" stop-color="#6010f5"/>
			<stop offset="1" stop-color="#3d08ea"/>
		</linearGradient>
		<linearGradient id="linear-gradient-3" x1="26.34" y1="13.08" x2="37.59" y2="13.08" gradientTransform="translate(43.97 20.03) rotate(90)" gradientUnits="userSpaceOnUse">
			<stop offset="0" stop-color="#e55da1"/>
			<stop offset="0.39" stop-color="#ca2027"/>
			<stop offset="0.56" stop-color="#b52022"/>
			<stop offset="0.9" stop-color="#7e2115"/>
			<stop offset="1" stop-color="#6d2111"/>
		</linearGradient>
		<linearGradient id="New_Gradient_Swatch_copy_18" x1="26.34" y1="23.81" x2="37.59" y2="23.81" gradientTransform="translate(43.97 20.03) rotate(90)" gradientUnits="userSpaceOnUse">
			<stop offset="0" stop-color="#aa4a9b"/>
			<stop offset="0.04" stop-color="#a4489a"/>
			<stop offset="0.36" stop-color="#733493"/>
			<stop offset="0.52" stop-color="#602d90"/>
			<stop offset="1" stop-color="#341263"/>
		</linearGradient>
		<linearGradient id="linear-gradient-4" x1="2.12" y1="32.35" x2="20.06" y2="32.35" gradientTransform="translate(41.17 7.11) rotate(45)" href="#linear-gradient"/>
		<linearGradient id="linear-gradient-5" x1="5.5" y1="12.03" x2="16.75" y2="12.03" gradientTransform="translate(52.56 12.36) rotate(90)" gradientUnits="userSpaceOnUse">
			<stop offset="0" stop-color="#fc9512"/>
			<stop offset="0.21" stop-color="#fd7b11"/>
			<stop offset="0.75" stop-color="#fe3e0e"/>
			<stop offset="1" stop-color="#ff260d"/>
		</linearGradient>
		<linearGradient id="linear-gradient-6" x1="5.5" y1="22.76" x2="16.75" y2="22.76" gradientTransform="translate(55.7 19.95) rotate(90)" gradientUnits="userSpaceOnUse">
			<stop offset="0" stop-color="#e14f9b"/>
			<stop offset="0.2" stop-color="#d03894"/>
			<stop offset="0.38" stop-color="#be1f8d"/>
			<stop offset="0.63" stop-color="#96196a"/>
			<stop offset="0.86" stop-color="#77144f"/>
			<stop offset="0.99" stop-color="#6b1245"/>
		</linearGradient>
		<linearGradient id="linear-gradient-7" x1="5.5" y1="33.49" x2="16.75" y2="33.49" gradientTransform="translate(58.84 27.54) rotate(90)" gradientUnits="userSpaceOnUse">
			<stop offset="0" stop-color="#a6ce38"/>
			<stop offset="1" stop-color="#68bc45"/>
		</linearGradient>
		<linearGradient id="linear-gradient-8" x1="3" y1="31.97" x2="20.94" y2="31.97" gradientTransform="matrix(1, 0, 0, 1, 0, 0)" href="#linear-gradient"/>
		<linearGradient id="linear-gradient-9" x1="6.38" y1="11.66" x2="17.63" y2="11.66" gradientUnits="userSpaceOnUse">
			<stop offset="0" stop-color="#2357ff"/>
			<stop offset="0.38" stop-color="#1b6ff6"/>
			<stop offset="1" stop-color="#0b9ee3"/>
		</linearGradient>
		<linearGradient id="linear-gradient-10" x1="6.38" y1="22.39" x2="17.63" y2="22.39" gradientUnits="userSpaceOnUse">
			<stop offset="0" stop-color="#0fc000"/>
			<stop offset="0.28" stop-color="#0ba809"/>
			<stop offset="0.87" stop-color="#026b21"/>
			<stop offset="1" stop-color="#005c27"/>
		</linearGradient>
		<linearGradient id="linear-gradient-11" x1="6.38" y1="33.11" x2="17.63" y2="33.11" gradientUnits="userSpaceOnUse">
			<stop offset="0" stop-color="#ffeb1c"/>
			<stop offset="0.32" stop-color="#fed319"/>
			<stop offset="0.99" stop-color="#fc9612"/>
			<stop offset="1" stop-color="#fc9512"/>
		</linearGradient>
		<linearGradient id="linear-gradient-12" x1="6.38" y1="43.84" x2="17.63" y2="43.84" gradientUnits="userSpaceOnUse">
			<stop offset="0" stop-color="#fd0947"/>
			<stop offset="0.57" stop-color="#e50842"/>
			<stop offset="1" stop-color="#d0073d"/>
		</linearGradient>
	</defs>
	<g>
		<path class="cls-1" d="M61,59.94V44a1,1,0,0,0-1-1H12C.09,43.47.07,60.46,12,60.94H60A1,1,0,0,0,61,59.94Z"/><rect class="cls-2" x="48.06" y="46.38" width="8.56" height="11.25" rx="1"/>
		<rect class="cls-3" x="37.33" y="46.38" width="8.56" height="11.25" rx="1"/><rect class="cls-4" x="26.6" y="46.38" width="8.56" height="11.25" rx="1"/>
		<rect class="cls-5" x="15.88" y="46.38" width="8.56" height="11.25" rx="1"/><path class="cls-6" d="M52.26,23,41,11.7a1,1,0,0,0-1.42,0l-34,34c-8.07,8.72,3.93,20.76,12.68,12.68l34-34A1,1,0,0,0,52.26,23Z"/>
		<rect class="cls-7" x="36.24" y="17.86" width="8.56" height="11.25" rx="1" transform="translate(-4.74 35.53) rotate(-45)"/>
		<rect class="cls-8" x="28.66" y="25.44" width="8.56" height="11.25" rx="1" transform="translate(-12.32 32.39) rotate(-45)"/>
		<rect class="cls-9" x="21.07" y="33.03" width="8.56" height="11.25" rx="1" transform="translate(-19.91 29.25) rotate(-45)"/>
		<rect class="cls-10" x="13.48" y="40.62" width="8.56" height="11.25" rx="1" transform="translate(-27.5 26.1) rotate(-45)"/>
		<path class="cls-11" d="M19.94,3H4A1,1,0,0,0,3,4V52c.46,11.88,17.46,11.9,17.94,0V4A1,1,0,0,0,19.94,3Z"/>
		<rect class="cls-12" x="6.38" y="7.38" width="11.25" height="8.56" rx="1"/>
		<rect class="cls-13" x="6.38" y="18.1" width="11.25" height="8.56" rx="1"/>
		<rect class="cls-14" x="6.38" y="28.83" width="11.25" height="8.56" rx="1"/>
		<rect class="cls-15" x="6.38" y="39.56" width="11.25" height="8.56" rx="1"/>
		<path class="cls-16" d="M12,50a3.38,3.38,0,0,0,0,6.76A3.38,3.38,0,0,0,12,50Z"/>
	</g>
</svg>