<svg xmlns="http://www.w3.org/2000/svg" xmlns:xlink="http://www.w3.org/1999/xlink" x="0px" y="0px" viewBox="0 0 512 512">
	<path fill="#92E0EA" d="M315, 290.3c -15.2 -8.7 -18.3 -23.4 -18.5 -33.4c0.2 -10, 3.3 -24.7, 18.5 -33.3c24.6 -14, 70.2 -15.8, 98.3 -61.4 c28.1 -45.6, 17.6 -105.3, 17.6 -105.3H294.2h -58.1H99.3c0, 0 -10.5, 59.7, 17.6, 105.3c28.1, 45.6, 73.7, 47.4, 98.3, 61.4 c15.2, 8.7, 18.3, 23.4, 18.5, 33.3c -0.2, 10 -3.3, 24.7 -18.5, 33.4c -24.6, 14 -70.2, 15.8 -98.3, 61.4C88.8, 397.4, 99.3, 457, 99.3, 457h136.7h58.1 h136.7c0, 0, 10.5 -59.7 -17.6 -105.3C385.3, 306.1, 339.6, 304.3, 315, 290.3z"/>

	<path fill="wheat" d="M236.7, 219.2c11, 7.3, 13.2, 23.2, 13.4, 31.6c -0.1, 8.4 -2.4, 33.5 -13.4, 40.8h56.9c -10.1 -8.2 -12.2 -32.7 -12.3 -40.8 c0.1 -8.4, 2.4 -24.3, 13.4 -31.6c17.8 -11.8, 53 -11.6, 86.1 -48.1c2.6 -2.8, 3.3 -6.8, 4.5 -10.3H142.9c1.2, 3.5, 1.8, 7.5, 4.4, 10.3 C180, 205.9, 218.9, 207.4, 236.7, 219.2z"/>

	<path fill="#77D0DE" d="M315, 223.6c24.6 -14, 70.2 -15.8, 98.3 -61.4c28.1 -45.6, 17.6 -105.3, 17.6 -105.3H294.2h -28.9V457h28.9h136.7 c0, 0, 10.5 -59.7 -17.6 -105.3c -28.1 -45.6 -73.7 -47.4 -98.3 -61.4c -15.2 -8.7 -18.3 -23.4 -18.5 -33.4C296.7, 247, 299.9, 232.3, 315, 223.6z"/>
	<path fill="tan" d="M264.8, 291.6h28.8c -10.1 -8.2 -12.2 -32.7 -12.3 -40.8c0.1 -8.4, 2.4 -24.3, 13.4 -31.6c17.8 -11.8, 53 -11.6, 86.1 -48.1 c2.6 -2.8, 3.3 -6.8, 4.5 -10.3H264.8V291.6z"/>

	<g>
		<g>
			<rect x="77.8" y="7" fill="#F77B55" width="370" height="52.1"/>
			<rect x="77.8" y="7" fill="#FF916E" width="370" height="37.2"/>
		</g>
		<g>
			<rect x="77.8" y="454.8" fill="#F77B55" width="370" height="52.1"/>
			<rect x="77.8" y="469.7" fill="#FF916E" width="370" height="37.2"/>
		</g>
	</g>
</svg>
