<svg version="1.1" xmlns="http://www.w3.org/2000/svg" xmlns:xlink="http://www.w3.org/1999/xlink" x="0px" y="0px"
	 viewBox="0 0 84.4 84.4">
	<style type="text/css">
		.st1{fill:grey;}
		.st2{fill:#DB5135;}
		.st3{fill:#CC4029;}
	</style>
	<g transform="translate(-10, -10) scale(1.25)">
		<g>
			<path class="st1" d="M45.7,23.6c-0.1,0-0.1,0-0.2,0c-0.7-0.1-1.1-0.7-1-1.4c1.1-7.2,6.7-10.6,7-10.8c0.6-0.3,1.3-0.1,1.6,0.4
				c0.3,0.6,0.2,1.3-0.4,1.6c-0.1,0-4.9,3-5.8,9C46.8,23.2,46.3,23.6,45.7,23.6z"/>
		</g>
		<g>
			<path class="st1" d="M38.7,23.6c-0.6,0-1.1-0.4-1.2-1c-0.9-6-5.8-9-5.8-9c-0.6-0.3-0.8-1.1-0.4-1.6c0.3-0.6,1.1-0.8,1.6-0.4
				c0.2,0.1,5.9,3.6,7,10.8c0.1,0.7-0.4,1.3-1,1.4C38.8,23.6,38.7,23.6,38.7,23.6z"/>
		</g>
		<g>
			<path class="st1" d="M49.6,35.2c-0.4,0-0.9,0-1.4-0.1c-0.7-0.1-1.2-0.6-1.1-1.3c0-0.7,0.6-1.2,1.3-1.1c5.1,0.4,6.5-1.5,6.8-2
				c0.2-1,1.1-6.2,1.7-8.8c0.7-3.6,4.4-5.2,4.6-5.3c0.6-0.3,1.3,0,1.6,0.6c0.3,0.6,0,1.3-0.6,1.6c0,0-2.7,1.2-3.2,3.5
				c-0.6,3-1.7,8.9-1.7,9c0,0.1,0,0.2-0.1,0.2C57.3,31.7,55.9,35.2,49.6,35.2z"/>
		</g>
		<g>
			<path class="st1" d="M67.3,56.4c-0.5,0-0.9-0.3-1.1-0.7l-3.1-7.5c-3.9-3.5-8.8-3.4-8.9-3.4c-0.7,0-1.2-0.5-1.2-1.2
				c0-0.7,0.5-1.2,1.2-1.2c0.3,0,6.1-0.1,10.7,4.2c0.1,0.1,0.2,0.3,0.3,0.4l3.2,7.7c0.2,0.6,0,1.3-0.7,1.6
				C67.6,56.3,67.4,56.4,67.3,56.4z"/>
		</g>
		<g>
			<path class="st1" d="M62.5,67.5c-0.7,0-1.2-0.5-1.2-1.2v-7.5l-6.7-9.1c-0.4-0.5-0.3-1.3,0.3-1.7c0.5-0.4,1.3-0.3,1.7,0.3l6.9,9.4
				c0.2,0.2,0.2,0.5,0.2,0.7v7.9C63.7,67,63.2,67.5,62.5,67.5z"/>
		</g>
		<g>
			<path class="st1" d="M34.8,35.2c-6.3,0-7.7-3.5-7.8-3.6c0-0.1-0.1-0.1-0.1-0.2c0-0.1-1.1-6-1.7-9C24.7,20,22,18.9,22,18.8
				c-0.6-0.3-0.9-1-0.6-1.6c0.3-0.6,1-0.9,1.6-0.6c0.2,0.1,3.9,1.7,4.6,5.3c0.5,2.7,1.5,7.9,1.7,8.9c0.2,0.4,1.6,2.4,6.8,2
				c0.7-0.1,1.2,0.4,1.3,1.1c0.1,0.7-0.4,1.2-1.1,1.3C35.7,35.2,35.2,35.2,34.8,35.2z"/>
		</g>
		<g>
			<path class="st1" d="M17.1,56.4c-0.2,0-0.3,0-0.5-0.1c-0.6-0.2-0.9-1-0.7-1.6l3.2-7.7c0.1-0.2,0.2-0.3,0.3-0.4
				c4.6-4.3,10.5-4.2,10.7-4.2c0.7,0,1.2,0.6,1.2,1.2c0,0.7-0.5,1.2-1.2,1.2c-0.1,0-5,0-8.9,3.4l-3.1,7.5
				C18,56.1,17.6,56.4,17.1,56.4z"/>
		</g>
		<g>
			<path class="st1" d="M21.9,67.5c-0.7,0-1.2-0.5-1.2-1.2v-7.9c0-0.3,0.1-0.5,0.2-0.7l6.9-9.4c0.4-0.5,1.1-0.6,1.7-0.3
				c0.5,0.4,0.6,1.1,0.3,1.7l-6.7,9.1v7.5C23.1,67,22.5,67.5,21.9,67.5z"/>
		</g>
		<path class="st2" d="M34.9,31.1c0,0-7.7,5.9-7.4,18.7c0,0,0.3,19.2,14.7,19.2V32L34.9,31.1z"/>
		<path class="st3" d="M56.9,49.8c0.3-12.8-7.4-18.7-7.4-18.7L42.2,32V69C56.6,69,56.9,49.8,56.9,49.8z"/>
		<path class="st1" d="M42.2,17.7c0,0-10.2,1.7-8,13.6c0,0,0.9,3.1,8,3.1s8-3.1,8-3.1C52.4,19.4,42.2,17.7,42.2,17.7z"/>
		<ellipse class="st3" cx="49.2" cy="26.7" rx="2.1" ry="2.9"/>
		<ellipse class="st3" cx="35.2" cy="26.7" rx="2.1" ry="2.9"/>
	</g>
</svg>
