<svg xmlns:svg="http://www.w3.org/2000/svg" xmlns="http://www.w3.org/2000/svg" viewBox="0 5 48 48">
	<g fill="tan" transform="translate(0 1.5)">
		<path d="M 43.5,11.5 H 21 L 16.5,7 h -12 c -3,0 -3,0 -3,3 v 8 h 45 v -3.5 c 0,0 0,-3 -3,-3 z" />
	</g>
	<path fill="wheat" d="M 3,16.75 C 1.5,16.75 1.5,18 1.5,18 v 25.75 c 0,2.25 0,2 3,2 h 39 c 3,0 3,0.25 3,-2 V 18 c 0,0 0,-1.25 -1.5,-1.25 z" />
	<g transform="translate(-22, 4) scale(.03)" fill="none" stroke="RosyBrown" stroke-width="85">
		<path id="left-eye" stroke="royalblue" d="m 1208 528 v 161" />
		<path id="right-eye" stroke="royalblue" d="m 1792 528 v 161" />
		<path id="nose" d="M 1500, 510 C 1440, 650 1400, 740 1400, 960 h 250" />
		<path id="mouth" d="m 1060, 1100 c 280, 150 660, 150 930, 5" />
	</g>
</svg>