<svg xmlns="http://www.w3.org/2000/svg" xmlns:xlink="http://www.w3.org/1999/xlink" x="0px" y="0px" viewBox="0 0 56 56">
	<path style="fill:#f04040;" d="M28, 0C12.536, 0, 0, 12.536, 0, 28s12.536, 28, 28, 28s28 -12.536, 28 -28S43.464, 0, 28, 0z M28, 42.56 c -8.041, 0 -14.56 -6.519 -14.56 -14.56S19.959, 13.44, 28, 13.44S42.56, 19.959, 42.56, 28S36.041, 42.56, 28, 42.56z"/>
	<path style="fill:lightgrey;" d="M21.392, 0.805c -0.134 -0.536 -0.678 -0.86 -1.213 -0.728c -0.536, 0.134 -0.861, 0.677 -0.728, 1.212 l3.261, 13.045c0.114, 0.455, 0.521, 0.758, 0.969, 0.758c0.081, 0, 0.162 -0.01, 0.244 -0.03c0.536 -0.134, 0.861 -0.677, 0.728 -1.212 L21.392, 0.805z"/>
	<path style="fill:lightgrey;" d="M35.821, 0.077c -0.533 -0.133 -1.079, 0.191 -1.213, 0.728L31.347, 13.85 c -0.134, 0.535, 0.192, 1.078, 0.728, 1.212c0.082, 0.021, 0.163, 0.03, 0.244, 0.03c0.448, 0, 0.855 -0.303, 0.969 -0.758l3.261 -13.045 C36.683, 0.754, 36.357, 0.211, 35.821, 0.077z"/>
	<path style="fill:lightgrey;" d="M33.288, 41.666c -0.134 -0.537 -0.679 -0.858 -1.213 -0.728c -0.536, 0.134 -0.861, 0.677 -0.728, 1.212 l3.261, 13.045c0.114, 0.455, 0.521, 0.758, 0.969, 0.758c0.081, 0, 0.162 -0.01, 0.244 -0.03c0.536 -0.134, 0.861 -0.677, 0.728 -1.212 L33.288, 41.666z"/>
	<path style="fill:lightgrey;" d="M23.925, 40.938c -0.535 -0.131 -1.078, 0.19 -1.213, 0.728l -3.261, 13.045 c -0.134, 0.535, 0.192, 1.078, 0.728, 1.212c0.082, 0.021, 0.163, 0.03, 0.244, 0.03c0.448, 0, 0.855 -0.303, 0.969 -0.758l3.261 -13.045 C24.787, 41.615, 24.461, 41.072, 23.925, 40.938z"/>
	<path style="fill:lightgrey;" d="M41.908, 24.683c0.081, 0, 0.162 -0.01, 0.244 -0.03l13.045 -3.261c0.536 -0.134, 0.861 -0.677, 0.728 -1.212 c -0.134 -0.537 -0.678 -0.863 -1.213 -0.728l -13.045, 3.261c -0.536, 0.134 -0.861, 0.677 -0.728, 1.212 C41.052, 24.38, 41.46, 24.683, 41.908, 24.683z"/>
	<path style="fill:lightgrey;" d="M55.196, 34.608l -13.045 -3.261c -0.533 -0.133 -1.078, 0.191 -1.213, 0.728 c -0.134, 0.535, 0.192, 1.078, 0.728, 1.212l13.045, 3.261c0.082, 0.021, 0.163, 0.03, 0.244, 0.03c0.448, 0, 0.855 -0.303, 0.969 -0.758 C56.058, 35.285, 55.732, 34.742, 55.196, 34.608z"/>
	<path style="fill:lightgrey;" d="M13.849, 31.348L0.804, 34.608c -0.536, 0.134 -0.861, 0.677 -0.728, 1.212 c0.114, 0.455, 0.521, 0.758, 0.969, 0.758c0.081, 0, 0.162 -0.01, 0.244 -0.03l13.045 -3.261c0.536 -0.134, 0.861 -0.677, 0.728 -1.212 C14.927, 31.539, 14.383, 31.215, 13.849, 31.348z"/>
	<path style="fill:lightgrey;" d="M14.334, 22.713L1.289, 19.452c -0.533 -0.136 -1.079, 0.19 -1.213, 0.728 c -0.134, 0.535, 0.192, 1.078, 0.728, 1.212l13.045, 3.261c0.082, 0.021, 0.163, 0.03, 0.244, 0.03c0.448, 0, 0.855 -0.303, 0.969 -0.758 C15.195, 23.39, 14.87, 22.847, 14.334, 22.713z"/>
</svg>
