<svg xmlns="http://www.w3.org/2000/svg" xmlns:xlink="http://www.w3.org/1999/xlink" x="0px" y="0px" viewBox="0 0 180 360">
	<path fill="#EF4130" d="M4.7, 135.1l-0.8, 68c-0.1, 7.6, 6, 13.8, 13.6, 13.9l141.2, 1.6c7.6, 0.1, 13.8-6, 13.9-13.6l0.8-68L4.7, 135.1z"/>
	<g>
		<polygon fill="#8C1F0F" points="173.2, 144.1 4.6, 142.2 4.7, 135.1 173.3, 137.1 "/>
		<polygon fill="#8C1F0F" points="173.1, 158.8 4.4, 156.8 4.5, 149.8 173.2, 151.7 "/>
		<polygon fill="#8C1F0F" points="172.9, 173.4 4.3, 171.5 4.3, 164.4 173, 166.4 "/>
		<polygon fill="#8C1F0F" points="172.7, 188.1 4.1, 186.1 4.2, 179.1 172.8, 181 "/>
	</g>
	<path fill="#EF4130" d="M108.3, 214.1l-40.4-0.5C65, 252, 62, 290.4, 59.1, 328.8c-1.3, 14.2, 11, 24, 27.4, 24.2c16.4, 0.2, 28.9-9.3, 28-23.6 C112.4, 291, 110.4, 252.5, 108.3, 214.1z M86.6, 341.1c-5.9, 0-10.5-4.9-10.5-10.7c0.1-5.9, 4.9-10.6, 10.7-10.5 c5.8, 0.1, 10.6, 4.9, 10.5, 10.7C97.3, 336.5, 92.5, 341.2, 86.6, 341.1z "/>
	<g>
		<path fill="#8C1F0F" d="M86.6, 344.1c-7.5-0.1-13.6-6.3-13.5-13.8c0.1-7.5, 6.3-13.6, 13.8-13.5c7.5, 0.1, 13.6, 6.3, 13.5, 13.8 C100.3, 338.2, 94.1, 344.2, 86.6, 344.1z M86.8, 322.9c-4.2, 0-7.6, 3.3-7.7, 7.5c0, 4.2, 3.3, 7.6, 7.5, 7.6c4.2, 0, 7.6-3.3, 7.7-7.5 C94.4, 326.4, 91, 323, 86.8, 322.9z "/>
	</g>
	<polygon fill="white" points="174.8, 5.8 6.2, 3.9 4.7, 135.1 173.3, 137.1 "/>
	<g>
		<polygon fill="grey" points="17, 4 12.5, 3.9 11.3, 110.5 15.8, 110.5 "/>
		<polygon fill="grey" points="29.7, 4.1 25.1, 4.1 23.9, 110.6 28.4, 110.7 "/>
		<polygon fill="grey" points="42.3, 4.3 37.8, 4.2 36.5, 110.8 41.1, 110.8 "/>
		<polygon fill="grey" points="54.9, 4.4 50.4, 4.4 49.1, 110.9 53.7, 111 "/>
		<polygon fill="grey" points="67.5, 4.6 63, 4.5 61.8, 111 66.3, 111.1 "/>
		<polygon fill="grey" points="80.2, 4.7 75.6, 4.7 74.4, 111.2 78.9, 111.2 "/>
		<polygon fill="grey" points="92.8, 4.9 88.2, 4.8 87, 111.3 91.6, 111.4 "/>
		<polygon fill="grey" points="105.4, 5 100.9, 5 99.6, 111.5 104.2, 111.5 "/>
		<polygon fill="grey" points="118, 5.2 113.5, 5.1 112.3, 111.6 116.8, 111.7 "/>
		<polygon fill="grey" points="130.7, 5.3 126.1, 5.2 124.9, 111.8 129.4, 111.8 "/>
		<polygon fill="grey" points="143.3, 5.4 138.8, 5.4 137.5, 111.9 142.1, 112 "/>
		<polygon fill="grey" points="155.9, 5.6 151.4, 5.5 150.1, 112.1 154.7, 112.1 "/>
		<polygon fill="grey" points="168.5, 5.7 164, 5.7 162.8, 112.2 167.3, 112.3 "/>
	</g>
</svg>
