<svg height="512" viewBox="0 0 512 512" width="512" xmlns="http://www.w3.org/2000/svg">
	<rect fill="#25b1fa" height="464" rx="10" width="312" x="176" y="24"/>
	<g fill="#fffdfa">
		<path d="m208 72h96v88h-96z"/>
		<path d="m352 72h96v88h-96z"/>
		<path d="m352 216h96v88h-96z"/>
		<path d="m352 352h96v88h-96z"/>
	</g>
	<path d="m400 280a7.976 7.976 0 0 1 -5.657-2.343l-24-24 11.314-11.314 18.343 18.344 50.343-50.344 11.314 11.314-56 56a7.976 7.976 0 0 1 -5.657 2.343z" fill="#b3e9ff"/>
	<path d="m400 416a7.976 7.976 0 0 1 -5.657-2.343l-24-24 11.314-11.314 18.343 18.344 50.343-50.344 11.314 11.314-56 56a7.976 7.976 0 0 1 -5.657 2.343z" fill="#b3e9ff"/>
	<path d="m400 136a7.976 7.976 0 0 1 -5.657-2.343l-24-24 11.314-11.314 18.343 18.344 50.343-50.344 11.314 11.314-56 56a7.976 7.976 0 0 1 -5.657 2.343z" fill="#b3e9ff"/>
	<path d="m256 136a7.976 7.976 0 0 1 -5.657-2.343l-24-24 11.314-11.314 18.343 18.344 50.343-50.344 11.314 11.314-56 56a7.976 7.976 0 0 1 -5.657 2.343z" fill="#b3e9ff"/>
	<circle cx="168" cy="344" fill="#fac850" r="144"/>
	<path d="m168 456a112.007 112.007 0 1 1 112-112 112.127 112.127 0 0 1 -112 112z" fill="#fffdfa"/>
	<path d="m168 224a120 120 0 1 0 120 120 120.136 120.136 0 0 0 -120-120zm103.7 128a103.557 103.557 0 0 1 -24.75 59.632l-11.063-11.064-11.313 11.315 11.062 11.063a103.557 103.557 0 0 1 -59.636 24.754v-15.7h-16v15.7a103.557 103.557 0 0 1 -59.631-24.749l11.062-11.063-11.313-11.315-11.063 11.059a103.557 103.557 0 0 1 -24.75-59.632h15.695v-16h-15.695a103.557 103.557 0 0 1 24.75-59.632l11.063 11.064 11.313-11.315-11.062-11.063a103.557 103.557 0 0 1 59.631-24.749v15.695h16v-15.695a103.557 103.557 0 0 1 59.631 24.749l-11.062 11.063 11.313 11.315 11.063-11.064a103.557 103.557 0 0 1 24.755 59.632h-15.7v16z" fill="#fcde96"/>
	<path d="m160 356.155-37 29.6 10 12.494 40-32a8 8 0 0 0 3-6.249v-80h-16z" fill="#fac850"/>
</svg>