<svg 
	id="dart-file-icon" 
	xmlns="http://www.w3.org/2000/svg" 
	xmlns:xlink="http://www.w3.org/1999/xlink" 
	viewBox="0 0 56 56">

	<style>
		.file-body {
			fill: #E9E9E0;
		}
		.file-corner {
			fill: lightgrey;
		}
		.file-type text {
			font-size: 14px;
			font-family: Lucida Grande, sans-serif; 
			fill: white;
		}
	</style>

	<path class="file-body" d="M 36.985, 0 H 7.963 C 7.155, 0, 6.5, 0.655, 6.5, 1.926 V 55 c 0, 0.345, 0.655, 1, 1.463, 1 h 40.074 c 0.808, 0, 1.463 -0.655, 1.463 -1 V 12.978 c 0 -0.696 -0.093 -0.92 -0.257 -1.085 L 37.607, 0.257 C 37.442, 0.093, 37.218, 0, 36.985, 0 z" />
	<g class="file-icon" transform="translate(13, 7) scale(0.2)">
		<path fill="#01579B" d="M29.64, 108.94L6.36, 85.66c-2.76-2.84-4.48-6.84-4.48-10.75c0-1.81, 1.02-4.64, 1.79-6.27l21.49-44.77
			L29.64, 108.94z"/>
		<path fill="#40C4FF" d="M109.34, 28.35L86.06, 5.07c-2.03-2.04-6.27-4.48-9.85-4.48c-3.08, 0-6.1, 0.62-8.06, 1.79L25.17, 23.87
			L109.34, 28.35z"/>
		<polygon fill="#40C4FF" points="57.4, 136.7 113.82, 136.7 113.82, 112.52 71.73, 99.09 33.23, 112.52 		"/>
		<path fill="#29B6F6" d="M25.17, 96.41c0, 7.18, 0.9, 8.95, 4.48, 12.54l3.58, 3.58h80.59l-39.4-44.77L25.17, 23.88V96.41z"/>
		<path fill="#01579B" d="M96.8, 23.87H25.16l88.65, 88.65h24.18V57l-28.65-28.65C105.32, 24.31, 101.74, 23.87, 96.8, 23.87z"/>
		<path opacity="0.2" fill="#FFFFFF" enable-background="new    " d="M30.54, 109.84c-3.58-3.6-4.48-7.14-4.48-13.43V24.77l-0.9-0.9
			V96.4C25.17, 102.7, 25.17, 104.44, 30.54, 109.84l2.69, 2.69l0, 0L30.54, 109.84z"/>
		<polygon opacity="0.2" fill="#263238" enable-background="new    " points="137.1, 56.11 137.1, 111.63 112.92, 111.63
			113.82, 112.52 138, 112.52 138, 57.01 		"/>
		<path opacity="0.2" fill="#FFFFFF" enable-background="new    " d="M109.34, 28.35c-4.44-4.44-8.08-4.48-13.43-4.48H25.17l0.9, 0.9
			h69.85C98.58, 24.77, 105.33, 24.32, 109.34, 28.35L109.34, 28.35z"/>

			<radialGradient id="SVGID_1_" cx="69.955" cy="60.8864" r="68.065" gradientTransform="matrix(1 0 0 -1 0 129.5328)" gradientUnits="userSpaceOnUse">
			<stop  offset="0" style="stop-color:#FFFFFF;stop-opacity:0.1"/>
			<stop  offset="1" style="stop-color:#FFFFFF;stop-opacity:0"/>
		</radialGradient>
		<path opacity="0.2" fill="url(#SVGID_1_)" enable-background="new    " d="M137.1, 56.11l-27.76-27.76L86.06, 5.07
			c-2.03-2.04-6.27-4.48-9.85-4.48c-3.08, 0-6.1, 0.62-8.06, 1.79L25.17, 23.87L3.68, 68.64c-0.77, 1.63-1.79, 4.46-1.79, 6.27
			c0, 3.91, 1.72, 7.91, 4.48, 10.75l21.46, 21.3c0.51, 0.63, 1.11, 1.27, 1.83, 1.98l0.9, 0.9l2.69, 2.69l23.28, 23.28l0.9, 0.9h55.52h0.9v-24.18
			h24.18v-0.06V57.01L137.1, 56.11z"/>
	</g>
	<g class="file-type">
		<path style="fill:#01579B;" d="M 48.037, 56 H 7.963 C 7.155, 56, 6.5, 55.345, 6.5, 54.537 V 39 h 43 v 15.537 C 49.5, 55.345, 48.845, 56, 48.037, 56 z" />
		<text x="28" y="52.5" text-anchor="middle">DART</text>
	</g>
	<polygon class="file-corner" points="37.5, 0.151 37.5, 12 49.349, 12" stroke-linejoin="round" />
</svg>