<svg 
	id="dwg-file-icon" 
	xmlns="http://www.w3.org/2000/svg" 
	xmlns:xlink="http://www.w3.org/1999/xlink" 
	viewBox="0 0 56 56">

	<style>
		.file-body {
			fill: #E9E9E0;
		}
		.file-corner {
			fill: lightgrey;
		}
		.file-type text {
			font-size: 14px;
			font-family: Lucida Grande, sans-serif; 
			fill: white;
		}
	</style>
	
	<path class="file-body" d="M36.985, 0H7.963C7.155, 0, 6.5, 0.655, 6.5, 1.926V55c0, 0.345, 0.655, 1, 1.463, 1h40.074 c 0.808, 0, 1.463 -0.655, 1.463 -1V12.978c0 -0.696 -0.093 -0.92 -0.257 -1.085L37.607, 0.257C37.442, 0.093, 37.218, 0, 36.985, 0z" />
	<g class="file-icon">
		<rect x="12.5" y="13" style="fill:#C8BDB8;" width="15" height="15.065" />
		<rect x="34.5" y="14" style="fill:#ADA29E;" width="2" height="7" />
		<rect x="34.5" y="29" style="fill:#ADA29E;" width="2" height="7" />
		<path style="fill:#ADA29E;" d="M40.5, 30h -10V20h10V30z M32.5, 28h6v -6h -6V28z" />
		<rect x="39.5" y="24" style="fill:#ADA29E;" width="7" height="2" />
		<rect x="24.5" y="24" style="fill:#ADA29E;" width="7" height="2" />
	</g>
	<g class="file-type">
		<path style="fill:#8697CB;" d="M48.037, 56H7.963C7.155, 56, 6.5, 55.345, 6.5, 54.537V39h43v15.537C49.5, 55.345, 48.845, 56, 48.037, 56z" />
		<text x="28" y="52.5" text-anchor="middle">DWG</text>
	</g>
	<polygon class="file-corner" points="37.5, 0.151 37.5, 12 49.349, 12" stroke-linejoin="round" />
</svg>