<svg 
	id="elm-file-icon" 
	xmlns="http://www.w3.org/2000/svg" 
	xmlns:xlink="http://www.w3.org/1999/xlink" 
	viewBox="0 0 56 56">

	<style>
		.file-body {
			fill: #E9E9E0;
		}
		.file-corner {
			fill: lightgrey;
		}
		.file-type text {
			font-size: 14px;
			font-family: Lucida Grande, sans-serif; 
			fill: white;
		}
	</style>

	<path class="file-body" d="M 36.985, 0 H 7.963 C 7.155, 0, 6.5, 0.655, 6.5, 1.926 V 55 c 0, 0.345, 0.655, 1, 1.463, 1 h 40.074 c 0.808, 0, 1.463 -0.655, 1.463 -1 V 12.978 c 0 -0.696 -0.093 -0.92 -0.257 -1.085 L 37.607, 0.257 C 37.442, 0.093, 37.218, 0, 36.985, 0 z" />
	<g class="file-icon" transform="translate(15, 10) scale(.075)">
		<polygon
			fill="#F0AD00"
			points="161.649,152.782 231.514,82.916 91.783,82.916"/>
		<polygon
			fill="#7FD13B"
			points="8.867,0 79.241,70.375 232.213,70.375 161.838,0"/>
		<rect
			fill="#7FD13B"
			x="192.99"
			y="107.392"
			transform="matrix(0.7071 0.7071 -0.7071 0.7071 186.4727 -127.2386)"
			width="107.676"
			height="108.167"/>
		<polygon
			fill="#60B5CC"
			points="323.298,143.724 323.298,0 179.573,0"/>
		<polygon
			fill="#5A6378"
			points="152.781,161.649 0,8.868 0,314.432"/>
		<polygon
			fill="#F0AD00"
			points="255.522,246.655 323.298,314.432 323.298,178.879"/>
		<polygon
			fill="#60B5CC"
			points="161.649,170.517 8.869,323.298 314.43,323.298"/>
	</g>
	<g class="file-type">
		<path style="fill:#60B5CC;" d="M 48.037, 56 H 7.963 C 7.155, 56, 6.5, 55.345, 6.5, 54.537 V 39 h 43 v 15.537 C 49.5, 55.345, 48.845, 56, 48.037, 56 z" />
		<text x="28" y="52.5" text-anchor="middle">ELM</text>
	</g>
	<polygon class="file-corner" points="37.5, 0.151 37.5, 12 49.349, 12" stroke-linejoin="round" />
</svg>