<svg 
	id="f-file-icon" 
	xmlns="http://www.w3.org/2000/svg" 
	xmlns:xlink="http://www.w3.org/1999/xlink" 
	viewBox="0 0 56 56">

	<style>
		.file-body {
			fill: #E9E9E0;
		}
		.file-corner {
			fill: lightgrey;
		}
		.file-type text {
			font-size: 14px;
			font-family: Lucida Grande, sans-serif; 
			fill: white;
		}
	</style>
	
	<path class="file-body" d="M 36.985, 0 H 7.963 C 7.155, 0, 6.5, 0.655, 6.5, 1.926 V 55 c 0, 0.345, 0.655, 1, 1.463, 1 h 40.074 c 0.808, 0, 1.463 -0.655, 1.463 -1 V 12.978 c 0 -0.696 -0.093 -0.92 -0.257 -1.085 L 37.607, 0.257 C 37.442, 0.093, 37.218, 0, 36.985, 0 z" />
	<g class="file-icon" transform="translate(0,-8) scale(.3)">
		<rect style="fill:#734f96" width="75" height="75" x="55.794144" y="59.530357" ry="13.948536" />
		<path fill="white" d="m 66.01647,123.09029 c 0,-2.98216 0.0232,-3.24783 0.284142,-3.25337 0.156278,-0.003 1.698346,-0.0723 3.426817,-0.15338 2.783528,-0.13052 3.227886,-0.19014 3.888311,-0.52167 0.522164,-0.26212 0.845509,-0.56896 1.07887,-1.02377 0.330889,-0.6449 0.333235,-0.79405 0.333235,-21.18891 0,-19.16494 -0.0188,-20.573793 -0.280899,-21.052796 -0.35488,-0.648562 -0.970461,-1.135802 -1.726889,-1.366854 -0.324547,-0.09913 -2.033124,-0.219157 -3.796837,-0.266719 l -3.20675,-0.08648 V 70.949727 67.72311 h 27.277676 27.277674 v 12.09635 12.09635 l -2.88201,-0.01619 c -1.58511,-0.0089 -3.06468,-0.06699 -3.28794,-0.129079 -0.39914,-0.111009 -0.40916,-0.154768 -0.60046,-2.62228 -0.24553,-3.166944 -0.44624,-4.569394 -0.9554,-6.675976 -1.10082,-4.554462 -3.42356,-7.032127 -7.21648,-7.697813 -1.59136,-0.279295 -8.534273,-0.549154 -14.243197,-0.553608 l -3.937405,-0.0031 v 9.095131 9.095131 l 2.070182,-0.102679 c 2.366865,-0.117396 4.22742,-0.40322 5.125527,-0.787403 0.95651,-0.409167 1.9665,-1.442775 2.43932,-2.496357 0.49398,-1.100746 0.8172,-2.547274 1.07659,-4.818245 0.10201,-0.893019 0.21923,-1.788068 0.2605,-1.988997 0.0747,-0.363787 0.0884,-0.365326 3.238103,-0.365326 h 3.16306 v 14.531856 14.531855 h -3.22343 -3.223423 l -0.10838,-1.67638 c -0.19627,-3.0357 -0.78736,-5.91064 -1.49764,-7.28416 -0.97089,-1.87752 -2.88173,-2.721509 -6.722534,-2.969276 -0.848368,-0.05473 -1.784855,-0.137083 -2.081083,-0.183012 l -0.538596,-0.08351 0.06292,9.142548 c 0.06636,9.64289 0.09513,10.01966 0.826875,10.82774 0.752359,0.83085 1.191043,0.88792 8.833448,1.14929 0.15537,0.005 0.20296,0.76836 0.20296,3.25429 v 3.24734 H 81.684896 66.01647 Z" />
	</g>
	<g class="file-type">
		<path style="fill:#734f96;" d="M 48.037, 56 H 7.963 C 7.155, 56, 6.5, 55.345, 6.5, 54.537 V 39 h 43 v 15.537 C 49.5, 55.345, 48.845, 56, 48.037, 56 z" />
		<text x="28" y="52.5" text-anchor="middle">F</text>
	</g>
	<polygon class="file-corner" points="37.5, 0.151 37.5, 12 49.349, 12" stroke-linejoin="round" />
</svg>