<svg 
	id="file-icon" 
	xmlns="http://www.w3.org/2000/svg" 
	xmlns:xlink="http://www.w3.org/1999/xlink" 
	viewBox="0 0 56 56">

	<style>
		.file-body {
			fill: #E9E9E0;
		}
		.file-corner {
			fill: lightgrey;
		}
	</style>
	
	<path class="file-body" d="M 36.985, 0 H 7.963 C 7.155, 0, 6.5, 0.655, 6.5, 1.926 V 55 c 0, 0.345, 0.655, 1, 1.463, 1 h 40.074 c 0.808, 0, 1.463 -0.655, 1.463 -1 V 12.978 c 0 -0.696 -0.093 -0.92 -0.257 -1.085 L 37.607, 0.257C37.442, 0.093, 37.218, 0, 36.985, 0 z" />
	<g class="file-type">
		<path style="fill:#C8BDB8;" d="M48.037, 56H7.963C7.155, 56, 6.5, 55.345, 6.5, 54.537V39h43v15.537C49.5, 55.345, 48.845, 56, 48.037, 56z" />
		<circle style="fill:#FFFFFF;" cx="18.5" cy="47" r="3" />
		<circle style="fill:#FFFFFF;" cx="28.5" cy="47" r="3" />
		<circle style="fill:#FFFFFF;" cx="38.5" cy="47" r="3" />
	</g>
	<polygon class="file-corner" points="37.5, 0.151 37.5, 12 49.349, 12" stroke-linejoin="round" />
</svg>