<svg 
	id="fla-file-icon" 
	xmlns="http://www.w3.org/2000/svg" 
	xmlns:xlink="http://www.w3.org/1999/xlink" 
	viewBox="0 0 56 56">

	<style>
		.file-body {
			fill: #E9E9E0;
		}
		.file-corner {
			fill: lightgrey;
		}
		.file-type text {
			font-size: 14px;
			font-family: Lucida Grande, sans-serif; 
			fill: white;
		}
	</style>
	
	<path class="file-body" d="M 36.985, 0 H 7.963 C 7.155, 0, 6.5, 0.655, 6.5, 1.926 V 55 c 0, 0.345, 0.655, 1, 1.463, 1 h 40.074 c 0.808, 0, 1.463 -0.655, 1.463-1 V 12.978 c 0 -0.696 -0.093 -0.92 -0.257 -1.085 L 37.607, 0.257 C 37.442, 0.093, 37.218, 0, 36.985, 0 z" />
	<g class="file-icon">
		<circle style="fill:#C8BDB8;" cx="25.5" cy="16" r="2" />
		<path style="fill:#C8BDB8;" d="M 34.985, 13.929 l -0.707 -0.707 C 32.201, 11.144, 29.438, 10, 26.5, 10 s -5.701, 1.144 -7.778, 3.222 C 16.644, 15.299, 15.5, 18.062, 15.5, 21s1.144, 5.701, 3.222, 7.778 C 20.799, 30.856, 23.562, 32, 26.5, 32 s 5.701-1.144, 7.778 -3.222 l 0.707 -0.707 L 27.914, 21 L 34.985, 13.929 z M 32.118, 28.032 C 30.528, 29.308, 28.567, 30, 26.5, 30 c -2.404, 0 -4.664 -0.936 -6.364 -2.636 S 17.5, 23.404, 17.5, 21 s 0.936 -4.664, 2.636 -6.364 S 24.096, 12, 26.5, 12c2.067, 0, 4.028, 0.692, 5.618, 1.968L25.086, 21 L 32.118, 28.032 z" />
		<path style="fill:#C8BDB8;" d="M35.5, 20h-3c-0.553, 0-1, 0.447-1, 1s0.447, 1, 1, 1h3c0.553, 0, 1-0.447, 1-1S36.053, 20, 35.5, 20z" />
		<path style="fill:#C8BDB8;" d="M41.5, 20h-2c-0.553, 0-1, 0.447-1, 1s0.447, 1, 1, 1h2c0.553, 0, 1-0.447, 1-1S42.053, 20, 41.5, 20z" />
	</g>
	<g class="file-type">
		<path style="fill:#CE3C3B;" d="M 48.037, 56 H 7.963 C 7.155, 56, 6.5, 55.345, 6.5, 54.537 V 39 h 43 v 15.537 C 49.5, 55.345, 48.845, 56, 48.037, 56 z" />
		<text x="28" y="52.5" text-anchor="middle">FLA</text>
	</g>
	<polygon class="file-corner" points="37.5, 0.151 37.5, 12 49.349, 12" stroke-linejoin="round" />
</svg>