<svg 
	id="gif-file-icon" 
	xmlns:svg="http://www.w3.org/2000/svg" 
	xmlns="http://www.w3.org/2000/svg" 
	viewBox="0 0 56 56">

	<style>
		.file-body {
			fill: #E9E9E0;
		}
		.file-corner {
			fill: lightgrey;
		}
		.file-type text {
			font-size: 14px;
			font-family: Lucida Grande, sans-serif; 
			fill: white;
		}
	</style>
	
	<path class="file-body" style="fill:#E9E9E0" d="M36.985, 0H7.963C7.155, 0, 6.5, 0.655, 6.5, 1.926V 55 c 0, 0.345, 0.655, 1, 1.463, 1h 40.074 c 0.808, 0, 1.463 -0.655, 1.463 -1V 12.978 c 0 -0.696 -0.093 -0.92 -0.257 -1.085 L 37.607, 0.257 C 37.442, 0.093, 37.218, 0, 36.985, 0 z" />
	<g class="file-icon">
		<circle style="fill:#F3D55B; " cx="18.931" cy="14.431" r="4.569" />
		<polygon style="fill:#88c057; fill-opacity:1" points="6.5, 39 17.5, 39 49.5, 39 49.5, 28 39.5, 18.5 29, 30 23.517, 24.517" />
	</g>
	<g class="file-type">
		<path style="fill:#659c35; fill-opacity:1" d="M 48.037, 56 H 7.963 C 7.155, 56, 6.5, 55.345, 6.5, 54.537 V 39h 43 v 15.537 C 49.5, 55.345, 48.845, 56, 48.037, 56 z" />
		<text x="28" y="52.5" text-anchor="middle">GIF</text>
	</g>
	<polygon class="file-corner" style="fill:lightgrey" points="37.5, 0.151 37.5, 12 49.349, 12" />
</svg>