<svg 
	id="go-file-icon" 
	xmlns="http://www.w3.org/2000/svg" 
	xmlns:xlink="http://www.w3.org/1999/xlink" 
	viewBox="0 0 56 56">

	<style>
		.file-body {
			fill: #E9E9E0;
		}
		.file-corner {
			fill: lightgrey;
		}
		.file-type text {
			font-size: 14px;
			font-family: Lucida Grande, sans -serif; 
			fill: white;
		}
	</style>
	
	<path class="file-body" d="M 36.985, 0 H 7.963 C 7.155, 0, 6.5, 0.655, 6.5, 1.926 V 55 c 0, 0.345, 0.655, 1, 1.463, 1 h 40.074 c 0.808, 0, 1.463  -0.655, 1.463  -1 V 12.978 c 0  -0.696  -0.093  -0.92  -0.257  -1.085 L 37.607, 0.257 C 37.442, 0.093, 37.218, 0, 36.985, 0 z" />
	<g class="file-icon" transform="translate(10, 15) scale(0.15)">
		<path d="M15.5, 23.2c -0.4, 0 -0.5 -0.2 -0.3 -0.5l2.1 -2.7c0.2 -0.3, 0.7 -0.5, 1.1 -0.5h35.7c0.4, 0, 0.5, 0.3, 0.3, 0.6l -1.7, 2.6 c -0.2, 0.3 -0.7, 0.6 -1, 0.6L15.5, 23.2z" fill="#00ACD7" />
		<path d="M0.4, 32.4c -0.4, 0 -0.5 -0.2 -0.3 -0.5l2.1 -2.7c0.2 -0.3, 0.7 -0.5, 1.1 -0.5h45.6c0.4, 0, 0.6, 0.3, 0.5, 0.6l -0.8, 2.4 c -0.1, 0.4 -0.5, 0.6 -0.9, 0.6L0.4, 32.4z" fill="#00ACD7" />
		<path d="M24.6, 41.6c -0.4, 0 -0.5 -0.3 -0.3 -0.6l1.4 -2.5c0.2 -0.3, 0.6 -0.6, 1 -0.6h20c0.4, 0, 0.6, 0.3, 0.6, 0.7L47.1, 41 c0, 0.4 -0.4, 0.7 -0.7, 0.7L24.6, 41.6z" fill="#00ACD7" />
		<g>
			<path d="M128.4, 21.4c -6.3, 1.6 -10.6, 2.8 -16.8, 4.4c -1.5, 0.4 -1.6, 0.5 -2.9 -1c -1.5 -1.7 -2.6 -2.8 -4.7 -3.8 c -6.3 -3.1 -12.4 -2.2 -18.1, 1.5c -6.8, 4.4 -10.3, 10.9 -10.2, 19c0.1, 8, 5.6, 14.6, 13.5, 15.7c6.8, 0.9, 12.5 -1.5, 17 -6.6 c0.9 -1.1, 1.7 -2.3, 2.7 -3.7c -3.6, 0 -8.1, 0 -19.3, 0c -2.1, 0 -2.6 -1.3 -1.9 -3c1.3 -3.1, 3.7 -8.3, 5.1 -10.9c0.3 -0.6, 1 -1.6, 2.5 -1.6 c5.1, 0, 23.9, 0, 36.4, 0c -0.2, 2.7 -0.2, 5.4 -0.6, 8.1c -1.1, 7.2 -3.8, 13.8 -8.2, 19.6c -7.2, 9.5 -16.6, 15.4 -28.5, 17 c -9.8, 1.3 -18.9 -0.6 -26.9 -6.6c -7.4 -5.6 -11.6 -13 -12.7 -22.2c -1.3 -10.9, 1.9 -20.7, 8.5 -29.3c7.1 -9.3, 16.5 -15.2, 28 -17.3 c9.4 -1.7, 18.4 -0.6, 26.5, 4.9c5.3, 3.5, 9.1, 8.3, 11.6, 14.1C130, 20.6, 129.6, 21.1, 128.4, 21.4z" fill="#00ACD7" />
			<path d="M161.5, 76.7c  -9.1 -0.2 -17.4 -2.8 -24.4 -8.8c -5.9 -5.1 -9.6 -11.6 -10.8 -19.3c -1.8 -11.3, 1.3 -21.3, 8.1 -30.2 c7.3 -9.6, 16.1 -14.6, 28 -16.7c10.2 -1.8, 19.8 -0.8, 28.5, 5.1c7.9, 5.4, 12.8, 12.7, 14.1, 22.3c1.7, 13.5 -2.2, 24.5 -11.5, 33.9 c  -6.6, 6.7 -14.7, 10.9 -24, 12.8C166.8, 76.3, 164.1, 76.4, 161.5, 76.7z M185.3, 36.3c -0.1 -1.3 -0.1 -2.3 -0.3 -3.3 c -1.8 -9.9 -10.9 -15.5 -20.4 -13.3c -9.3, 2.1 -15.3, 8 -17.5, 17.4c -1.8, 7.8, 2, 15.7, 9.2, 18.9c5.5, 2.4, 11, 2.1, 16.3 -0.6 C180.5, 51.3, 184.8, 44.9, 185.3, 36.3z" fill="#00ACD7" />
		</g>
	</g>
	<g class="file-type">
		<path style="fill:#00ACD7;" d="M 48.037, 56 H 7.963 C 7.155, 56, 6.5, 55.345, 6.5, 54.537 V 39 h 43 v 15.537 C 49.5, 55.345, 48.845, 56, 48.037, 56 z" />
		<text x="28" y="52.5" text-anchor="middle">GO</text>
	</g>
	<polygon class="file-corner" points="37.5, 0.151 37.5, 12 49.349, 12" stroke-linejoin="round" />
</svg>