<svg 
	id="hbs-file-icon" 
	xmlns="http://www.w3.org/2000/svg" 
	xmlns:xlink="http://www.w3.org/1999/xlink" 
	viewBox="0 0 56 56">

	<style>
		.file-body {
			fill: #E9E9E0;
		}
		.file-corner {
			fill: lightgrey;
		}
		.file-type text {
			font-size: 14px;
			font-family: Lucida Grande, sans-serif; 
			fill: white;
		}
	</style>

	<path class="file-body" d="M 36.985, 0 H 7.963 C 7.155, 0, 6.5, 0.655, 6.5, 1.926 V 55 c 0, 0.345, 0.655, 1, 1.463, 1 h 40.074 c 0.808, 0, 1.463 -0.655, 1.463 -1 V 12.978 c 0 -0.696 -0.093 -0.92 -0.257 -1.085 L 37.607, 0.257 C 37.442, 0.093, 37.218, 0, 36.985, 0 z" />
	<g class="file-icon" transform="translate(12, 18) scale(0.5)">
		<path d="M6.678 7.243c.564-.464.976-1.086 1.2-1.786.412-1.076-.114-2.28-1.2-2.712C3.212.989.974 4.117.65 4.845s-.896 1.884-.534 4.52 1.634 5.07 5.612 6.028c3.806.884 7.8.4 11.3-1.32l11.76-4.904c1.087-.267 2.202-.405 3.322-.414V4.727A9.2 9.2 0 0 0 23.204.041c-6.352.5-8.876 3.768-10.4 5.168S8.39 9.927 6.468 9.347 4.004 6.393 4.682 5.663s1.212-.6 1.634 0a3.18 3.18 0 0 1 .376 1.574z" fill="sienna" />
		<path d="M57.318 7.243c-.564-.464-.976-1.086-1.2-1.786-.412-1.076.114-2.28 1.2-2.712 3.466-1.756 5.704 1.372 6.028 2.1s.896 1.884.534 4.52-1.634 5.07-5.612 6.028c-3.806.884-7.8.4-11.3-1.32l-11.76-4.904c-1.087-.267-2.202-.405-3.322-.414V4.727A9.2 9.2 0 0 1 40.792.041c6.352.5 8.876 3.768 10.4 5.168s4.414 4.7 6.336 4.12 2.464-2.954 1.786-3.684-1.212-.6-1.634 0a3.18 3.18 0 0 0-.376 1.574z" fill="sienna" />
	</g>
	<g class="file-type">
		<path style="fill:sienna;" d="M 48.037, 56 H 7.963 C 7.155, 56, 6.5, 55.345, 6.5, 54.537 V 39 h 43 v 15.537 C 49.5, 55.345, 48.845, 56, 48.037, 56 z" />
		<text x="28" y="52.5" text-anchor="middle">HBS</text>
	</g>
	<polygon class="file-corner" points="37.5, 0.151 37.5, 12 49.349, 12" stroke-linejoin="round" />
</svg>