<svg 
	id="hs-file-icon" 
	xmlns="http://www.w3.org/2000/svg" 
	xmlns:xlink="http://www.w3.org/1999/xlink" 
	viewBox="0 0 56 56">

	<style>
		.file-body {
			fill: #E9E9E0;
		}
		.file-corner {
			fill: lightgrey;
		}
		.file-type text {
			font-size: 14px;
			font-family: Lucida Grande, sans-serif; 
			fill: white;
		}
	</style>
	<path class="file-body" d="M 36.985, 0 H 7.963 C 7.155, 0, 6.5, 0.655, 6.5, 1.926 V 55 c 0, 0.345, 0.655, 1, 1.463, 1 h 40.074 c 0.808, 0, 1.463 -0.655, 1.463 -1 V 12.978 c 0 -0.696 -0.093 -0.92 -0.257 -1.085 L 37.607, 0.257 C 37.442, 0.093, 37.218, 0, 36.985, 0 z" />
	<g class="file-icon" transform="translate(13, 10) scale(.25)">
		<path d="M1.842 77.722L26.586 40.63 1.842 3.537H20.4L45.144 40.63 20.4 77.722H1.842zm0 0" fill="#453a62"/>
		<path d="M26.586 77.722L51.33 40.63 26.586 3.537h18.558L94.63 77.722H76.074L60.61 54.54 45.143 77.722H26.586zm0 0" fill="#5e5086"/>
		<path d="M86.384 56.085L78.136 43.72h28.868v12.366h-20.62zM74.012 37.54l-8.248-12.365h41.24V37.54H74.012zm0 0" fill="#8f4e8b"/>
	</g>
	<g class="file-type">
		<path style="fill:#453a62;" d="M 48.037, 56 H 7.963 C 7.155, 56, 6.5, 55.345, 6.5, 54.537 V 39 h 43 v 15.537 C 49.5, 55.345, 48.845, 56, 48.037, 56 z" />
		<text x="28" y="52.5" text-anchor="middle">HS</text>
	</g>
	<polygon class="file-corner" points="37.5, 0.151 37.5, 12 49.349, 12" stroke-linejoin="round" />
</svg>