<svg 
	id="htm-file-icon" 
	xmlns="http://www.w3.org/2000/svg" 
	xmlns:xlink="http://www.w3.org/1999/xlink" 
	viewBox="0 0 56 56">

	<style>
		.file-body {
			fill: #E9E9E0;
		}
		.file-corner {
			fill: lightgrey;
		}
		.file-type text {
			font-size: 14px;
			font-family: Lucida Grande, sans-serif; 
			fill: white;
		}
	</style>
	
	<path class="file-body" d="M 36.985, 0 H 7.963 C 7.155, 0, 6.5, 0.655, 6.5, 1.926 V 55 c 0, 0.345, 0.655, 1, 1.463, 1 h 40.074 c 0.808, 0, 1.463 -0.655, 1.463 -1V12.978c0 -0.696 -0.093 -0.92 -0.257 -1.085 L 37.607, 0.257 C 37.442, 0.093, 37.218, 0, 36.985, 0 z" />
	<g class="file-icon">
		<path style="fill:#EC6630;" d="M 23.207, 16.293c -0.391 -0.391 -1.023 -0.391 -1.414, 0l -6, 6 c -0.391, 0.391 -0.391, 1.023, 0, 1.414 l 6, 6 C 21.988, 29.902, 22.244, 30, 22.5, 30 s 0.512 -0.098, 0.707 -0.293 c 0.391 -0.391, 0.391 -1.023, 0 -1.414 L 17.914, 23 l 5.293 -5.293 C 23.598, 17.316, 23.598, 16.684, 23.207, 16.293 z" />
		<path style="fill:#EC6630;" d="M 41.207, 22.293 l -6 -6 c -0.391 -0.391 -1.023 -0.391 -1.414, 0 s -0.391, 1.023, 0, 1.414 L 39.086, 23 l -5.293, 5.293 c -0.391, 0.391 -0.391, 1.023, 0, 1.414 C 33.988, 29.902, 34.244, 30, 34.5, 30 s 0.512 -0.098, 0.707 -0.293 l 6 -6 C 41.598, 23.316, 41.598, 22.684, 41.207, 22.293 z" />
	</g>
	<g class="file-type">
		<path style="fill:#EC6630;" d="M 48.037, 56 H 7.963 C 7.155, 56, 6.5, 55.345, 6.5, 54.537 V 39 h 43 v 15.537 C 49.5, 55.345, 48.845, 56, 48.037, 56 z" />
		<text x="28" y="52.5" text-anchor="middle">HTM</text>
	</g>
	<polygon class="file-corner" points="37.5, 0.151 37.5, 12 49.349, 12" stroke-linejoin="round" />
</svg>