<svg 
	id="java-file-icon" 
	xmlns="http://www.w3.org/2000/svg" 
	xmlns:xlink="http://www.w3.org/1999/xlink" 
	viewBox="0 0 56 56">

	<style>
		.file-body {
			fill: #E9E9E0;
		}
		.file-corner {
			fill: lightgrey;
		}
		.file-type text {
			font-size: 14px;
			font-family: Lucida Grande, sans-serif; 
			fill: white;
		}
	</style>
	
	<path class="file-body" d="M 36.985, 0 H 7.963 C 7.155, 0, 6.5, 0.655, 6.5, 1.926 V 55 c 0, 0.345, 0.655, 1, 1.463, 1 h 40.074 c 0.808, 0, 1.463 -0.655, 1.463 -1 V 12.978 c 0 -0.696 -0.093 -0.92 -0.257 -1.085 L 37.607, 0.257 C 37.442, 0.093, 37.218, 0, 36.985, 0 z" />
	<g class="file-icon" transform="translate(15, 3) scale(0.25)">
		<g class="steam" fill="#E76F00">
			<path class="st1" d="M51.03,58.76c5.93,6.82-1.56,12.96-1.56,12.96s15.05-7.77,8.14-17.5C51.15,45.15,46.2,40.64,73,25.1 C73,25.1,30.94,35.6,51.03,58.76L51.03,58.76z" />
			<path class="st1" d="M57.61,0c0,0,12.77,12.77-12.11,32.41c-19.95,15.75-4.55,24.74-0.01,35C33.85,56.91,25.3,47.66,31.03,39.05 C39.45,26.41,62.76,20.29,57.61,0L57.61,0z" />
		</g>
		<g class="cup" fill="#5382A1">
			<path d="M29.19,95.03c0,0-4.7,2.73,3.34,3.65c9.74,1.11,14.71,0.95,25.44-1.08c0,0,2.82,1.77,6.76,3.3 C40.68,111.22,10.29,100.31,29.19,95.03L29.19,95.03z"/>
			<path class="st0" d="M26.25,81.58c0,0-5.27,3.9,2.78,4.73c10.4,1.07,18.62,1.16,32.83-1.58c0,0,1.97,1.99,5.06,3.08 C37.83,96.32,5.43,88.48,26.25,81.58L26.25,81.58z"/>
			<path class="st0" d="M82.84,104.98c0,0,3.47,2.86-3.83,5.08c-13.88,4.21-57.79,5.48-69.99,0.17c-4.38-1.91,3.84-4.55,6.42-5.11 c2.7-0.59,4.24-0.48,4.24-0.48c-4.88-3.43-31.52,6.74-13.53,9.66C55.2,122.25,95.56,110.72,82.84,104.98L82.84,104.98z"/>
			<path class="st0" d="M31.45,67.64c0,0-22.33,5.3-7.91,7.23c6.09,0.82,18.23,0.63,29.54-0.32c9.24-0.78,18.52-2.44,18.52-2.44 s-3.26,1.4-5.62,3.01c-22.68,5.96-66.49,3.19-53.88-2.91C22.77,67.05,31.45,67.64,31.45,67.64L31.45,67.64z"/>
			<path class="st0" d="M71.51,90.03c23.05-11.98,12.39-23.49,4.95-21.94c-1.82,0.38-2.64,0.71-2.64,0.71s0.68-1.06,1.97-1.52 c14.72-5.17,26.04,15.26-4.75,23.36C71.05,90.64,71.4,90.32,71.51,90.03L71.51,90.03z"/>
			<path class="st0" d="M33.71,122.49c22.13,1.42,56.11-0.79,56.92-11.26c0,0-1.55,3.97-18.29,7.12c-18.89,3.55-42.18,3.14-56,0.86 C16.34,119.22,19.17,121.56,33.71,122.49L33.71,122.49z"/>
		</g>
	</g>
	<g class="file-type">
		<path style="fill:#5382A1;" d="M 48.037, 56 H 7.963 C 7.155, 56, 6.5, 55.345, 6.5, 54.537 V 39 h 43 v 15.537 C 49.5, 55.345, 48.845, 56, 48.037, 56 z" />
		<text x="28" y="52.5" text-anchor="middle">JAVA</text>
	</g>
	<polygon class="file-corner" points="37.5, 0.151 37.5, 12 49.349, 12" stroke-linejoin="round" />
</svg>