<svg 
	id="jl-file-icon" 
	xmlns="http://www.w3.org/2000/svg" 
	xmlns:xlink="http://www.w3.org/1999/xlink" 
	viewBox="0 0 56 56">

	<style>
		.file-body {
			fill: #E9E9E0;
		}
		.file-corner {
			fill: lightgrey;
		}
		.file-type text {
			font-size: 14px;
			font-family: Lucida Grande, sans-serif; 
			fill: white;
		}
	</style>
	
	<path class="file-body" d="M 36.985, 0 H 7.963 C 7.155, 0, 6.5, 0.655, 6.5, 1.926 V 55 c 0, 0.345, 0.655, 1, 1.463, 1 h 40.074 c 0.808, 0, 1.463 -0.655, 1.463 -1 V 12.978 c 0 -0.696 -0.093 -0.92 -0.257 -1.085 L 37.607, 0.257 C 37.442, 0.093, 37.218, 0, 36.985, 0 z" />	
	<g class="file-icon" transform="translate(15,10) scale(0.4)">
		<path d="M14.518 59.33C6.493 59.321-.006 52.809 0 44.785s6.515-14.526 14.54-14.523a14.54 14.54 0 0 1 14.53 14.534c-.01 8.03-6.52 14.534-14.55 14.534z" fill="#ca3c32"/>
		<path d="M49.45 59.33c-8.025-.01-14.524-6.52-14.518-14.545s6.515-14.526 14.54-14.523S64 36.77 64 44.795c-.01 8.03-6.52 14.534-14.55 14.534z" fill="#9259a3"/>
		<path d="M31.992 29.069c-8.027 0-14.534-6.507-14.534-14.534S23.965 0 31.992 0s14.534 6.508 14.534 14.535a14.52 14.52 0 0 1-14.534 14.534z" fill="#399746"/>
	</g>
	<g class="file-type">
		<path style="fill:#4d64ae;" d="M 48.037, 56 H 7.963 C 7.155, 56, 6.5, 55.345, 6.5, 54.537 V 39 h 43 v 15.537 C 49.5, 55.345, 48.845, 56, 48.037, 56 z" />
		<text x="28" y="52.5" text-anchor="middle">JL</text>
	</g>
	<polygon class="file-corner" points="37.5, 0.151 37.5, 12 49.349, 12" stroke-linejoin="round" />
</svg>