<svg 
	id="lsp-file-icon" 
	xmlns="http://www.w3.org/2000/svg" 
	xmlns:xlink="http://www.w3.org/1999/xlink" 
	viewBox="0 0 56 56">

	<style>
		.file-body {
			fill: #E9E9E0;
		}
		.file-corner {
			fill: lightgrey;
		}
		.file-type text {
			font-size: 14px;
			font-family: Lucida Grande, sans-serif; 
			fill: white;
		}
	</style>

	<path class="file-body" d="M 36.985, 0 H 7.963 C 7.155, 0, 6.5, 0.655, 6.5, 1.926 V 55 c 0, 0.345, 0.655, 1, 1.463, 1 h 40.074 c 0.808, 0, 1.463 -0.655, 1.463 -1 V 12.978 c 0 -0.696 -0.093 -0.92 -0.257 -1.085 L 37.607, 0.257 C 37.442, 0.093, 37.218, 0, 36.985, 0 z" />
	<g class="file-icon" transform="translate(20, 32) scale(.015 -.015)">
		<path d="M 967.00000,288.00000 L 1003.0000,288.00000 C 1003.0000,182.66667 986.00000,106.00000 952.00000,58.000000 C 918.00000,10.000000 875.00000,-14.000000 823.00000,-14.000000 C 781.00000,-14.000000 740.66667,1.6666667 702.00000,33.000000 C 663.33333,64.333333 628.66667,149.33333 598.00000,288.00000 L 512.00000,676.00000 L 214.00000,0.00000000 L 25.000000,0.00000000 L 453.00000,922.00000 C 430.33333,1041.3333 403.00000,1129.6667 371.00000,1187.0000 C 339.00000,1244.3333 299.33333,1273.0000 252.00000,1273.0000 C 214.00000,1273.0000 181.00000,1258.6667 153.00000,1230.0000 C 125.00000,1201.3333 109.00000,1156.3333 105.00000,1095.0000 L 69.000000,1095.0000 C 71.000000,1193.0000 90.666667,1271.3333 128.00000,1330.0000 C 165.33333,1388.6667 212.00000,1418.3333 268.00000,1419.0000 C 304.00000,1419.0000 338.00000,1404.3333 370.00000,1375.0000 C 402.00000,1345.6667 430.00000,1295.0000 454.00000,1223.0000 C 478.00000,1151.0000 515.00000,1002.3333 565.00000,777.00000 L 636.00000,460.00000 C 664.66667,328.66667 694.66667,241.00000 726.00000,197.00000 C 757.33333,153.00000 795.33333,130.66667 840.00000,130.00000 C 914.66667,130.00000 957.00000,182.66667 967.00000,288.00000 z " id="path10" style="fill:cornflowerblue"/>
	</g>
	<g class="file-type">
		<path style="fill:cornflowerblue;" d="M 48.037, 56 H 7.963 C 7.155, 56, 6.5, 55.345, 6.5, 54.537 V 39 h 43 v 15.537 C 49.5, 55.345, 48.845, 56, 48.037, 56 z" />
		<text x="28" y="52.5" text-anchor="middle">LSP</text>
	</g>
	<polygon class="file-corner" points="37.5, 0.151 37.5, 12 49.349, 12" stroke-linejoin="round" />
</svg>