<svg 
	id="lua-file-icon" 
	xmlns="http://www.w3.org/2000/svg" 
	xmlns:xlink="http://www.w3.org/1999/xlink" 
	viewBox="0 0 56 56">

	<style>
		.file-body {
			fill: #E9E9E0;
		}
		.file-corner {
			fill: lightgrey;
		}
		.file-type text {
			font-size: 14px;
			font-family: Lucida Grande, sans-serif; 
			fill: white;
		}
	</style>

	<path class="file-body" d="M 36.985, 0 H 7.963 C 7.155, 0, 6.5, 0.655, 6.5, 1.926 V 55 c 0, 0.345, 0.655, 1, 1.463, 1 h 40.074 c 0.808, 0, 1.463 -0.655, 1.463 -1 V 12.978 c 0 -0.696 -0.093 -0.92 -0.257 -1.085 L 37.607, 0.257 C 37.442, 0.093, 37.218, 0, 36.985, 0 z" />
	<g class="file-icon" transform="translate(11, 5) scale(.035)">
		<path fill="#000080" d="M835.5,473.6c0-199.8-162.2-362-362-362s-362,162.2-362,362c0,199.8,162.2,362,362,362
			S835.5,673.4,835.5,473.6"/>
		<path fill="#FFFFFF" d="M258.1,627.8h117.3v26.7H227.8V417h30.3V627.8z"/>
		<path fill="#FFFFFF" d="M515.5,654.5v-23.8c-16,22.5-31.9,31.3-57,31.3c-33.2,0-54.4-18.2-54.4-46.6V483.8h27v120.9
			c0,20.5,13.7,33.6,35.2,33.6c28.3,0,46.6-22.8,46.6-57.7v-96.8h27v170.7H515.5z"/>
		<path fill="#FFFFFF" d="M738.4,659.1c-8.8,2.3-13,2.9-18.6,2.9c-17.6,0-26.1-7.8-28-25.1c-19.2,17.6-36.5,25.1-58,25.1
			c-34.5,0-56-19.5-56-50.5c0-22.2,10.1-37.5,30-45.6c10.4-4.2,16.3-5.5,54.7-10.4c21.5-2.6,28.3-7.5,28.3-18.9v-7.2
			c0-16.3-13.7-25.4-38.1-25.4c-25.4,0-37.8,9.4-40.1,30.3h-27.4c0.7-16.9,3.9-26.7,11.7-35.5c11.4-12.7,31.9-19.9,56.7-19.9
			c42,0,64.2,16.3,64.2,46.6v100.4c0,8.5,5.2,13.4,14.7,13.4c1.6,0,2.9,0,5.9-0.7V659.1z M690.8,570.1c-9.1,4.2-15,5.5-43.7,9.4
			c-29,4.2-41.1,13.4-41.1,31.3c0,17.3,12.4,27.4,33.6,27.4c16,0,29.3-5.2,40.4-15.3c8.1-7.5,10.8-13,10.8-22.2V570.1z"/>
	</g>
	<g class="file-type">
		<path style="fill:#000080;" d="M 48.037, 56 H 7.963 C 7.155, 56, 6.5, 55.345, 6.5, 54.537 V 39 h 43 v 15.537 C 49.5, 55.345, 48.845, 56, 48.037, 56 z" />
		<text x="28" y="52.5" text-anchor="middle">LUA</text>
	</g>
	<polygon class="file-corner" points="37.5, 0.151 37.5, 12 49.349, 12" stroke-linejoin="round" />
</svg>