<svg 
	id="make-file-icon" 
	xmlns="http://www.w3.org/2000/svg" 
	xmlns:xlink="http://www.w3.org/1999/xlink" 
	viewBox="0 0 56 56">

	<style>
		.file-body {
			fill: #E9E9E0;
		}
		.file-corner {
			fill: lightgrey;
		}
		.file-type text {
			font-size: 14px;
			font-family: Lucida Grande, sans-serif; 
			fill: white;
		}
	</style>
	
	<path class="file-body" d="M 36.985, 0 H 7.963 C 7.155, 0, 6.5, 0.655, 6.5, 1.926 V 55 c 0, 0.345, 0.655, 1, 1.463, 1 h 40.074 c 0.808, 0, 1.463 -0.655, 1.463 -1 V 12.978 c 0 -0.696 -0.093 -0.92 -0.257 -1.085 L 37.607, 0.257 C 37.442, 0.093, 37.218, 0, 36.985, 0 z" />	
	<g class="file-icon" transform="translate(16, 10)">
		<path d="M9.408 9.14c-.036 1.615 4.452 1.618 4.397 0v-.957c-.131-1.527-4.271-1.536-4.384-.001h-.013v.958zm2.212-1.381c.764 0 1.385.256 1.385.57s-.621.57-1.385.57-1.385-.256-1.385-.57.621-.57 1.385-.57zm6.785-1.051v-.957c-.132-1.527-4.271-1.536-4.384-.001h-.014v.958c-.035 1.616 4.453 1.619 4.398 0zm-3.57-.81c0-.314.621-.57 1.385-.57s1.385.256 1.385.57c0 .314-.621.57-1.385.57s-1.385-.256-1.385-.57zm8.165.244v12.185l-11 5.673v-12.14l9.864-5.19-10.367-5.517-10.331 5.453 9.834 5.23v12.164l-11-5.674v-12.248l.009.005-.009-.019 11.5-6.064 11.5 6.142zm-18.188-.392h-.014v.958c-.036 1.615 4.451 1.618 4.397 0v-.957c-.131-1.527-4.271-1.535-4.383-.001zm3.583.147c0 .314-.621.571-1.385.571-.765 0-1.385-.256-1.385-.571 0-.314.62-.57 1.385-.57.763 0 1.385.256 1.385.57zm5.411-1.491v-.957c-.132-1.528-4.271-1.536-4.384-.001h-.014v.958c-.036 1.615 4.453 1.618 4.398 0zm-2.185-1.381c.763 0 1.385.256 1.385.57s-.622.571-1.385.571c-.765 0-1.385-.256-1.385-.571s.62-.57 1.385-.57z" style="fill:grey" />
	</g>
	<g class="file-type">
		<path style="fill:grey" d="M 48.037, 56 H 7.963 C 7.155, 56, 6.5, 55.345, 6.5, 54.537 V 39 h 43 v 15.537 C 49.5, 55.345, 48.845, 56, 48.037, 56 z" />
		<text x="28" y="52.5" text-anchor="middle">MAKE</text>
	</g>
	<polygon class="file-corner" points="37.5, 0.151 37.5, 12 49.349, 12" stroke-linejoin="round" />
</svg>