<svg 
	id="md-file-icon" 
	xmlns="http://www.w3.org/2000/svg" 
	xmlns:xlink="http://www.w3.org/1999/xlink" 
	viewBox="0 0 56 56">

	<style>
		.file-body {
			fill: #E9E9E0;
		}
		.file-corner {
			fill: lightgrey;
		}
		.file-type text {
			font-size: 14px;
			font-family: Lucida Grande, sans-serif; 
			fill: white;
		}
	</style>
	
	<path class="file-body" d="M36.985, 0H7.963C7.155, 0, 6.5, 0.655, 6.5, 1.926V55c0, 0.345, 0.655, 1, 1.463, 1 h 40.074 c 0.808, 0, 1.463 -0.655, 1.463 -1V12.978c0 -0.696 -0.093 -0.92 -0.257 -1.085L37.607, 0.257C37.442, 0.093, 37.218, 0, 36.985, 0 z" />	
	<g class="file-icon">
		<path style="fill:#C8BDB8;" d="M12.5, 13h6c0.553, 0, 1 -0.448, 1 -1s -0.447 -1 -1 -1h -6c -0.553, 0 -1, 0.448 -1, 1S11.947, 13, 12.5, 13z" />
		<path style="fill:#C8BDB8;" d="M12.5, 18h9c0.553, 0, 1 -0.448, 1 -1s -0.447 -1 -1 -1h -9c -0.553, 0 -1, 0.448 -1, 1S11.947, 18, 12.5, 18z" />
		<path style="fill:#C8BDB8;" d="M25.5, 18c0.26, 0, 0.52 -0.11, 0.71 -0.29c0.18 -0.19, 0.29 -0.45, 0.29 -0.71c0 -0.26 -0.11 -0.52 -0.29 -0.71    c -0.38 -0.37 -1.04 -0.37 -1.42, 0c -0.181, 0.19 -0.29, 0.44 -0.29, 0.71s0.109, 0.52, 0.29, 0.71C24.979, 17.89, 25.24, 18, 25.5, 18z" />
		<path style="fill:#C8BDB8;" d="M29.5, 18h8c0.553, 0, 1 -0.448, 1 -1s -0.447 -1 -1 -1h -8c -0.553, 0 -1, 0.448 -1, 1S28.947, 18, 29.5, 18z" />
		<path style="fill:#C8BDB8;" d="M11.79, 31.29c -0.181, 0.19 -0.29, 0.44 -0.29, 0.71s0.109, 0.52, 0.29, 0.71 C 11.979, 32.89, 12.229, 33, 12.5, 33c0.27, 0, 0.52 -0.11, 0.71 -0.29c0.18 -0.19, 0.29 -0.45, 0.29 -0.71c0 -0.26 -0.11 -0.52 -0.29 -0.71    C12.84, 30.92, 12.16, 30.92, 11.79, 31.29z" />
		<path style="fill:#C8BDB8;" d="M24.5, 31h -8c -0.553, 0 -1, 0.448 -1, 1s0.447, 1, 1, 1h8c0.553, 0, 1 -0.448, 1 -1S25.053, 31, 24.5, 31z" />
		<path style="fill:#C8BDB8;" d="M41.5, 18h2c0.553, 0, 1 -0.448, 1 -1s -0.447 -1 -1 -1h -2c -0.553, 0 -1, 0.448 -1, 1S40.947, 18, 41.5, 18z" />
		<path style="fill:#C8BDB8;" d="M12.5, 23h22c0.553, 0, 1 -0.448, 1 -1s -0.447 -1 -1 -1h -22c -0.553, 0 -1, 0.448 -1, 1S11.947, 23, 12.5, 23z" />
		<path style="fill:#C8BDB8;" d="M43.5, 21h -6c -0.553, 0 -1, 0.448 -1, 1s0.447, 1, 1, 1h6c0.553, 0, 1 -0.448, 1 -1S44.053, 21, 43.5, 21z" />
		<path style="fill:#C8BDB8;" d="M12.5, 28h4c0.553, 0, 1 -0.448, 1 -1s -0.447 -1 -1 -1h -4c -0.553, 0 -1, 0.448 -1, 1S11.947, 28, 12.5, 28z" />
		<path style="fill:#C8BDB8;" d="M30.5, 26h -10c -0.553, 0 -1, 0.448 -1, 1s0.447, 1, 1, 1h10c0.553, 0, 1 -0.448, 1 -1S31.053, 26, 30.5, 26z" />
		<path style="fill:#C8BDB8;" d="M43.5, 26h -9c -0.553, 0 -1, 0.448 -1, 1s0.447, 1, 1, 1h9c0.553, 0, 1 -0.448, 1 -1S44.053, 26, 43.5, 26z" />
	</g>
	<g class="file-type">
		<path style="fill:#90BAE1;" d="M 48.037, 56 H 7.963 C 7.155, 56, 6.5, 55.345, 6.5, 54.537 V 39 h 43 v 15.537 C 49.5, 55.345, 48.845, 56, 48.037, 56 z" />
		<text x="28" y="52.5" text-anchor="middle">MD</text>
	</g>
	<polygon class="file-corner" points="37.5, 0.151 37.5, 12 49.349, 12" stroke-linejoin="round" />
</svg>