<svg 
	id="ppt-file-icon" 
	xmlns="http://www.w3.org/2000/svg" 
	xmlns:xlink="http://www.w3.org/1999/xlink" 
	viewBox="0 0 56 56">

	<style>
		.file-body {
			fill: #E9E9E0;
		}
		.file-corner {
			fill: lightgrey;
		}
		.file-type text {
			font-size: 14px;
			font-family: Lucida Grande, sans-serif; 
			fill: white;
		}
	</style>
	
	<path class="file-body" d="M36.985, 0H7.963C7.155, 0, 6.5, 0.655, 6.5, 1.926V55c0, 0.345, 0.655, 1, 1.463, 1 h 40.074 c 0.808, 0, 1.463 -0.655, 1.463 -1V12.978c0 -0.696 -0.093 -0.92 -0.257 -1.085L37.607, 0.257C37.442, 0.093, 37.218, 0, 36.985, 0 z" />
	<g class="file-icon">
		<path style="fill:#C8BDB8;" d="M39.5, 30h -24V14h24V30z M17.5, 28h20V16h -20V28z" />
		<path style="fill:#C8BDB8;" d="M20.499, 35c -0.175, 0 -0.353 -0.046 -0.514 -0.143c -0.474 -0.284 -0.627 -0.898 -0.343 -1.372l3 -5 c 0.284 -0.474, 0.898 -0.627, 1.372 -0.343c0.474, 0.284, 0.627, 0.898, 0.343, 1.372l -3, 5C21.17, 34.827, 20.839, 35, 20.499, 35z" />
		<path style="fill:#C8BDB8;" d="M34.501, 35c -0.34, 0 -0.671 -0.173 -0.858 -0.485l -3 -5c -0.284 -0.474 -0.131 -1.088, 0.343 -1.372 c 0.474 -0.283, 1.088 -0.131, 1.372, 0.343l3, 5c0.284, 0.474, 0.131, 1.088 -0.343, 1.372C34.854, 34.954, 34.676, 35, 34.501, 35z" />
		<path style="fill:#C8BDB8;" d="M27.5, 16c -0.552, 0 -1 -0.447 -1 -1v -3c0 -0.553, 0.448 -1, 1 -1s1, 0.447, 1, 1v3C28.5, 15.553, 28.052, 16, 27.5, 16   z" />
		<rect x="17.5" y="16" style="fill:#D3CCC9;" width="20" height="12" />
	</g>
	<g class="file-type">
		<path style="fill:#F6712E;" d="M48.037, 56H7.963C7.155, 56, 6.5, 55.345, 6.5, 54.537V39h43v15.537C49.5, 55.345, 48.845, 56, 48.037, 56z" />
		<text x="28" y="52.5" text-anchor="middle">PPT</text>
	</g>
	<polygon class="file-corner" points="37.5, 0.151 37.5, 12 49.349, 12" stroke-linejoin="round" />
</svg>