<svg 
	id="sh-file-icon" 
	xmlns="http://www.w3.org/2000/svg" 
	xmlns:xlink="http://www.w3.org/1999/xlink" 
	viewBox="0 0 56 56">

	<style>
		.file-body {
			fill: #E9E9E0;
		}
		.file-corner {
			fill: lightgrey;
		}
		.file-type text {
			font-size: 14px;
			font-family: Lucida Grande, sans-serif; 
			fill: white;
		}
	</style>
	
	<path class="file-body" d="M 36.985, 0 H 7.963 C 7.155, 0, 6.5, 0.655, 6.5, 1.926 V 55 c 0, 0.345, 0.655, 1, 1.463, 1 h 40.074 c 0.808, 0, 1.463 -0.655, 1.463 -1 V 12.978 c 0 -0.696 -0.093 -0.92 -0.257 -1.085 L 37.607, 0.257 C 37.442, 0.093, 37.218, 0, 36.985, 0 z" />	
	<g class="file-icon" transform="translate(15, 8) scale(1.1)">
		<path d="M21.312 12.644c-.972-1.189-3.646-4.212-4.597-5.284l-1.784 1.018 4.657 5.35c.623.692.459 1.704-.376 2.239-.773.497-5.341 3.376-6.386 4.035-.074-.721-.358-1.391-.826-1.948-.469-.557-6.115-7.376-7.523-9.178-.469-.601-.575-1.246-.295-1.817.268-.549.842-.918 1.43-.918.919 0 1.408.655 1.549 1.215.16.641-.035 1.231-.623 1.685l1.329 1.624 7.796-4.446c1.422-1.051 1.822-2.991.93-4.513-.618-1.053-1.759-1.706-2.978-1.706-1.188 0-.793-.016-9.565 4.475-1.234.591-2.05 1.787-2.05 3.202 0 .87.308 1.756.889 2.487 1.427 1.794 7.561 9.185 7.616 9.257.371.493.427 1.119.15 1.673-.277.555-.812.886-1.429.886-.919 0-1.408-.655-1.549-1.216-.156-.629.012-1.208.604-1.654l-1.277-1.545c-.822.665-1.277 1.496-1.377 2.442-.232 2.205 1.525 3.993 3.613 3.993.596 0 1.311-.177 1.841-.51l9.427-5.946c.957-.664 1.492-1.781 1.492-2.897 0-.744-.24-1.454-.688-2.003zm-8.292-10.492c.188-.087.398-.134.609-.134.532 0 .997.281 1.243.752.312.596.226 1.469-.548 1.912l-5.097 2.888c-.051-1.089-.579-2.081-1.455-2.732l5.248-2.686zm3.254 10.055l-4.828 2.823-.645-.781 4.805-2.808.668.766zm-6.96.238l4.75-2.777.668.768-4.773 2.791-.645-.782zm8.49 1.519l-4.881 2.854-.645-.781 4.858-2.84.668.767z" fill="grey" />
	</g>
	<g class="file-type">
		<path style="fill:grey;" d="M 48.037, 56 H 7.963 C 7.155, 56, 6.5, 55.345, 6.5, 54.537 V 39 h 43 v 15.537 C 49.5, 55.345, 48.845, 56, 48.037, 56 z" />
		<text x="28" y="52.5" text-anchor="middle">SH</text>
	</g>
	<polygon class="file-corner" points="37.5, 0.151 37.5, 12 49.349, 12" stroke-linejoin="round" />
</svg>