<svg 
	id="svg-file-icon" 
	xmlns="http://www.w3.org/2000/svg" 
	xmlns:xlink="http://www.w3.org/1999/xlink" 
	viewBox="0 0 56 56">

	<style>
		.file-body {
			fill: #E9E9E0;
		}
		.file-corner {
			fill: lightgrey;
		}
		.file-type text {
			font-size: 14px;
			font-family: Lucida Grande, sans-serif; 
			fill: white;
		}
	</style>
	
	<path class="file-body" d="M 36.985, 0 H 7.963 C 7.155, 0, 6.5, 0.655, 6.5, 1.926 V 55 c 0, 0.345, 0.655, 1, 1.463, 1 h 40.074 c 0.808, 0, 1.463 -0.655, 1.463 -1V12.978c0 -0.696 -0.093 -0.92 -0.257 -1.085L37.607, 0.257C37.442, 0.093, 37.218, 0, 36.985, 0 z" />
	<g class="file-icon">
		<path style="fill:#C8BDB8;" d="M45.5, 22v -6h -6v2h -6v -4h -10v4h -6v -2h -6v6h6v -2h3.548 c -4.566, 2.636 -7.548, 7.588 -7.548, 13 c 0, 0.552, 0.447, 1, 1, 1s1 -0.448, 1 -1c0 -5.246, 3.229 -9.999, 8 -11.995V24h10v -2.995c4.771, 1.997, 8, 6.75, 8, 11.995c0, 0.552, 0.447, 1, 1, 1 s 1 -0.448, 1 -1c0 -5.412 -2.982 -10.364 -7.548 -13H39.5v2H45.5z M15.5, 20h -2v -2h2V20z M31.5, 22h -6v -3.754V16h6v2.246V22z M41.5, 18h2v2h -2 V18z" />
	</g>
	<g class="file-type">
		<path style="fill:#E57E25;" d="M 48.037, 56 H 7.963 C 7.155, 56, 6.5, 55.345, 6.5, 54.537 V 39 h 43 v 15.537 C 49.5, 55.345, 48.845, 56, 48.037, 56 z" />
		<text x="28" y="52.5" text-anchor="middle">SVG</text>
	</g>
	<polygon class="file-corner" points="37.5, 0.151 37.5, 12 49.349, 12" stroke-linejoin="round" />
</svg>