<svg 
	id="tcl-file-icon" 
	xmlns="http://www.w3.org/2000/svg" 
	xmlns:xlink="http://www.w3.org/1999/xlink" 
	viewBox="0 0 56 56">

	<style>
		.file-body {
			fill: #E9E9E0;
		}
		.file-corner {
			fill: lightgrey;
		}
		.file-type text {
			font-size: 14px;
			font-family: Lucida Grande, sans-serif; 
			fill: white;
		}
	</style>
	
	<path class="file-body" d="M 36.985, 0 H 7.963 C 7.155, 0, 6.5, 0.655, 6.5, 1.926 V 55 c 0, 0.345, 0.655, 1, 1.463, 1 h 40.074 c 0.808, 0, 1.463 -0.655, 1.463 -1V12.978c0 -0.696 -0.093 -0.92 -0.257 -1.085 L 37.607, 0.257 C 37.442, 0.093, 37.218, 0, 36.985, 0 z" />
	<g class="file-icon">
		<g transform="translate(-19, 85) scale(.15)" id="g10">
			<g transform="scale(0.1,-0.1)" id="g12">
				<path
					 id="path16"
					 style="fill:#f14729;fill-opacity:1;fill-rule:nonzero;stroke:none"
					 d="m 2954.46,3376.17 730.48,-22.83 -45.65,901.69 68.48,824.64 -336.7,-17.12 -156.94,62.77 -687.68,-37.09 34.24,-813.23 -34.24,-935.92 428.01,37.09"
						/>
				<path
					 id="path18"
					 style="fill:#1e5cb3;fill-opacity:1;fill-rule:nonzero;stroke:none"
					 d="m 3205.32,3906.15 -76.3,-20.81 41.62,100.58 41.62,280.94 -52.03,10.4 62.43,86.7 77.78,292.29 -136.74,-28.69 c 0,0 72.1,132 148.61,217.98 l -100.05,76.82 c 0,0 -322.35,-141.98 -235.64,-603.27 l -66.63,11.66 63.9,-483.56 -54.02,-13.87 c 0,0 55.34,-112.94 132.84,-166.48 7.04,-4.86 -97.11,378.04 13.88,759.55 l 10.4,-24.27 c 0,0 -88.44,-406.66 0,-735.28 0,0 4.07,-7.81 48.3,-2.61 0,0 80.03,150.88 80.03,241.92"
						/>
				<path
					 id="path26"
					 style="fill:#ffffff;fill-opacity:1;fill-rule:nonzero;stroke:none"
					 d="m 3100.63,4460.75 c 0,0 -46.8,-208.69 -33.33,-547.04 4.04,-101.49 15.14,-194.78 28.69,-275.68 l 0.08,-0.01 c 8.81,-71.03 14.71,-96.75 37.7,-182.34 l -1.34,-55.21 c 0,0 -184.06,587.69 -31.8,1060.28"
						/>
				<path
					 id="path28"
					 style="fill:#ffffff;fill-opacity:1;fill-rule:nonzero;stroke:none"
					 d="m 3213.62,4641.7 c 0,0 41.4,20.62 100.74,28.12 0,0 64.86,-118.89 -94.77,-321.89 0,0 95.23,212.59 72.77,279.19 0,0 -25.12,15.61 -78.74,14.58"
						/>
				<path
					 id="path30"
					 style="fill:#ffffff;fill-opacity:1;fill-rule:nonzero;stroke:none"
					 d="m 3194,4284.82 c 0,0 37.18,-8.61 55.02,5.85 0,0 -35.16,-137.22 -25.94,-212.71 9.22,-75.48 -57.29,-123.8 -57.29,-123.8 0,0 56.65,71.68 38.85,130.07 -12.35,40.47 1.46,144.04 17.04,176.93 0,0 -14.55,2.04 -27.68,23.66"
						/>
				<path
					 id="path32"
					 style="fill:#ffffff;fill-opacity:1;fill-rule:nonzero;stroke:none"
					 d="m 3157.25,3923.28 c 0,0 61.43,7.35 67.88,38.38 0,0 7.52,-185.6 -77.83,-262.09 0,0 65.13,101.58 54.91,206.66 l -44.96,17.05"
						/>
				<path
					 id="path34"
					 style="fill:#ffffff;fill-opacity:1;fill-rule:nonzero;stroke:none"
					 d="m 2984.45,3846.02 c 0,0 -19.81,-22.18 -79.26,26.76 0,0 18.94,-124.75 136.59,-181.85 0,0 -80.97,61 -102.78,126.89 0,0 28.61,8.43 45.45,28.2"
						/>
				<path
					 id="path36"
					 style="fill:#ffffff;fill-opacity:1;fill-rule:nonzero;stroke:none"
					 d="m 2965.48,3893.34 c 0,0 -80.38,204.02 -63.16,479.7 0,0 18.78,-49.93 79.11,-67.43 0,0 -28.43,-5.82 -45.04,-3.3 0,0 -42.05,-116.38 29.09,-408.97"
						/>
				<path
					 id="path38"
					 style="fill:#ffffff;fill-opacity:1;fill-rule:nonzero;stroke:none"
					 d="m 3303.13,4841.35 c 0,0 -30.13,221.37 -218.58,-2.5 -150.06,-178.26 -132.17,-329.6 -122.97,-414.04 2.35,-21.6 -27.92,225.51 136.49,388.12 164.4,162.62 201.54,37.86 205.06,28.42"
						/>
				<path
					 id="path40"
					 style="fill:#fff200;fill-opacity:1;fill-rule:nonzero;stroke:none"
					 d="m 3025.53,5030.16 c 0,0 -147.87,42.23 -194.94,-447.89 0,0 -36.31,151.28 57.61,365.24 93.92,213.96 137.33,82.65 137.33,82.65"
						/>
				<path
					 id="path42"
					 style="fill:#fff200;fill-opacity:1;fill-rule:nonzero;stroke:none"
					 d="m 2842.08,5066 c 0,0 -75.42,-113.44 -58.31,-234.27 0,0 -57.2,227.45 58.31,234.27"
						/>
				<path
					 id="path44"
					 style="fill:#fff200;fill-opacity:1;fill-rule:nonzero;stroke:none"
					 d="m 3397.14,4747.9 c 0,0 89.18,32.9 -38.52,-299.06 0,0 66.1,97.01 107.7,249.41 26.71,97.81 -69.18,49.65 -69.18,49.65"
						/>
				<path
					 id="path46"
					 style="fill:#fff200;fill-opacity:1;fill-rule:nonzero;stroke:none"
					 d="m 3541.38,4773.77 c 0,0 63.05,-57.08 18.37,-132.58 0,0 112.16,117.85 -18.37,132.58"
						/>
			</g>
		</g>
	</g>
	<g class="file-type">
		<path style="fill:#f14729;" d="M 48.037, 56 H 7.963 C 7.155, 56, 6.5, 55.345, 6.5, 54.537 V 39 h 43 v 15.537 C 49.5, 55.345, 48.845, 56, 48.037, 56 z" />
		<text x="28" y="52.5" text-anchor="middle">TCL</text>
	</g>
	<polygon class="file-corner" points="37.5, 0.151 37.5, 12 49.349, 12" stroke-linejoin="round" />
</svg>