<svg 
	id="xls-file-icon" 
	xmlns="http://www.w3.org/2000/svg" 
	xmlns:xlink="http://www.w3.org/1999/xlink" 
	viewBox="0 0 56 56">

	<style>
		.file-body {
			fill: #E9E9E0;
		}
		.file-corner {
			fill: lightgrey;
		}
		.file-type text {
			font-size: 14px;
			font-family: Lucida Grande, sans-serif; 
			fill: white;
		}
	</style>
	
	<path class="file-body" d="M 36.985, 0 H 7.963 C 7.155, 0, 6.5, 0.655, 6.5, 1.926 V 55 c 0, 0.345, 0.655, 1, 1.463, 1 h 40.074 c 0.808, 0, 1.463 -0.655, 1.463 -1 V 12.978 c 0 -0.696 -0.093 -0.92 -0.257 -1.085 L 37.607, 0.257 C 37.442, 0.093, 37.218, 0, 36.985, 0 z" />
	<g class="file-icon">	
		<path style="fill:#C8BDB8;" d="M 23.5, 16 v -4 h -12 v 4 v 2 v 2 v 2 v 2 v 2 v 2 v 2 v 4 h 10 h 2 h 21 v -4 v -2 v -2 v -2 v -2 v -2 v -4 H 23.5 z M 13.5, 14 h 8 v 2 h -8 V 14 z M 13.5, 18 h 8 v 2 h -8 V 18 z M 13.5, 22 h 8 v 2 h -8 V 22 z M 13.5, 26 h 8 v 2 h -8 V 26 z M 21.5, 32 h -8 v -2 h 8 V 32 z M 42.5, 32 h -19 v -2 h 19 V 32 z M 42.5, 28h -19v -2 h 19 V 28 z M 42.5, 24 h -19 v -2 h 19 V 24 z M 23.5, 20v -2 h 19 v 2 H 23.5 z" />
	</g>
	<g class="file-type">
		<path style="fill:#91CDA0;" d="M 48.037, 56 H 7.963 C 7.155, 56, 6.5, 55.345, 6.5, 54.537 V 39 h 43 v 15.537 C 49.5, 55.345, 48.845, 56, 48.037, 56 z" />
		<text x="28" y="52.5" text-anchor="middle">XLS</text>
	</g>
	<polygon class="file-corner" points="37.5, 0.151 37.5, 12 49.349, 12" stroke-linejoin="round" />
</svg>