<svg 
	id="xml-file-icon" 
	xmlns="http://www.w3.org/2000/svg" 
	xmlns:xlink="http://www.w3.org/1999/xlink" 
	viewBox="0 0 56 56">

	<style>
		.file-body {
			fill: #E9E9E0;
		}
		.file-corner {
			fill: lightgrey;
		}
		.file-type text {
			font-size: 14px;
			font-family: Lucida Grande, sans-serif; 
			fill: white;
		}
	</style>
	
	<path class="file-body" d="M 36.985, 0 H 7.963 C 7.155, 0, 6.5, 0.655, 6.5, 1.926 V 55 c 0, 0.345, 0.655, 1, 1.463, 1 h 40.074 c 0.808, 0, 1.463 -0.655, 1.463 -1 V 12.978 c 0 -0.696 -0.093 -0.92 -0.257 -1.085 L 37.607, 0.257 C 37.442, 0.093, 37.218, 0, 36.985, 0 z" />	
	<g class="file-icon">
		<path style="fill:#9777A8;" d="M15.5, 24c -0.256, 0 -0.512 -0.098 -0.707 -0.293c -0.391 -0.391 -0.391 -1.023, 0 -1.414l6 -6 c 0.391 -0.391, 1.023 -0.391, 1.414, 0s0.391, 1.023, 0, 1.414l -6, 6C16.012, 23.902, 15.756, 24, 15.5, 24z" />
		<path style="fill:#9777A8;" d="M21.5, 30c -0.256, 0 -0.512 -0.098 -0.707 -0.293l -6 -6c -0.391 -0.391 -0.391 -1.023, 0 -1.414 s 1.023 -0.391, 1.414, 0l6, 6c0.391, 0.391, 0.391, 1.023, 0, 1.414C22.012, 29.902, 21.756, 30, 21.5, 30z" />
		<path style="fill:#9777A8;" d="M33.5, 30c -0.256, 0 -0.512 -0.098 -0.707 -0.293c -0.391 -0.391 -0.391 -1.023, 0 -1.414l6 -6 c 0.391 -0.391, 1.023 -0.391, 1.414, 0s0.391, 1.023, 0, 1.414l -6, 6C34.012, 29.902, 33.756, 30, 33.5, 30z" />
		<path style="fill:#9777A8;" d="M39.5, 24c -0.256, 0 -0.512 -0.098 -0.707 -0.293l -6 -6c -0.391 -0.391 -0.391 -1.023, 0 -1.414 s 1.023 -0.391, 1.414, 0l6, 6c0.391, 0.391, 0.391, 1.023, 0, 1.414C40.012, 23.902, 39.756, 24, 39.5, 24z" />
		<path style="fill:#9777A8;" d="M24.5, 32c -0.11, 0 -0.223 -0.019 -0.333 -0.058c -0.521 -0.184 -0.794 -0.755 -0.61 -1.276l6 -17 c 0.185 -0.521, 0.753 -0.795, 1.276 -0.61c0.521, 0.184, 0.794, 0.755, 0.61, 1.276l -6, 17C25.298, 31.744, 24.912, 32, 24.5, 32z" />
	</g>
	<g class="file-type">
		<path style="fill:#9777A8;" d="M 48.037, 56 H 7.963 C 7.155, 56, 6.5, 55.345, 6.5, 54.537 V 39 h 43 v 15.537 C 49.5, 55.345, 48.845, 56, 48.037, 56 z" />
		<text x="28" y="52.5" text-anchor="middle">XML</text>
	</g>
	<polygon class="file-corner" points="37.5, 0.151 37.5, 12 49.349, 12" stroke-linejoin="round" />
</svg>