<svg 
	id="zip-file-icon" 
	xmlns="http://www.w3.org/2000/svg" 
	xmlns:xlink="http://www.w3.org/1999/xlink" 
	viewBox="0 0 56 56">

	<style>
		.file-body {
			fill: #E9E9E0;
		}
		.file-corner {
			fill: lightgrey;
		}
		.file-type text {
			font-size: 14px;
			font-family: Lucida Grande, sans-serif; 
			fill: white;
		}
	</style>
	
	<path class="file-body" d="M 36.985, 0 H 7.963 C 7.155, 0, 6.5, 0.655, 6.5, 1.926 V 55 c 0, 0.345, 0.655, 1, 1.463, 1 h 40.074 c 0.808, 0, 1.463 -0.655, 1.463 -1V12.978c0 -0.696 -0.093 -0.92 -0.257 -1.085 L 37.607, 0.257 C 37.442, 0.093, 37.218, 0, 36.985, 0 z" />
	<g class="file-icon">	
		<path style="fill:#C8BDB8;" d="M 28.5, 24 v -2 h 2 v -2 h -2 v -2 h 2 v -2 h -2 v -2 h 2 v -2 h -2 v -2 h 2 V 8 h -2 V 6 h -2 v 2 h -2 v 2 h 2 v 2 h -2 v 2 h 2 v 2 h -2 v 2 h 2 v 2 h -2 v 2 h 2 v 2 h -4 v 5 c 0, 2.757, 2.243, 5, 5, 5 s 5 -2.243, 5 -5 v -5 H 28.5 z M 30.5, 29 c 0, 1.654 -1.346, 3 -3, 3s -3 -1.346 -3 -3 v -3 h 6 V 29 z" />
		<path style="fill:#C8BDB8;" d="M26.5, 30h2c0.552, 0, 1 -0.447, 1 -1s -0.448 -1 -1 -1h -2c -0.552, 0 -1, 0.447 -1, 1S25.948, 30, 26.5, 30 z" />
	</g>
	<g class="file-type">
		<path style="fill:#556080;" d="M 48.037, 56 H 7.963 C 7.155, 56, 6.5, 55.345, 6.5, 54.537 V 39 h 43 v 15.537 C 49.5, 55.345, 48.845, 56, 48.037, 56 z" />
		<text x="28" y="52.5" text-anchor="middle">ZIP</text>
	</g>
	<polygon class="file-corner" points="37.5, 0.151 37.5, 12 49.349, 12" stroke-linejoin="round" />
</svg>