<svg 
	id="zipper-file-icon" 
	xmlns="http://www.w3.org/2000/svg" 
	xmlns:xlink="http://www.w3.org/1999/xlink" 
	viewBox="0 0 56 56">

	<style>
		.file-body {
			fill: #E9E9E0;
		}
		.file-corner {
			fill: lightgrey;
		}
	</style>
	
	<path class="file-body" d="M36.985, 0 H 7.963 C 7.155, 0, 6.5, 0.655, 6.5, 1.926 V 55 c 0, 0.345, 0.655, 1, 1.463, 1 h 40.074 c 0.808, 0, 1.463 -0.655, 1.463 -1 V 12.978 c 0 -0.696 -0.093 -0.92 -0.257 -1.085 L 37.607, 0.257 C 37.442, 0.093, 37.218, 0, 36.985, 0 z" />
	<g class="file-icon">	
		<g>
			<rect x="26.5" y="42" style="fill:#C8BDB8;" width="2" height="14" />
			<polygon style="fill:#C8BDB8;" points="30.5, 23 30.5, 21 28.5, 21 28.5, 19 26.5, 19 26.5, 21 24.5, 21 24.5, 23 26.5, 23 26.5, 25 24.5, 25 24.5, 27 26.5, 27 26.5, 29 24.5, 29 24.5, 31 26.5, 31 26.5, 34 28.5, 34 28.5, 31 30.5, 31 30.5, 29 28.5, 29 28.5, 27 30.5, 27     30.5, 25 28.5, 25 28.5, 23" />
		</g>
		<g>
			<rect x="23.5" y="34" style="fill:#CBB292;" width="8" height="8" />
			<path style="fill:#5E5F62;" d="M 32.5, 43 h -10 V 33 h 10 V 43 z M 24.5, 41 h 6 v -6 h -6 V 41 z" />
		</g>
		<rect x="23.5" y="36" style="fill:#5E5F62;" width="8" height="2" />
	</g>
	<polygon class="file-corner" points="37.5, 0.151 37.5, 12 49.349, 12" stroke-linejoin="round" />
</svg>