<svg 
	id="doc-file-icon" 
	xmlns="http://www.w3.org/2000/svg" 
	xmlns:xlink="http://www.w3.org/1999/xlink" 
	viewBox="0 0 56 56">

	<style>
		.file-body {
			fill: white;
			stroke: black;
			stroke-width: 1px;
		}
		.file-icon {
			fill: black;
		}
		.file-corner {
			fill: white;
			stroke: black;
		}
		.file-type path {
			fill: black;
		}
		.file-type text {
			font-size: 14px; 
			font-family: Lucida Grande, sans-serif; 
			fill: white;
		}
	</style>
	
	<path class="file-body" d="M36.985, 0H7.963C7.155, 0, 6.5, 0.655, 6.5, 1.926V55c0, 0.345, 0.655, 1, 1.463, 1h40.074   c0.808, 0, 1.463 -0.655, 1.463 -1V12.978c0 -0.696 -0.093 -0.92 -0.257 -1.085L37.607, 0.257C37.442, 0.093, 37.218, 0, 36.985, 0z" />
	<g class="file-icon">
		<path d="M18.5, 13h -6c -0.552, 0 -1 -0.448 -1 -1s0.448 -1, 1 -1h6c0.552, 0, 1, 0.448, 1, 1S19.052, 13, 18.5, 13z" />
		<path d="M21.5, 18h -9c -0.552, 0 -1 -0.448 -1 -1s0.448 -1, 1 -1h9c0.552, 0, 1, 0.448, 1, 1S22.052, 18, 21.5, 18z" />
		<path d="M25.5, 18c -0.26, 0 -0.52 -0.11 -0.71 -0.29c -0.18 -0.19 -0.29 -0.45 -0.29 -0.71c0 -0.26, 0.11 -0.52, 0.29 -0.71   c0.37 -0.37, 1.05 -0.37, 1.42, 0c0.18, 0.19, 0.29, 0.45, 0.29, 0.71c0, 0.26 -0.11, 0.52 -0.29, 0.71C26.02, 17.89, 25.76, 18, 25.5, 18z" />
		<path d="M37.5, 18h -8c -0.552, 0 -1 -0.448 -1 -1s0.448 -1, 1 -1h8c0.552, 0, 1, 0.448, 1, 1S38.052, 18, 37.5, 18z" />
		<path d="M12.5, 33c -0.26, 0 -0.52 -0.11 -0.71 -0.29c -0.18 -0.19 -0.29 -0.45 -0.29 -0.71c0 -0.26, 0.11 -0.52, 0.29 -0.71   c0.37 -0.37, 1.05 -0.37, 1.42, 0c0.18, 0.19, 0.29, 0.44, 0.29, 0.71c0, 0.26 -0.11, 0.52 -0.29, 0.71C13.02, 32.89, 12.76, 33, 12.5, 33z" />
		<path d="M24.5, 33h -8c -0.552, 0 -1 -0.448 -1 -1s0.448 -1, 1 -1h8c0.552, 0, 1, 0.448, 1, 1S25.052, 33, 24.5, 33z" />
		<path d="M43.5, 18h -2c -0.552, 0 -1 -0.448 -1 -1s0.448 -1, 1 -1h2c0.552, 0, 1, 0.448, 1, 1S44.052, 18, 43.5, 18z" />
		<path d="M34.5, 23h -22c -0.552, 0 -1 -0.448 -1 -1s0.448 -1, 1 -1h22c0.552, 0, 1, 0.448, 1, 1S35.052, 23, 34.5, 23z" />
		<path d="M43.5, 23h -6c -0.552, 0 -1 -0.448 -1 -1s0.448 -1, 1 -1h6c0.552, 0, 1, 0.448, 1, 1S44.052, 23, 43.5, 23z" />
		<path d="M16.5, 28h -4c -0.552, 0 -1 -0.448 -1 -1s0.448 -1, 1 -1h4c0.552, 0, 1, 0.448, 1, 1S17.052, 28, 16.5, 28z" />
		<path d="M30.5, 28h -10c -0.552, 0 -1 -0.448 -1 -1s0.448 -1, 1 -1h10c0.552, 0, 1, 0.448, 1, 1S31.052, 28, 30.5, 28z" />
		<path d="M43.5, 28h -9c -0.552, 0 -1 -0.448 -1 -1s0.448 -1, 1 -1h9c0.552, 0, 1, 0.448, 1, 1S44.052, 28, 43.5, 28z" />
	</g>
	<polygon class="file-corner" points="37.5, 0.151 37.5, 12 49.349, 12  " />
	<g class="file-type">
		<path d="M 48.037, 56 H 7.963 C 7.155, 56, 6.5, 55.345, 6.5, 54.537 V 39 h 43 v 15.537 C 49.5, 55.345, 48.845, 56, 48.037, 56 z" />
		<text x="13" y="52.5">DOC</text>
	</g>
</svg>