<svg 
	id="java-file-icon" 
	xmlns="http://www.w3.org/2000/svg" 
	xmlns:xlink="http://www.w3.org/1999/xlink" 
	viewBox="0 0 56 56">

	<style>
		.file-body {
			fill: white;
			stroke: black;
			stroke-width: 1px;
		}
		.file-icon {
			fill: black;
		}
		.file-corner {
			fill: white;
			stroke: black;
		}
		.file-type path {
			fill: black;
		}
		.file-type text {
			font-size: 14px; 
			font-family: Lucida Grande, sans-serif; 
			fill: white;
		}
	</style>
	
	<path class="file-body" d="M 36.985, 0 H 7.963 C 7.155, 0, 6.5, 0.655, 6.5, 1.926 V 55 c 0, 0.345, 0.655, 1, 1.463, 1 h 40.074 c 0.808, 0, 1.463 -0.655, 1.463 -1 V 12.978 c 0 -0.696 -0.093 -0.92 -0.257 -1.085 L 37.607, 0.257 C 37.442, 0.093, 37.218, 0, 36.985, 0 z" />
	<g class="file-icon">
		<path d="M 19.5, 19 v -4c0 -0.551, 0.448 -1, 1 -1 c 0.553, 0, 1 -0.448, 1 -1 s -0.447 -1 -1 -1 c -1.654, 0 -3, 1.346 -3, 3 v 4 c 0, 1.103 -0.897, 2 -2, 2 c -0.553, 0 -1, 0.448 -1, 1 s 0.447, 1, 1, 1 c 1.103, 0, 2, 0.897, 2, 2 v 4 c 0, 1.654, 1.346, 3, 3, 3 c 0.553, 0, 1 -0.448, 1 -1 s -0.447 -1 -1 -1 c -0.552, 0 -1 -0.449 -1 -1 v -4 c 0 -1.2 -0.542 -2.266 -1.382 -3 C 18.958, 21.266, 19.5, 20.2, 19.5, 19 z" />
		<circle cx="27.5" cy="18.5" r="1.5" />
		<path d="M 39.5, 21 c -1.103, 0 -2 -0.897 -2 -2 v -4 c 0 -1.654 -1.346 -3 -3 -3 c -0.553, 0 -1, 0.448 -1, 1 s 0.447, 1, 1, 1 c 0.552, 0, 1, 0.449, 1, 1 v 4 c 0, 1.2, 0.542, 2.266, 1.382, 3 c -0.84, 0.734 -1.382, 1.8 -1.382, 3 v 4 c 0, 0.551 -0.448, 1 -1, 1 c -0.553, 0 -1, 0.448 -1, 1 s 0.447, 1, 1, 1 c 1.654, 0, 3 -1.346, 3 -3 v -4c0 -1.103, 0.897 -2, 2 -2 c 0.553, 0, 1 -0.448, 1 -1 S 40.053, 21, 39.5, 21 z" />
		<path d="M 27.5, 24 c -0.553, 0 -1, 0.448 -1, 1 v 3 c 0, 0.552, 0.447, 1, 1, 1 s 1 -0.448, 1 -1 v -3 C 28.5, 24.448, 28.053, 24, 27.5, 24 z" />
	</g>
	<polygon class="file-corner" points="37.5, 0.151 37.5, 12 49.349, 12" stroke-linejoin="round" />
	<g class="file-type">
		<path d="M 48.037, 56 H 7.963 C 7.155, 56, 6.5, 55.345, 6.5, 54.537 V 39 h 43 v 15.537 C 49.5, 55.345, 48.845, 56, 48.037, 56 z" />
		<text x="12" y="52.5">JAVA</text>
	</g>
</svg>