<svg 
	id="search-file-icon" 
	xmlns="http://www.w3.org/2000/svg" 
	xmlns:xlink="http://www.w3.org/1999/xlink" 
	viewBox="0 0 56 56">

	<style>
		.file-body {
			fill: white;
			stroke: black;
			stroke-width: 1px;
		}
		.file-icon circle {
			fill: white;
		}
		.file-icon .path {
			fill: black;
		}
		.search-icon path {
			fill: black
		}
		.file-corner {
			fill: white;
			stroke: black;
		}
		.file-type path {
			fill: black;
		}
		.file-type text {
			font-size: 14px; 
			font-family: Lucida Grande, sans-serif; 
			fill: white;
		}
	</style>
	
	<path class="file-body" d="M36.985, 0H7.963C7.155, 0, 6.5, 0.655, 6.5, 1.926V55c0, 0.345, 0.655, 1, 1.463, 1 h 40.074 c 0.808, 0, 1.463 -0.655, 1.463 -1V12.978c0 -0.696 -0.093 -0.92 -0.257 -1.085L37.607, 0.257C37.442, 0.093, 37.218, 0, 36.985, 0 z" />	
	<g class="file-icon">
		<circle cx="25.5" cy="25" r="10" />
		<path d="M25.5, 36c -6.065, 0 -11 -4.935 -11 -11s4.935 -11, 11 -11s11, 4.935, 11, 11S31.565, 36, 25.5, 36z M25.5, 16    c -4.963, 0 -9, 4.037 -9, 9s4.037, 9, 9, 9s9 -4.037, 9 -9S30.463, 16, 25.5, 16z" />
	</g>
	<g class="search-icon">
		<path d="M42.5, 45c -0.256, 0 -0.512 -0.098 -0.707 -0.293l -11 -11c -0.391 -0.391 -0.391 -1.023, 0 -1.414   s1.023 -0.391, 1.414, 0l11, 11c0.391, 0.391, 0.391, 1.023, 0, 1.414C43.012, 44.902, 42.756, 45, 42.5, 45z" />
		<path d="M25.5, 22h -6c -0.553, 0 -1 -0.447 -1 -1s0.447 -1, 1 -1h6c0.553, 0, 1, 0.447, 1, 1S26.053, 22, 25.5, 22z" />
		<path d="M30.5, 22h -2c -0.553, 0 -1 -0.447 -1 -1s0.447 -1, 1 -1h2c0.553, 0, 1, 0.447, 1, 1S31.053, 22, 30.5, 22z" />
		<path d="M24.5, 30h -2c -0.553, 0 -1 -0.447 -1 -1s0.447 -1, 1 -1h2c0.553, 0, 1, 0.447, 1, 1S25.053, 30, 24.5, 30z" />
		<path d="M30.5, 30h -2c -0.553, 0 -1 -0.447 -1 -1s0.447 -1, 1 -1h2c0.553, 0, 1, 0.447, 1, 1S31.053, 30, 30.5, 30z" />
		<path d="M23.5, 26h -4c -0.553, 0 -1 -0.447 -1 -1s0.447 -1, 1 -1h4c0.553, 0, 1, 0.447, 1, 1S24.053, 26, 23.5, 26z" />
		<path d="M32.5, 26h -5c -0.553, 0 -1 -0.447 -1 -1s0.447 -1, 1 -1h5c0.553, 0, 1, 0.447, 1, 1S33.053, 26, 32.5, 26z" />
	</g>
	<polygon class="file-corner" points="37.5, 0.151 37.5, 12 49.349, 12  " />
</svg>