<svg 
	id="sql-file-icon" 
	xmlns="http://www.w3.org/2000/svg" 
	xmlns:xlink="http://www.w3.org/1999/xlink" 
	viewBox="0 0 56 56">

	<style>
		.file-body {
			fill: white;
			stroke: black;
			stroke-width: 1px;
		}
		.file-icon {
			fill: black;
		}
		.file-corner {
			fill: white;
			stroke: black;
		}
		.file-type path {
			fill: black;
		}
		.file-type text {
			font-size: 14px; 
			font-family: Lucida Grande, sans-serif; 
			fill: white;
		}
	</style>
	
	<path class="file-body" d="M 36.985, 0 H 7.963 C 7.155, 0, 6.5, 0.655, 6.5, 1.926V55c0, 0.345, 0.655, 1, 1.463, 1 h 40.074 c 0.808, 0, 1.463 -0.655, 1.463 -1 V 12.978 c 0 -0.696 -0.093 -0.92 -0.257 -1.085L37.607, 0.257C37.442, 0.093, 37.218, 0, 36.985, 0 z" />
	<g class="file-icon" transform="translate(16, 10)">
		<path d="M22 18.055v2.458c0 1.925-4.655 3.487-10 3.487-5.344 0-10-1.562-10-3.487v-2.458c2.418 1.738 7.005 2.256 10 2.256 3.006 0 7.588-.523 10-2.256zm-10-3.409c-3.006 0-7.588-.523-10-2.256v2.434c0 1.926 4.656 3.487 10 3.487 5.345 0 10-1.562 10-3.487v-2.434c-2.418 1.738-7.005 2.256-10 2.256zm0-14.646c-5.344 0-10 1.562-10 3.488s4.656 3.487 10 3.487c5.345 0 10-1.562 10-3.487 0-1.926-4.655-3.488-10-3.488zm0 8.975c-3.006 0-7.588-.523-10-2.256v2.44c0 1.926 4.656 3.487 10 3.487 5.345 0 10-1.562 10-3.487v-2.44c-2.418 1.738-7.005 2.256-10 2.256z" />
	</g>
	<polygon class="file-corner" points="37.5, 0.151 37.5, 12 49.349, 12" stroke-linejoin="round" />
	<g class="file-type">
		<path d="M 48.037, 56 H 7.963 C 7.155, 56, 6.5, 55.345, 6.5, 54.537 V 39 h 43 v 15.537 C 49.5, 55.345, 48.845, 56, 48.037, 56 z" />
		<text x="15" y="52.5">SQL</text>
	</g>
</svg>