<svg 
	id="vcf-file-icon" 
	xmlns="http://www.w3.org/2000/svg" 
	xmlns:xlink="http://www.w3.org/1999/xlink" 
	viewBox="0 0 56 56">

	<style>
		.file-body {
			fill: white;
			stroke: black;
			stroke-width: 1px;
		}
		.file-icon {
			fill: black;
		}
		.file-corner {
			fill: white;
			stroke: black;
		}
		.file-type path {
			fill: black;
		}
		.file-type text {
			font-size: 14px; 
			font-family: Lucida Grande, sans-serif; 
			fill: white;
		}
	</style>
	
	<path class="file-body" d="M36.985, 0H7.963C7.155, 0, 6.5, 0.655, 6.5, 1.926V55c0, 0.345, 0.655, 1, 1.463, 1 h 40.074 c 0.808, 0, 1.463 -0.655, 1.463 -1V12.978c0 -0.696 -0.093 -0.92 -0.257 -1.085L37.607, 0.257C37.442, 0.093, 37.218, 0, 36.985, 0 z" />
	<g class="file-icon">
		<path transform="translate(16,10)" d="M0 3v18h24v-18h-24zm13 14h-10v-.417c-.004-1.112.044-1.747 1.324-2.043 1.403-.324 2.787-.613 2.122-1.841-1.973-3.637-.563-5.699 1.554-5.699 2.077 0 3.521 1.985 1.556 5.699-.647 1.22.688 1.51 2.121 1.841 1.284.297 1.328.936 1.323 2.057v.403zm8 0h-6v-2h6v2zm0-4h-6v-2h6v2zm0-4h-6v-2h6v2z" />
	</g>
	<polygon class="file-corner" points="37.5, 0.151 37.5, 12 49.349, 12" stroke-linejoin="round" />
	<g class="file-type">
		<path d="M48.037, 56H7.963C7.155, 56, 6.5, 55.345, 6.5, 54.537V39h43v15.537C49.5, 55.345, 48.845, 56, 48.037, 56z" />
		<text x="16" y="52.5">VCF</text>
	</g>
</svg>