<svg 
	id="wav-file-icon" 
	xmlns:svg="http://www.w3.org/2000/svg" 
	xmlns="http://www.w3.org/2000/svg" 
	viewBox="0 0 56 56">

	<style>
		.file-body {
			fill: white;
			stroke: black;
			stroke-width: 1px;
		}
		.file-icon {
			fill: black;
		}
		.file-corner {
			fill: white;
			stroke: black;
		}
		.file-type path {
			fill: black;
		}
		.file-type text {
			font-size: 14px; 
			font-family: Lucida Grande, sans-serif; 
			fill: white;
		}
	</style>
	
	<path class="file-body" d="M 36.985, 0 H 7.963 C 7.155, 0, 6.5, 0.655, 6.5, 1.926 V 55c0, 0.345, 0.655, 1, 1.463, 1 h 40.074 c 0.808, 0, 1.463 -0.655, 1.463 -1V12.978c0 -0.696 -0.093 -0.92 -0.257 -1.085 L 37.607, 0.257 C 37.442, 0.093, 37.218, 0, 36.985, 0 z" />
	<g class="file-icon">
		<path d="M35.67, 14.986c -0.567 -0.796 -1.3 -1.543 -2.308 -2.351c -3.914 -3.131 -4.757 -6.277 -4.862 -6.738V 5 c 0 -0.553 -0.447 -1 -1 -1s -1, 0.447 -1, 1 v1 v8.359v 9.053h -3.706c -3.882, 0 -6.294, 1.961 -6.294, 5.117 c 0, 3.466, 2.24, 5.706, 5.706, 5.706 c 3.471, 0, 6.294 -2.823, 6.294 -6.294V 16.468 l 0.298, 0.243c0.34, 0.336, 0.861, 0.72, 1.521, 1.205 c 2.318, 1.709, 6.2, 4.567, 5.224, 7.793 C 35.514, 25.807, 35.5, 25.904, 35.5, 26 c 0, 0.43, 0.278, 0.826, 0.71, 0.957 C 36.307, 26.986, 36.404, 27, 36.5, 27c0.43, 0, 0.826 -0.278, 0.957 -0.71 C 39.084, 20.915, 37.035, 16.9, 35.67, 14.986 z M26.5, 27.941c0, 2.368 -1.926, 4.294 -4.294, 4.294 c -2.355, 0 -3.706 -1.351 -3.706 -3.706 c 0 -2.576, 2.335 -3.117, 4.294 -3.117H 26.5V 27.941 z M 31.505, 16.308 c -0.571 -0.422 -1.065 -0.785 -1.371 -1.081l -1.634 -1.34v -3.473 c 0.827, 1.174, 1.987, 2.483, 3.612, 3.783 c 0.858, 0.688, 1.472, 1.308, 1.929, 1.95 c 0.716, 1.003, 1.431, 2.339, 1.788, 3.978 C 34.502, 18.515, 32.745, 17.221, 31.505, 16.308 z" />
	</g>
	<polygon class="file-corner" points="37.5, 0.151 37.5, 12 49.349, 12" stroke-linejoin="round" />
	<g class="file-type">
		<path d="M 48.037, 56H 7.963 C 7.155, 56, 6.5, 55.345, 6.5, 54.537V 39h 43v 15.537 C 49.5, 55.345, 48.845, 56, 48.037, 56 z" />
		<text x="13" y="52.5">WAV</text>
	</g>
</svg>