<svg 
	id="apple-empty-icon" 
	xmlns:svg="http://www.w3.org/2000/svg" 
	xmlns="http://www.w3.org/2000/svg" 
	viewBox="0 16 48 24">
	
	<style>
		.folder-top {
			fill: white;
			stroke: black;
		}
		.folder-body {
			fill: white;
			stroke: black;
		}
		.folder-contents {
			fill: white;
			stroke: black;	
		}
		.folder-icon {
			fill: black;
		}
	</style>

	<g class="folder-top" transform="translate(0 1.5)">
		<path d="M 43.5,11.5 H 21 L 16.5,7 h -12 c -3,0 -3,0 -3,3 v 8 h 45 v -3.5 c 0,0 0,-3 -3,-3 z" />
	</g>

	<g class="folder-body">
		<path id="folder-cover" d="M 3,16.75 C 1.5,16.75 1.5,18 1.5,18 v 25.75 c 0,2.25 0,2 3,2 h 39 c 3,0 3,0.25 3,-2 V 18 c 0,0 0,-1.25 -1.5,-1.25 z" />
	</g>
	
	<g class="folder-icon" transform="translate(15, 39), scale(.0125, -0.0125)">
		<path d="M1393 321q-39 -125 -123 -250q-129 -196 -257 -196q-49 0 -140 32q-86 32 -151 32q-61 0 -142 -33q-81 -34 -132 -34q-152 0 -301 259q-147 261 -147 503q0 228 113 374q113 144 284 144q72 0 177 -30q104 -30 138 -30q45 0 143 34q102 34 173 34q119 0 213 -65 q52 -36 104 -100q-79 -67 -114 -118q-65 -94 -65 -207q0 -124 69 -223t158 -126zM1017 1494q0 -61 -29 -136q-30 -75 -93 -138q-54 -54 -108 -72q-37 -11 -104 -17q3 149 78 257q74 107 250 148q1 -3 2.5 -11t2.5 -11q0 -4 0.5 -10t0.5 -10z" />
	</g>
</svg>