<svg 
	id="audio-empty-icon" 
	xmlns:svg="http://www.w3.org/2000/svg" 
	xmlns="http://www.w3.org/2000/svg" 
	viewBox="0 16 48 24">
	
	<style>
		.folder-top {
			fill: white;
			stroke: black;
		}
		.folder-body {
			fill: white;
			stroke: black;
		}
		.folder-contents {
			fill: white;
			stroke: black;	
		}
		.folder-icon {
			fill: black;
		}
	</style>

	<g class="folder-top" transform="translate(0 1.5)">
		<path d="M 43.5,11.5 H 21 L 16.5,7 h -12 c -3,0 -3,0 -3,3 v 8 h 45 v -3.5 c 0,0 0,-3 -3,-3 z" />
	</g>

	<g class="folder-body">
		<path id="folder-cover" d="M 3,16.75 C 1.5,16.75 1.5,18 1.5,18 v 25.75 c 0,2.25 0,2 3,2 h 39 c 3,0 3,0.25 3,-2 V 18 c 0,0 0,-1.25 -1.5,-1.25 z" />
	</g>
	
	<g class="folder-icon" transform="translate(12 19)">
		<path d="M6 7l8-5v20l-8-5v-10zm-6 10h4v-10h-4v10zm20.264-13.264l-1.497 1.497c1.847 1.783 2.983 4.157 2.983 6.767 0 2.61-1.135 4.984-2.983 6.766l1.498 1.498c2.305-2.153 3.735-5.055 3.735-8.264s-1.43-6.11-3.736-8.264zm-.489 8.264c0-2.084-.915-3.967-2.384-5.391l-1.503 1.503c1.011 1.049 1.637 2.401 1.637 3.888 0 1.488-.623 2.841-1.634 3.891l1.503 1.503c1.468-1.424 2.381-3.309 2.381-5.394z" />
	</g>
</svg>