<svg 
	id="calculations-full-icon" 
	xmlns:svg="http://www.w3.org/2000/svg" 
	xmlns="http://www.w3.org/2000/svg" 
	viewBox="0 16 48 24">
	
	<style>
		.folder-top {
			fill: white;
			stroke: black;
		}
		.folder-body {
			fill: white;
			stroke: black;
		}
		.folder-contents {
			fill: white;
			stroke: black;	
		}
		.folder-icon {
			fill: black;
		}
	</style>

	<g class="folder-top" transform="translate(0 1.5)">
		<path d="M 43.5,11.5 H 21 L 16.5,7 h -12 c -3,0 -3,0 -3,3 v 8 h 45 v -3.5 c 0,0 0,-3 -3,-3 z" />
	</g>

	<g class="folder-body">
		<path id="folder-cover" d="M 3,16.75 C 1.5,16.75 1.5,18 1.5,18 v 25.75 c 0,2.25 0,2 3,2 h 39 c 3,0 3,0.25 3,-2 V 18 c 0,0 0,-1.25 -1.5,-1.25 z" />
	</g>
	
	<rect class="folder-contents" x="3" y="14.5" width="42" height="2.25" />

	<g class="folder-icon" transform="translate(12 19)">
		<path d="M13 24h6c2.762 0 5-2.239 5-5v-6h-11v11zm3-7h5v1h-5v-1zm0 2h5v1h-5v-1zm-16 0c0 2.761 2.239 5 5 5h6v-11h-11v6zm3-1h2v-2h1v2h2v1h-2v2h-1v-2h-2v-1zm16-18h-6v11h11v-6c0-2.761-2.238-5-5-5zm-.5 3c.276 0 .5.224.5.5s-.224.5-.5.5-.5-.224-.5-.5.224-.5.5-.5zm0 5c-.276 0-.5-.224-.5-.5s.224-.5.5-.5.5.224.5.5-.224.5-.5.5zm2.5-2h-5v-1h5v1zm-21-1v6h11v-11h-6c-2.761 0-5 2.239-5 5zm6.914-1.622l.708.708-1.415 1.414 1.414 1.414-.707.707-1.414-1.414-1.414 1.414-.708-.707 1.414-1.414-1.414-1.414.707-.707 1.415 1.414 1.414-1.415z" />
	</g>
</svg>