<svg 
	id="clipboard-full-icon" 
	xmlns:svg="http://www.w3.org/2000/svg" 
	xmlns="http://www.w3.org/2000/svg" 
	viewBox="96 0 320 512">
	
	<style>
		.clipboard-handle {
			fill: black;
		}
		.clipboard-body {
			fill: white;
			stroke: black;
			stroke-width: 10;
		}
		.clipboard-corner {
			fill: white;
			stroke: black;
			stroke-width: 10;
		}
		.clipboard-paper {
			fill: white;
			stroke: black;
			stroke-width: 10;
		}
	</style>

	<g transform="matrix(1,0,0,1,0,0)">
		<path class="clipboard-handle"
			 d="m 295.857,35.036184 0,-16.4882 c 0,-9.1095498 -7.775,-16.4881998 -17.356,-16.4881998 l -52.068,0 c -9.58,0 -17.356,7.37865 -17.356,16.4881998 l 0,16.4882 -34.712,0 c -4.79,0 -8.678,3.6936 -8.678,8.2441 l 0,57.823646 c 0,4.617 3.94,8.35905 8.799,8.35905 l 155.96,0 c 4.86,0 8.799,-3.743 8.799,-8.35905 l 0,-57.823646 c 0,-4.5505 -3.888,-8.2441 -8.678,-8.2441 l -34.71,0 z" />
		<path class="clipboard-body"
			 d="m 339.247,59.768484 0,41.335446 c 0,4.617 -3.94,8.35905 -8.799,8.35905 l -155.96,0 c -4.86,0 -8.799,-3.743 -8.799,-8.35905 l 0,-41.335446 -86.78,0 0,420.563096 347.119,0 0,-420.563096 -86.781,0 z" />
		<polygon class="clipboard-corner" 
			 transform="matrix(1,0,0,0.95,-60,2.0597842)"
			 points="373.213,390.63 442.637,390.63 373.213,460.054 " />
		<path class="clipboard-paper" 
			 d="m 339.247,92.859834 0,8.244096 c 0,4.617 -3.94,8.35905 -8.799,8.35905 l -155.96,0 c -4.86,0 -8.799,-3.743 -8.799,-8.35905 l 0,-8.244096 -43.39,0 0,346.251246 190.915,0 0,-65.9528 69.424,0 0,-280.298446 -43.391,0 z" />
	</g>
</svg>
