<svg 
	id="data-empty-icon" 
	xmlns:svg="http://www.w3.org/2000/svg" 
	xmlns="http://www.w3.org/2000/svg" 
	viewBox="0 16 48 24">

	<style>
		.folder-top {
			fill: white;
			stroke: black;
		}
		.folder-body {
			fill: white;
			stroke: black;
		}
		.folder-contents {
			fill: white;
			stroke: black;	
		}
		.folder-icon {
			fill: black;
		}
	</style>

	<g class="folder-top" transform="translate(0 1.5)">
		<path d="M 43.5,11.5 H 21 L 16.5,7 h -12 c -3,0 -3,0 -3,3 v 8 h 45 v -3.5 c 0,0 0,-3 -3,-3 z" />
	</g>

	<g class="folder-body">
		<path id="folder-cover" d="M 3,16.75 C 1.5,16.75 1.5,18 1.5,18 v 25.75 c 0,2.25 0,2 3,2 h 39 c 3,0 3,0.25 3,-2 V 18 c 0,0 0,-1.25 -1.5,-1.25 z" />
	</g>
	
	<g class="folder-icon" transform="translate(12 19)">
		<path d="M5 15h-4v8h4v-8zm0-4h-4v2h4v-2zm6-6h-4v18h4v-18zm0-4h-4v2h4v-2zm6 10h-4v12h4v-12zm0-4h-4v2h4v-2zm6 12h-4v4h4v-4zm0-4h-4v2h4v-2z" />
	</g>
</svg>