<svg 
	id="documents-empty-icon" 
	xmlns:svg="http://www.w3.org/2000/svg" 
	xmlns="http://www.w3.org/2000/svg" 
	viewBox="0 16 48 24">
	
	<style>
		.folder-top {
			fill: white;
			stroke: black;
		}
		.folder-body {
			fill: white;
			stroke: black;
		}
		.folder-contents {
			fill: white;
			stroke: black;	
		}
		.folder-icon {
			fill: black;
		}
	</style>

	<g class="folder-top" transform="translate(0 1.5)">
		<path d="M 43.5,11.5 H 21 L 16.5,7 h -12 c -3,0 -3,0 -3,3 v 8 h 45 v -3.5 c 0,0 0,-3 -3,-3 z" />
	</g>

	<g class="folder-body">
		<path id="folder-cover" d="M 3,16.75 C 1.5,16.75 1.5,18 1.5,18 v 25.75 c 0,2.25 0,2 3,2 h 39 c 3,0 3,0.25 3,-2 V 18 c 0,0 0,-1.25 -1.5,-1.25 z" />
	</g>
	
	<g class="folder-icon" transform="translate(12 19)">
		<path d="M13.744 8s1.522-8-3.335-8h-8.409v24h20v-13c0-3.419-5.247-3.745-8.256-3zm.256 11h-8v-1h8v1zm4-3h-12v-1h12v1zm0-3h-12v-1h12v1zm-3.432-12.925c2.202 1.174 5.938 4.883 7.432 6.881-1.286-.9-4.044-1.657-6.091-1.179.222-1.468-.185-4.534-1.341-5.702z" />
	</g>
</svg>