<svg 
	id="google-empty-icon" 
	xmlns:svg="http://www.w3.org/2000/svg" 
	xmlns="http://www.w3.org/2000/svg" 
	viewBox="0 16 48 24">
	
	<style>
		.folder-top {
			fill: white;
			stroke: black;
		}
		.folder-body {
			fill: white;
			stroke: black;
		}
		.folder-contents {
			fill: white;
			stroke: black;	
		}
		.folder-icon {
			fill: black;
		}
	</style>

	<g class="folder-top" transform="translate(0 1.5)">
		<path d="M 43.5,11.5 H 21 L 16.5,7 h -12 c -3,0 -3,0 -3,3 v 8 h 45 v -3.5 c 0,0 0,-3 -3,-3 z" />
	</g>

	<g class="folder-body">
		<path id="folder-cover" d="M 3,16.75 C 1.5,16.75 1.5,18 1.5,18 v 25.75 c 0,2.25 0,2 3,2 h 39 c 3,0 3,0.25 3,-2 V 18 c 0,0 0,-1.25 -1.5,-1.25 z" />
	</g>
	
	<g class="folder-icon" transform="translate(12.5, 41), scale(.015, -0.015)">
		<path d="M768 750h725q12 -67 12 -128q0 -217 -91 -387.5t-259.5 -266.5t-386.5 -96q-157 0 -299 60.5t-245 163.5t-163.5 245t-60.5 299t60.5 299t163.5 245t245 163.5t299 60.5q300 0 515 -201l-209 -201q-123 119 -306 119q-129 0 -238.5 -65t-173.5 -176.5t-64 -243.5 t64 -243.5t173.5 -176.5t238.5 -65q87 0 160 24t120 60t82 82t51.5 87t22.5 78h-436v264z" />
	</g>
</svg>