<svg 
	id="people-full-icon" 
	xmlns:svg="http://www.w3.org/2000/svg" 
	xmlns="http://www.w3.org/2000/svg" 
	viewBox="0 16 48 24">
	
	<style>
		.folder-top {
			fill: white;
			stroke: black;
		}
		.folder-body {
			fill: white;
			stroke: black;
		}
		.folder-contents {
			fill: white;
			stroke: black;	
		}
		.folder-icon {
			fill: black;
		}
	</style>

	<g class="folder-top" transform="translate(0 1.5)">
		<path d="M 43.5,11.5 H 21 L 16.5,7 h -12 c -3,0 -3,0 -3,3 v 8 h 45 v -3.5 c 0,0 0,-3 -3,-3 z" />
	</g>

	<g class="folder-body">
		<path id="folder-cover" d="M 3,16.75 C 1.5,16.75 1.5,18 1.5,18 v 25.75 c 0,2.25 0,2 3,2 h 39 c 3,0 3,0.25 3,-2 V 18 c 0,0 0,-1.25 -1.5,-1.25 z" />
	</g>
	
	<rect class="folder-contents" x="3" y="14.5" width="42" height="2.25" />

	<g class="folder-icon" transform="translate(12 19)">
		<path d="M10.118 16.064c2.293-.529 4.428-.993 3.394-2.945-3.146-5.942-.834-9.119 2.488-9.119 3.388 0 5.644 3.299 2.488 9.119-1.065 1.964 1.149 2.427 3.394 2.945 1.986.459 2.118 1.43 2.118 3.111l-.003.825h-15.994c0-2.196-.176-3.407 2.115-3.936zm-10.116 3.936h6.001c-.028-6.542 2.995-3.697 2.995-8.901 0-2.009-1.311-3.099-2.998-3.099-2.492 0-4.226 2.383-1.866 6.839.775 1.464-.825 1.812-2.545 2.209-1.49.344-1.589 1.072-1.589 2.333l.002.619z" />
	</g>
</svg>