<svg 
	id="presentations-full-icon" 
	xmlns:svg="http://www.w3.org/2000/svg" 
	xmlns="http://www.w3.org/2000/svg" 
	viewBox="0 16 48 24">
	
	<style>
		.folder-top {
			fill: white;
			stroke: black;
		}
		.folder-body {
			fill: white;
			stroke: black;
		}
		.folder-contents {
			fill: white;
			stroke: black;	
		}
		.folder-icon {
			fill: black;
		}
	</style>

	<g class="folder-top" transform="translate(0 1.5)">
		<path d="M 43.5,11.5 H 21 L 16.5,7 h -12 c -3,0 -3,0 -3,3 v 8 h 45 v -3.5 c 0,0 0,-3 -3,-3 z" />
	</g>

	<g class="folder-body">
		<path id="folder-cover" d="M 3,16.75 C 1.5,16.75 1.5,18 1.5,18 v 25.75 c 0,2.25 0,2 3,2 h 39 c 3,0 3,0.25 3,-2 V 18 c 0,0 0,-1.25 -1.5,-1.25 z" />
	</g>
	
	<rect class="folder-contents" x="3" y="14.5" width="42" height="2.25" />

	<g class="folder-icon" transform="translate(12 19)">
		<path d="M16.488 20l3.414 4h-2.627l-3.42-4h2.633zm1.512-14h-4v1h4v-1zm-7 18h2v-4h-2v4zm-6.918 0h2.628l3.42-4h-2.633l-3.415 4zm13.918-16h-4v1h4v-1zm0 2h-4v1h4v-1zm-8.5 3c1.762 0 3.205-1.306 3.45-3h-3.95v-3.95c-1.694.245-3 1.688-3 3.45 0 1.933 1.567 3.5 3.5 3.5zm.5-6.95v2.95h2.95c-.221-1.529-1.421-2.729-2.95-2.95zm8 5.95h-4v1h4v-1zm5-9h-1v15h-20v-15h-1v-3h22v3zm-3 0h-16v13h16v-13z" />
	</g>
</svg>