<svg 
	id="proposals-full-icon" 
	xmlns:svg="http://www.w3.org/2000/svg" 
	xmlns="http://www.w3.org/2000/svg" 
	viewBox="0 16 48 24">
	
	<style>
		.folder-top {
			fill: white;
			stroke: black;
		}
		.folder-body {
			fill: white;
			stroke: black;
		}
		.folder-contents {
			fill: white;
			stroke: black;	
		}
		.folder-icon {
			fill: black;
		}
	</style>

	<g class="folder-top" transform="translate(0 1.5)">
		<path d="M 43.5,11.5 H 21 L 16.5,7 h -12 c -3,0 -3,0 -3,3 v 8 h 45 v -3.5 c 0,0 0,-3 -3,-3 z" />
	</g>

	<g class="folder-body">
		<path id="folder-cover" d="M 3,16.75 C 1.5,16.75 1.5,18 1.5,18 v 25.75 c 0,2.25 0,2 3,2 h 39 c 3,0 3,0.25 3,-2 V 18 c 0,0 0,-1.25 -1.5,-1.25 z" />
	</g>
	
	<rect class="folder-contents" x="3" y="14.5" width="42" height="2.25" />

	<g class="folder-icon" transform="translate(12 19)">
		<path d="M14 19h-4c-.276 0-.5.224-.5.5s.224.5.5.5h4c.276 0 .5-.224.5-.5s-.224-.5-.5-.5zm0 2h-4c-.276 0-.5.224-.5.5s.224.5.5.5h4c.276 0 .5-.224.5-.5s-.224-.5-.5-.5zm.25 2h-4.5l1.188.782c.154.138.38.218.615.218h.895c.234 0 .461-.08.615-.218l1.187-.782zm3.75-13.799c0 3.569-3.214 5.983-3.214 8.799h-5.572c0-2.816-3.214-5.23-3.214-8.799 0-3.723 2.998-5.772 5.997-5.772 3.001 0 6.003 2.051 6.003 5.772zm4-.691v1.372h-2.538c.02-.223.038-.448.038-.681 0-.237-.017-.464-.035-.69h2.535zm-10.648-6.553v-1.957h1.371v1.964c-.242-.022-.484-.035-.726-.035-.215 0-.43.01-.645.028zm-3.743 1.294l-1.04-1.94 1.208-.648 1.037 1.933c-.418.181-.822.401-1.205.655zm10.586 1.735l1.942-1.394.799 1.115-2.054 1.473c-.191-.43-.423-.827-.687-1.194zm-3.01-2.389l1.038-1.934 1.208.648-1.041 1.941c-.382-.254-.786-.473-1.205-.655zm-10.068 3.583l-2.054-1.472.799-1.115 1.942 1.393c-.264.366-.495.763-.687 1.194zm13.707 6.223l2.354.954-.514 1.271-2.425-.982c.21-.397.408-.812.585-1.243zm-13.108 1.155l-2.356 1.06-.562-1.251 2.34-1.052c.173.433.371.845.578 1.243zm-1.178-3.676h-2.538v-1.372h2.535c-.018.226-.035.454-.035.691 0 .233.018.458.038.681z" />
	</g>
</svg>