<svg 
	id="snapchat-empty-icon" 
	xmlns:svg="http://www.w3.org/2000/svg" 
	xmlns="http://www.w3.org/2000/svg" 
	viewBox="0 16 48 24">
	
	<style>
		.folder-top {
			fill: white;
			stroke: black;
		}
		.folder-body {
			fill: white;
			stroke: black;
		}
		.folder-contents {
			fill: white;
			stroke: black;	
		}
		.folder-icon {
			fill: black;
		}
	</style>

	<g class="folder-top" transform="translate(0 1.5)">
		<path d="M 43.5,11.5 H 21 L 16.5,7 h -12 c -3,0 -3,0 -3,3 v 8 h 45 v -3.5 c 0,0 0,-3 -3,-3 z" />
	</g>

	<g class="folder-body">
		<path id="folder-cover" d="M 3,16.75 C 1.5,16.75 1.5,18 1.5,18 v 25.75 c 0,2.25 0,2 3,2 h 39 c 3,0 3,0.25 3,-2 V 18 c 0,0 0,-1.25 -1.5,-1.25 z" />
	</g>
	
	<g class="folder-icon" transform="translate(14.5, 39), scale(.0125, -0.0125)">
		<path d="M1279 388q0 22 -22 27q-67 15 -118 59t-80 108q-7 19 -7 25q0 15 19.5 26t43 17t43 20.5t19.5 36.5q0 19 -18.5 31.5t-38.5 12.5q-12 0 -32 -8t-31 -8q-4 0 -12 2q5 95 5 114q0 79 -17 114q-36 78 -103 121.5t-152 43.5q-199 0 -275 -165q-17 -35 -17 -114q0 -19 5 -114 q-4 -2 -14 -2q-12 0 -32 7.5t-30 7.5q-21 0 -38.5 -12t-17.5 -32q0 -21 19.5 -35.5t43 -20.5t43 -17t19.5 -26q0 -6 -7 -25q-64 -138 -198 -167q-22 -5 -22 -27q0 -46 137 -68q2 -5 6 -26t11.5 -30.5t23.5 -9.5q12 0 37.5 4.5t39.5 4.5q35 0 67 -15t54 -32.5t57.5 -32.5 t76.5 -15q43 0 79 15t57.5 32.5t53.5 32.5t67 15q14 0 39.5 -4t38.5 -4q16 0 23 10t11 30t6 25q137 22 137 68zM1536 640q0 -209 -103 -385.5t-279.5 -279.5t-385.5 -103t-385.5 103t-279.5 279.5t-103 385.5t103 385.5t279.5 279.5t385.5 103t385.5 -103t279.5 -279.5 t103 -385.5z" />
	</g>
</svg>