<svg 
	id="songs-full-icon" 
	xmlns:svg="http://www.w3.org/2000/svg" 
	xmlns="http://www.w3.org/2000/svg" 
	viewBox="0 16 48 24">
	
	<style>
		.folder-top {
			fill: white;
			stroke: black;
		}
		.folder-body {
			fill: white;
			stroke: black;
		}
		.folder-contents {
			fill: white;
			stroke: black;	
		}
		.folder-icon {
			fill: black;
		}
	</style>

	<g class="folder-top" transform="translate(0 1.5)">
		<path d="M 43.5,11.5 H 21 L 16.5,7 h -12 c -3,0 -3,0 -3,3 v 8 h 45 v -3.5 c 0,0 0,-3 -3,-3 z" />
	</g>

	<g class="folder-body">
		<path id="folder-cover" d="M 3,16.75 C 1.5,16.75 1.5,18 1.5,18 v 25.75 c 0,2.25 0,2 3,2 h 39 c 3,0 3,0.25 3,-2 V 18 c 0,0 0,-1.25 -1.5,-1.25 z" />
	</g>
	
	<rect class="folder-contents" x="3" y="14.5" width="42" height="2.25" />

	<g class="folder-icon" transform="translate(12 19)">
		<path d="M6 23v-11c-4.036 0-6 2.715-6 5.5 0 2.807 1.995 5.5 6 5.5zm18-5.5c0-2.785-1.964-5.5-6-5.5v11c4.005 0 6-2.693 6-5.5zm-12-13.522c-3.879-.008-6.861 2.349-7.743 6.195-.751.145-1.479.385-2.161.716.629-5.501 4.319-9.889 9.904-9.889 5.589 0 9.29 4.389 9.916 9.896-.684-.334-1.415-.575-2.169-.721-.881-3.85-3.867-6.205-7.747-6.197z" />
	</g>
</svg>