<svg 
	id="themes-full-icon" 
	xmlns:svg="http://www.w3.org/2000/svg" 
	xmlns="http://www.w3.org/2000/svg" 
	viewBox="0 16 48 24">
	
	<style>
		.folder-top {
			fill: white;
			stroke: black;
		}
		.folder-body {
			fill: white;
			stroke: black;
		}
		.folder-contents {
			fill: white;
			stroke: black;	
		}
		.folder-icon {
			fill: black;
		}
	</style>

	<g class="folder-top" transform="translate(0 1.5)">
		<path d="M 43.5,11.5 H 21 L 16.5,7 h -12 c -3,0 -3,0 -3,3 v 8 h 45 v -3.5 c 0,0 0,-3 -3,-3 z" />
	</g>

	<g class="folder-body">
		<path id="folder-cover" d="M 3,16.75 C 1.5,16.75 1.5,18 1.5,18 v 25.75 c 0,2.25 0,2 3,2 h 39 c 3,0 3,0.25 3,-2 V 18 c 0,0 0,-1.25 -1.5,-1.25 z" />
	</g>
	
	<rect class="folder-contents" x="3" y="14.5" width="42" height="2.25" />

	<g class="folder-icon" transform="translate(12 19)">
		<path d="M 0 21.398 c 5.504.456 3.533 -5.392 8.626 -5.445l2.206 1.841c.549 6.645 -7.579 8.127 -10.832 3.604zm16.878 -8.538c1.713 -2.687 7.016 -11.698 7.016 -11.698.423 -.747 -.515 -1.528 -1.17 -.976 0 0 -7.887 6.857 -10.213 9.03 -1.838 1.719 -1.846 2.504 -2.441 5.336l2.016 1.681c2.67 -1.098 3.439 -1.248 4.792 -3.373 z" />
	</g>
</svg>