<svg 
	id="ai-file-tile"
	xmlns="http://www.w3.org/2000/svg"
	xmlns:xlink="http://www.w3.org/1999/xlink" 
	viewBox="0 0 40 40" 
	style="background:#FFC14F;">

	<style>
		.tile-icon {
			fill: white;
		}
	</style>

	<g class="tile-icon" transform="translate(20, 20), scale(0.5), translate(-20, -30)">
		<g transform="translate(0, -16)">
			<path d="M 32.59375 6.7792969 C 31.288543 6.775431 29.828336 7.7103334 28.5 10.382812 C 25.429 11.350812 22.997047 13.766219 21.998047 16.824219 C 21.311047 16.269219 20.45 15.921875 19.5 15.921875 C 17.641 15.921875 16.089578 17.201875 15.642578 18.921875 L 12.5 18.921875 L 12.5 16.921875 L 6.5 16.921875 L 6.5 22.921875 L 12.5 22.921875 L 12.5 20.921875 L 15.421875 20.921875 C 15.085875 23.584875 13.43525 25.900938 11.03125 27.085938 C 10.36325 25.806938 9.04 24.921875 7.5 24.921875 C 5.294 24.921875 3.5 26.715875 3.5 28.921875 C 3.5 31.127875 5.294 32.921875 7.5 32.921875 C 9.646 32.921875 11.388422 31.220656 11.482422 29.097656 C 14.137422 27.946656 16.128859 25.709437 17.005859 23.023438 C 17.691859 23.576437 18.552 23.921875 19.5 23.921875 C 21.359 23.921875 22.910422 22.641875 23.357422 20.921875 L 26.5 20.921875 L 26.5 22.921875 L 32.5 22.921875 L 32.5 16.921875 L 26.5 16.921875 L 26.5 18.921875 L 23.568359 18.921875 C 23.947359 15.902875 26.013016 13.408297 28.791016 12.404297 C 29.383016 13.877297 30.818 14.921875 32.5 14.921875 C 34.706 14.921875 36.5 13.127875 36.5 10.921875 C 36.513881 9.3997538 34.769094 6.78574 32.59375 6.7792969 z M 19.5 17.921875 C 20.603 17.921875 21.5 18.818875 21.5 19.921875 C 21.5 21.024875 20.603 21.921875 19.5 21.921875 C 18.397 21.921875 17.5 21.024875 17.5 19.921875 C 17.5 18.818875 18.397 17.921875 19.5 17.921875 z M 8.5 18.921875 L 10.5 18.921875 L 10.5 20.921875 L 8.5 20.921875 L 8.5 18.921875 z M 28.5 18.921875 L 30.5 18.921875 L 30.5 20.921875 L 28.5 20.921875 L 28.5 18.921875 z " transform="translate(0, 16)" />
		</g>
	</g>
</svg>
