<svg 
	id="csv-file-tile"
	xmlns="http://www.w3.org/2000/svg" 
	xmlns:xlink="http://www.w3.org/1999/xlink" 
	viewBox="0 0 40 40" 
	style="background:#F36FA0">

	<style>
		.tile-icon {
			fill: white;
		}
	</style>

	<g class="tile-icon" transform="translate(20, 20), scale(0.5), translate(-20, -30)">
		<g transform="translate(-11.5, 6)">
			<path d="m 27, 7 0, -4 -12, 0 0, 4 0, 2 0, 2 0, 2 0, 2 0, 2 0, 2 0, 2 0, 4 10, 0 2, 0 21, 0 0, -4 0, -2 0, -2 0, -2 0, -2 0, -2 0, -4 -21, 0 z m -10, -2 8, 0 0, 2 -8, 0 0, -2 z m 0, 4 8, 0 0, 2 -8, 0 0, -2 z m 0, 4 8, 0 0, 2 -8, 0 0, -2 z m 0, 4 8, 0 0, 2 -8, 0 0, -2 z m 8, 6 -8, 0 0, -2 8, 0 0, 2 z m 21, 0 -19, 0 0, -2 19, 0 0, 2 z m 0, -4 -19, 0 0, -2 19, 0 0, 2 z m 0, -4 -19, 0 0, -2 19, 0 0, 2 z m -19, -4 0, -2 19, 0 0, 2 -19, 0 z"
			 style="fill:white" />
		</g>
	</g>
</svg>