<svg 
	id="e-file-tile"
	xmlns="http://www.w3.org/2000/svg" 
	xmlns:xlink="http://www.w3.org/1999/xlink" 
	viewBox="0 0 30 30" 
	style="background:#4d6977">

	<style>
		.tile-icon {
			fill: white;
		}
	</style>

	<g class="tile-icon" transform="translate(15, 15), scale(0.5), translate(-15, -22.5)">
		<g transform="translate(-14.5, -2)">
			<g transform="translate(2, -5)">
				<g class="file-icon" transform="translate(-82, -89) scale(.4)">
					<polygon points="301.6 266.5 304.5 278 309.2 263.1"/>
					<path d="m293 253.5c-4.3 1-10.4 2.5-15.1 3.3l3.8 4.5z"/>
					<polygon points="281.3 293.1 295.7 302.1 292.1 287.9"/>
					<polygon points="282.9 262.8 288.4 269.4 294.6 254.7"/>
					<polygon points="272.8 281.2 285.4 272.2 268 273.8"/>
					<polygon points="285.8 309 295.7 304 281.2 294.9"/>
					<polygon points="271.3 282.3 266.5 274.8 255.6 293.5"/>
					<polygon points="291.6 286.1 288.5 273.9 281.2 291.1"/>
					<polygon points="290.2 273 293.3 285.3 302.5 280.9"/>
					<polygon points="286.6 273.6 273.8 282.7 279.2 291 279.4 290.6 279.4 290.7"/>
					<polygon points="302.9 279.2 299.9 267.2 290.6 271.3"/>
					<polygon points="281.4 263.9 269.8 272 286.8 270.4"/>
					<polygon points="272.3 283.8 256.3 295.3 277.8 292.3"/>
					<polygon points="280.2 262.5 276.4 257.9 269.3 270.1"/>
					<polygon points="301.2 264.7 309 261.2 298.4 253.8"/>
					<polygon points="297.3 301.2 303.1 282.6 293.7 287.1"/>
					<polygon points="290.4 269.4 299.4 265.4 296.7 254.5"/>
					<polygon points="287.4 313.9 293.5 313.9 295.9 305.9 286.4 310.8"/>
					<polygon points="264 313.9 260.1 308.4 252.7 313.9"/>
					<polygon points="260.5 305.8 276.1 294.2 254.4 297.2"/>
					<polygon points="285.5 313.9 284.7 311.6 280.2 313.9"/>
					<polygon points="243.8 313.9 249.6 313.9 259 306.9 252.9 298.2"/>
					<polygon points="266.2 313.9 269.5 313.9 277.4 295.5 261.6 307.3"/>
					<polygon points="271.8 313.9 276.2 313.9 284.2 309.8 279.4 295.4"/>
				</g>
			</g>
		</g>
	</g>
</svg>
