<svg 
	id="fla-file-tile"
	xmlns="http://www.w3.org/2000/svg" 
	xmlns:xlink="http://www.w3.org/1999/xlink" 
	viewBox="0 0 35 35" 
	style="background:#CE3C3B">

	<style>
		.tile-icon {
			fill: white;
		}
	</style>

	<g class="tile-icon" transform="translate(17.5, 17.5), scale(0.5), translate(-17.5, -26.25)">
		<g transform="translate(4, -23)">
			<circle id="circle19" r="2" cy="36" cx="11.5" style="fill:white" />
			<g transform="translate(-14, 20)">
				<path d="M 34.985, 13.929 34.278, 13.222 C 32.201, 11.144 29.438, 10 26.5, 10 23.562, 10 20.799, 11.144 18.722, 13.222 16.644, 15.299 15.5, 18.062 15.5, 21 c 0, 2.938 1.144, 5.701 3.222, 7.778 2.077, 2.078 4.84, 3.222 7.778, 3.222 2.938, 0 5.701, -1.144 7.778, -3.222 L 34.985, 28.071 27.914, 21 34.985, 13.929 Z M 32.118, 28.032 C 30.528, 29.308 28.567, 30 26.5, 30 24.096, 30 21.836, 29.064 20.136, 27.364 18.436, 25.664 17.5, 23.404 17.5, 21 c 0, -2.404 0.936, -4.664 2.636, -6.364 1.7, -1.7 3.96, -2.636 6.364, -2.636 2.067, 0 4.028, 0.692 5.618, 1.968 L 25.086, 21 l 7.032, 7.032 z" style="fill:white" />
				<path d="m 35.5, 20 -3, 0 c -0.553, 0 -1, 0.447 -1, 1 0, 0.553 0.447, 1 1, 1 l 3, 0 c 0.553, 0 1, -0.447 1, -1 0, -0.553 -0.447, -1 -1, -1 z" style="fill:white" />
				<path d="m 41.5, 20 -2, 0 c -0.553, 0 -1, 0.447 -1, 1 0, 0.553 0.447, 1 1, 1 l 2, 0 c 0.553, 0 1, -0.447 1, -1 0, -0.553 -0.447, -1 -1, -1 z" style="fill:white" />
			</g>
		</g>
	</g>
</svg>