<svg 
	id="htm-file-tile"
	xmlns="http://www.w3.org/2000/svg" 
	xmlns:xlink="http://www.w3.org/1999/xlink" 
	viewBox="0 0 30 30" 
	style="background:#ec6630">

	<style>
		.tile-icon {
			fill: white;
		}
	</style>

	<g class="tile-icon" transform="translate(15, 15), scale(0.5), translate(-15, -22.5)">
		<g transform="translate(-15.49975, 1.373291e-7)">
			<g transform="translate(1.99975, -7.9998751)">
				<path d="m 23.207, 16.293 c -0.391, -0.391 -1.023, -0.391 -1.414, 0 l -6, 6 c -0.391, 0.391 -0.391, 1.023 0, 1.414 l 6, 6 C 21.988, 29.902 22.244, 30 22.5, 30 c 0.256, 0 0.512, -0.098 0.707, -0.293 0.391, -0.391 0.391, -1.023 0, -1.414 L 17.914, 23 23.207, 17.707 c 0.391, -0.391 0.391, -1.023 0, -1.414 z" style="fill:white" />
				<path d="m 41.207, 22.293 -6, -6 c -0.391, -0.391 -1.023, -0.391 -1.414, 0 -0.391, 0.391 -0.391, 1.023 0, 1.414 L 39.086, 23 33.793, 28.293 c -0.391, 0.391 -0.391, 1.023 0, 1.414 0.195, 0.195 0.451, 0.293 0.707, 0.293 0.256, 0 0.512, -0.098 0.707, -0.293 l 6, -6 c 0.391, -0.391 0.391, -1.023 0, -1.414 z" style="fill:white" />
			</g>
		</g>
	</g>
</svg>