<svg 
	id="js-file-tile"
	xmlns="http://www.w3.org/2000/svg" 
	xmlns:xlink="http://www.w3.org/1999/xlink" 
	viewBox="0 0 30 30" 
	style="background:#4d64ae">

	<style>
		.tile-icon {
			fill: white;
		}
	</style>

	<g class="tile-icon" transform="translate(15, 15), scale(0.5), translate(-15, -22.5)">
		<g transform="translate(-14.5, -2)">
			<g transform="translate(2, -5)">
				<g class="file-icon" transform="translate(15,10) scale(0.4)">
					<path d="M14.518 59.33C6.493 59.321-.006 52.809 0 44.785s6.515-14.526 14.54-14.523a14.54 14.54 0 0 1 14.53 14.534c-.01 8.03-6.52 14.534-14.55 14.534z" fill="#ca3c32" />
					<path d="M49.45 59.33c-8.025-.01-14.524-6.52-14.518-14.545s6.515-14.526 14.54-14.523S64 36.77 64 44.795c-.01 8.03-6.52 14.534-14.55 14.534z" fill="#9259a3" />
					<path d="M31.992 29.069c-8.027 0-14.534-6.507-14.534-14.534S23.965 0 31.992 0s14.534 6.508 14.534 14.535a14.52 14.52 0 0 1-14.534 14.534z" fill="#399746" />
				</g>
			</g>
		</g>
	</g>
</svg>
