<svg 
	id="mp3-file-tile"
	xmlns="http://www.w3.org/2000/svg" 
	xmlns:xlink="http://www.w3.org/1999/xlink" 
	viewBox="0 0 32 32" 
	style="background:#7D6599">

	<style>
		.tile-icon {
			fill: white;
		}
	</style>

	<g class="tile-icon" transform="translate(16, 16), scale(0.5), translate(-16, -24)">
		<g transform="translate(-20.5, 1.765)">
			<path d="m 44.891385, 10.103501 c -0.567, -0.796 -1.3, -1.543 -2.308, -2.351 -3.914, -3.131 -4.757, -6.277 -4.862, -6.738 l 0, -0.897 c 0, -0.553 -0.447, -1 -1, -1 -0.553, 0 -1, 0.447 -1, 1 l 0, 1 0, 8.359 0, 9.053 -3.706, 0 c -3.882, 0 -6.294, 1.961 -6.294, 5.117 0, 3.466 2.24, 5.706 5.706, 5.706 3.471, 0 6.294, -2.823 6.294, -6.294 l 0, -11.473 0.298, 0.243 c 0.34, 0.336 0.861, 0.72 1.521, 1.205 2.318, 1.709 6.2, 4.567 5.224, 7.793 -0.029, 0.098 -0.043, 0.195 -0.043, 0.291 0, 0.43 0.278, 0.826 0.71, 0.957 0.097, 0.029 0.194, 0.043 0.29, 0.043 0.43, 0 0.826, -0.278 0.957, -0.71 1.627, -5.375 -0.422, -9.39 -1.787, -11.304 z m -9.17, 12.955 c 0, 2.368 -1.926, 4.294 -4.294, 4.294 -2.355, 0 -3.706, -1.351 -3.706, -3.706 0, -2.576 2.335, -3.117 4.294, -3.117 l 3.706, 0 0, 2.529 z m 5.005, -11.633 c -0.571, -0.422 -1.065, -0.785 -1.371, -1.081 l -1.634, -1.34 0, -3.473 c 0.827, 1.174 1.987, 2.483 3.612, 3.783 0.858, 0.688 1.472, 1.308 1.929, 1.95 0.716, 1.003 1.431, 2.339 1.788, 3.978 -1.327, -1.61 -3.084, -2.904 -4.324, -3.817 z" style="fill:white" />
		</g>
	</g>
</svg>
