<svg 
	id="ogg-file-tile"
	xmlns="http://www.w3.org/2000/svg" 
	xmlns:xlink="http://www.w3.org/1999/xlink" 
	viewBox="0 0 40 40" 
	style="background:#FF5364">

	<style>
		.tile-icon {
			fill: white;
		}
	</style>

	<g class="tile-icon" transform="translate(20, 20), scale(0.5), translate(-20, -30)">
		<g transform="translate(-8, -8)">
		 	<path d="M 24, 36 C 23.834, 36 23.669, 35.959 23.519, 35.877 23.199, 35.701 23, 35.365 23, 35 l 0, -14 c 0, -0.365 0.199, -0.701 0.519, -0.877 0.321, -0.175 0.71, -0.162 1.019, 0.033 l 11, 7 C 35.825, 27.34 36, 27.658 36, 28 c 0, 0.342 -0.175, 0.66 -0.463, 0.844 l -11, 7 C 24.374, 35.947 24.187, 36 24, 36 Z" style="fill:white" />
			<path d="m 28, 43 c -8.271, 0 -15, -6.729 -15, -15 0, -8.271 6.729, -15 15, -15 8.271, 0 15, 6.729 15, 15 0, 8.271 -6.729, 15 -15, 15 z m 0, -28 c -7.168, 0 -13, 5.832 -13, 13 0, 7.168 5.832, 13 13, 13 7.168, 0 13, -5.832 13, -13 0, -7.168 -5.832, -13 -13, -13 z" style="fill:white" />
		</g>
	</g>
</svg>