<svg 
	id="pdf-file-tile"
	xmlns="http://www.w3.org/2000/svg" 
	xmlns:xlink="http://www.w3.org/1999/xlink" 
	viewBox="0 0 30 30" 
	style="background:#cc4b4c">

	<style>
		.tile-icon {
			fill: white;
		}
	</style>

	<g class="tile-icon" transform="translate(15, 15), scale(0.5), translate(-15, -22.5)">
		<g transform="translate(-17.41823, -3.3240004)">
			<path d="m 22.972904, 31.532 0, 0 c -0.348, 0 -0.682, -0.113 -0.967, -0.326 -1.041, -0.781 -1.181, -1.65 -1.115, -2.242 0.182, -1.628 2.195, -3.332 5.985, -5.068 1.504, -3.296 2.935, -7.357 3.788, -10.75 -0.998, -2.172 -1.968, -4.9899996 -1.261, -6.6429996 0.248, -0.579 0.557, -1.023 1.134, -1.215 0.228, -0.076 0.804, -0.172 1.016, -0.172 0.504, 0 0.947, 0.649 1.261, 1.049 0.295, 0.376 0.964, 1.173 -0.373, 6.8019996 1.348, 2.784 3.258, 5.62 5.088, 7.562 1.311, -0.237 2.439, -0.358 3.358, -0.358 1.566, 0 2.515, 0.365 2.902, 1.117 0.32, 0.622 0.189, 1.349 -0.39, 2.16 -0.557, 0.779 -1.325, 1.191 -2.22, 1.191 -1.216, 0 -2.632, -0.768 -4.211, -2.285 -2.837, 0.593 -6.15, 1.651 -8.828, 2.822 -0.836, 1.774 -1.637, 3.203 -2.383, 4.251 -1.025, 1.435 -1.909, 2.105 -2.784, 2.105 z m 2.662, -5.126 c -2.137, 1.201 -3.008, 2.188 -3.071, 2.744 -0.01, 0.092 -0.037, 0.334 0.431, 0.692 0.149, -0.047 1.019, -0.444 2.64, -3.436 z m 13.637, -4.442 c 0.815, 0.627 1.014, 0.944 1.547, 0.944 0.234, 0 0.901, -0.01 1.21, -0.441 0.149, -0.209 0.207, -0.343 0.23, -0.415 -0.123, -0.065 -0.286, -0.197 -1.175, -0.197 -0.505, 0.001 -1.14, 0.023 -1.812, 0.109 z m -7.47, -6.582 c -0.715, 2.474 -1.659, 5.145 -2.674, 7.564 2.09, -0.811 4.362, -1.519 6.496, -2.02 -1.35, -1.568 -2.699, -3.526 -3.822, -5.544 z m -0.607, -8.4619996 c -0.098, 0.033 -1.33, 1.757 0.096, 3.2159996 0.949, -2.1149996 -0.053, -3.2299996 -0.096, -3.2159996 z" style="fill:white" />
		</g>
	</g>
</svg>