<svg 
	id="pptx-file-tile"
	xmlns="http://www.w3.org/2000/svg" 
	xmlns:xlink="http://www.w3.org/1999/xlink" 
	viewBox="0 0 30 30" 
	style="background:#f6712e">

	<style>
		.tile-icon {
			fill: white;
		}
	</style>

	<g class="tile-icon" transform="translate(15, 15), scale(0.5), translate(-15, -22.5)">
		<g transform="translate(-15.5, -5)">
			<path d="m 42.5, 27 -24, 0 0, -16 24, 0 0, 16 z m -22, -2 20, 0 0, -12 -20, 0 0, 12 z" style="fill:white" />
			<path d="m 23.499, 32 c -0.175, 0 -0.353, -0.046 -0.514, -0.143 -0.474, -0.284 -0.627, -0.898 -0.343, -1.372 l 3, -5 c 0.284, -0.474 0.898, -0.627 1.372, -0.343 0.474, 0.284 0.627, 0.898 0.343, 1.372 l -3, 5 C 24.17, 31.827 23.839, 32 23.499, 32 Z" style="fill:white" />
			<path d="m 37.501, 32 c -0.34, 0 -0.671, -0.173 -0.858, -0.485 l -3, -5 c -0.284, -0.474 -0.131, -1.088 0.343, -1.372 0.474, -0.283 1.088, -0.131 1.372, 0.343 l 3, 5 c 0.284, 0.474 0.131, 1.088 -0.343, 1.372 C 37.854, 31.954 37.676, 32 37.501, 32 Z" style="fill:white" />
			<path d="m 30.5, 13 c -0.552, 0 -1, -0.447 -1, -1 l 0, -3 c 0, -0.553 0.448, -1 1, -1 0.552, 0 1, 0.447 1, 1 l 0, 3 c 0, 0.553 -0.448, 1 -1, 1 z" style="fill:white" />
			<rect height="12" width="20" y="13" x="20.5" style="fill:#d3ccc9"/>
		</g>
	</g>
</svg>