<svg 
	id="psd-file-tile"
	xmlns="http://www.w3.org/2000/svg" 
	xmlns:xlink="http://www.w3.org/1999/xlink" 
	viewBox="0 0 32 32" 
	style="background:#5889c4">

	<style>
		.tile-icon {
			fill: white;
		}
	</style>

	<g class="tile-icon" transform="translate(16, 16), scale(0.5), translate(-16, -24)">
		<g transform="translate(-10, -3)">
			<path d="m 37.784159, 4.991211 c -2.439, 0.813 -7.458125, 5.109469 -8.953125, 6.605469 l -7.183594, 7.183593 c -0.095, -0.004 -0.189156, -0.01367 -0.285156, -0.01367 -2.971, 0 -5.464375, 2.124626 -5.984375, 5.015626 l -0.107422, 0.07422 -0.01953, 0.535156 c -0.034, 0.942001 -0.30275, 4.052875 -2.34375, 4.546876 -0.517, 0.129 -0.857969, 0.62339 -0.792969, 1.15039 l 0.162108, 0.919918 6.980469, 0 0.01953, 0 2.085938, -0.0293 c 3.367, 0 6.107422, -2.740422 6.107422, -6.107422 0, -0.193 -0.0113, -0.383265 -0.0293, -0.572265 l 7.048828, -7.048828 c 1.305, -1.305 3.925172, -4.357313 5.451172, -6.695313 1.303226, -3.9554697 0.607261, -4.7850958 -1.673828, -1.0937499 -1.433, 2.1959999 -3.978454, 5.1639999 -5.189454, 6.3749999 l -2.789058, 2.789066 -2.828125, -2.828126 2.787109, -2.789062 c 1.771, -1.771 6.270235, -5.4415624 8.115235, -6.1015624 1.164069, -1.3982217 0.595913, -1.6615474 -0.578125, -1.9160156 z m -11.740235, 12.220703 2.828125, 2.828125 -2.070312, 2.070312 c -0.151, -0.3 -0.330297, -0.586468 -0.529297, -0.855468 -0.007, -0.009 -0.01253, -0.01639 -0.01953, -0.02539 -0.605, -0.811 -1.405031, -1.464531 -2.332032, -1.894531 z m -4.679687, 3.554687 c 0.121, 0 0.234516, 0.02416 0.353516, 0.03516 l 0.167968, 0.02148 c 1.045, 0.134 1.95561, 0.654156 2.59961, 1.410156 0.058, 0.069 0.116921, 0.135985 0.169922, 0.208985 0.082, 0.11 0.155562, 0.22575 0.226562, 0.34375 0.05, 0.085 0.09758, 0.171765 0.142578, 0.259765 0.063, 0.126 0.123828, 0.255672 0.173828, 0.388672 0.03, 0.08 0.05117, 0.163094 0.07617, 0.246094 0.045, 0.147 0.09209, 0.294219 0.121094, 0.449219 l 0.0039, 0.02539 c 0.041, 0.234 0.07227, 0.471797 0.07227, 0.716797 -0.002, 2.264 -1.844375, 4.107422 -4.109375, 4.107422 l -3.738281, 0 0.01562, 0.0293 -1.662109, 0 c 0.887, -1.341 1.161141, -3.036922 1.244141, -4.044922 l 0.08203, -0.503906 c 0.213, -2.106 1.958547, -3.693359 4.060556, -3.693362 z" style="fill:white" />
		</g>
	</g>
</svg>