<svg 
	id="rar-file-tile"
	xmlns="http://www.w3.org/2000/svg" 
	xmlns:xlink="http://www.w3.org/1999/xlink" 
	viewBox="0 0 30 30" 
	style="background:#556080">

	<style>
		.tile-icon {
			fill: white;
		}
	</style>

	<g class="tile-icon" transform="translate(15, 15), scale(0.5), translate(-15, -22.5)">
		<g transform="translate(-22.5, -4)">
			<g transform="translate(10, -1)">
				<path d="m 28.5, 24 0, -2 2, 0 0, -2 -2, 0 0, -2 2, 0 0, -2 -2, 0 0, -2 2, 0 0, -2 -2, 0 0, -2 2, 0 0, -2 -2, 0 0, -2 -2, 0 0, 2 -2, 0 0, 2 2, 0 0, 2 -2, 0 0, 2 2, 0 0, 2 -2, 0 0, 2 2, 0 0, 2 -2, 0 0, 2 2, 0 0, 2 -4, 0 0, 5 c 0, 2.757 2.243, 5 5, 5 2.757, 0 5, -2.243 5, -5 l 0, -5 -4, 0 z m 2, 5 c 0, 1.654 -1.346, 3 -3, 3 -1.654, 0 -3, -1.346 -3, -3 l 0, -3 6, 0 0, 3 z"
					 style="fill:white" />
				<path d="m 26.5, 30 2, 0 c 0.552, 0 1, -0.447 1, -1 0, -0.553 -0.448, -1 -1, -1 l -2, 0 c -0.552, 0 -1, 0.447 -1, 1 0, 0.553 0.448, 1 1, 1 z" style="fill:white" />
			</g>
		</g>
	</g>
</svg>