<svg 
	id="sass-file-tile"
	xmlns="http://www.w3.org/2000/svg" 
	xmlns:xlink="http://www.w3.org/1999/xlink" 
	viewBox="0 0 30 30" 
	style="background:#0096e6">

	<style>
		.tile-icon {
			fill: white;
		}
	</style>

	<g class="tile-icon" transform="translate(15, 15), scale(0.5), translate(-15, -22.5)">
		<g transform="translate(-14.5, -2)">
			<g transform="translate(2, -5)">
				<path d="m 19.5, 19 0, -4 c 0, -0.551 0.448, -1 1, -1 0.553, 0 1, -0.448 1, -1 0, -0.552 -0.447, -1 -1, -1 -1.654, 0 -3, 1.346 -3, 3 l 0, 4 c 0, 1.103 -0.897, 2 -2, 2 -0.553, 0 -1, 0.448 -1, 1 0, 0.552 0.447, 1 1, 1 1.103, 0 2, 0.897 2, 2 l 0, 4 c 0, 1.654 1.346, 3 3, 3 0.553, 0 1, -0.448 1, -1 0, -0.552 -0.447, -1 -1, -1 -0.552, 0 -1, -0.449 -1, -1 l 0, -4 c 0, -1.2 -0.542, -2.266 -1.382, -3 0.84, -0.734 1.382, -1.8 1.382, -3 z"
				style="fill:white" />
				<path d="m 39.5, 21 c -1.103, 0 -2, -0.897 -2, -2 l 0, -4 c 0, -1.654 -1.346, -3 -3, -3 -0.553, 0 -1, 0.448 -1, 1 0, 0.552 0.447, 1 1, 1 0.552, 0 1, 0.449 1, 1 l 0, 4 c 0, 1.2 0.542, 2.266 1.382, 3 -0.84, 0.734 -1.382, 1.8 -1.382, 3 l 0, 4 c 0, 0.551 -0.448, 1 -1, 1 -0.553, 0 -1, 0.448 -1, 1 0, 0.552 0.447, 1 1, 1 1.654, 0 3, -1.346 3, -3 l 0, -4 c 0, -1.103 0.897, -2 2, -2 0.553, 0 1, -0.448 1, -1 0, -0.552 -0.447, -1 -1, -1 z"
				style="fill:white" />
			</g>
		</g>
	</g>
</svg>