<svg 
	id="search-file-tile"
	xmlns="http://www.w3.org/2000/svg" 
	xmlns:xlink="http://www.w3.org/1999/xlink" 
	viewBox="0 0 35 35">

	<style>
		.tile-icon {
			fill: white;
		}
	</style>

	<g class="tile-icon" transform="translate(17.5, 17.5), scale(0.5), translate(-17.5, -26.25)">
		<g transform="translate(-14.5, -10)">
			<g transform="translate(2.999875, -2)">
				<circle r="10" cy="25" cx="25.5" style="fill:#ffffff" />
				<path d="m 25.5, 36 c -6.065, 0 -11, -4.935 -11, -11 0, -6.065 4.935, -11 11, -11 6.065, 0 11, 4.935 11, 11 0, 6.065 -4.935, 11 -11, 11 z m 0, -20 c -4.963, 0 -9, 4.037 -9, 9 0, 4.963 4.037, 9 9, 9 4.963, 0 9, -4.037 9, -9 0, -4.963 -4.037, -9 -9, -9 z" style="fill:#556080" />
			</g>
			<path d="m 45.499875, 43 c -0.256, 0 -0.512, -0.098 -0.707, -0.293 l -11, -11 c -0.391, -0.391 -0.391, -1.023 0, -1.414 0.391, -0.391 1.023, -0.391 1.414, 0 l 11, 11 c 0.391, 0.391 0.391, 1.023 0, 1.414 -0.195, 0.195 -0.451, 0.293 -0.707, 0.293 z" style="fill:#556080" />
			<path d="m 28.499875, 20 -6, 0 c -0.553, 0 -1, -0.447 -1, -1 0, -0.553 0.447, -1 1, -1 l 6, 0 c 0.553, 0 1, 0.447 1, 1 0, 0.553 -0.447, 1 -1, 1 z" style="fill:#d1d4d1" />
			<path d="m 33.499875, 20 -2, 0 c -0.553, 0 -1, -0.447 -1, -1 0, -0.553 0.447, -1 1, -1 l 2, 0 c 0.553, 0 1, 0.447 1, 1 0, 0.553 -0.447, 1 -1, 1 z" style="fill:#d1d4d1" />
			<path d="m 27.499875, 28 -2, 0 c -0.553, 0 -1, -0.447 -1, -1 0, -0.553 0.447, -1 1, -1 l 2, 0 c 0.553, 0 1, 0.447 1, 1 0, 0.553 -0.447, 1 -1, 1 z" style="fill:#d1d4d1" />
			<path d="m 33.499875, 28 -2, 0 c -0.553, 0 -1, -0.447 -1, -1 0, -0.553 0.447, -1 1, -1 l 2, 0 c 0.553, 0 1, 0.447 1, 1 0, 0.553 -0.447, 1 -1, 1 z" style="fill:#d1d4d1" />
			<path d="m 26.499875, 24 -4, 0 c -0.553, 0 -1, -0.447 -1, -1 0, -0.553 0.447, -1 1, -1 l 4, 0 c 0.553, 0 1, 0.447 1, 1 0, 0.553 -0.447, 1 -1, 1 z" style="fill:#d1d4d1" />
			<path d="m 35.499875, 24 -5, 0 c -0.553, 0 -1, -0.447 -1, -1 0, -0.553 0.447, -1 1, -1 l 5, 0 c 0.553, 0 1, 0.447 1, 1 0, 0.553 -0.447, 1 -1, 1 z" style="fill:#d1d4d1" />
		</g>
	</g>
</svg>