<svg 
	id="svg-file-tile"
	xmlns="http://www.w3.org/2000/svg" 
	xmlns:xlink="http://www.w3.org/1999/xlink" 
	viewBox="0 0 40 40" 
	style="background:#e57e25">

	<style>
		.tile-icon {
			fill: white;
		}
	</style>

	<g class="tile-icon" transform="translate(20, 20), scale(0.5), translate(-20, -30)">
		<g transform="translate(-11.5, 6)">
			<path d="m 48.5, 12 0, -6 -6, 0 0, 2 -6, 0 0, -4 -10, 0 0, 4 -6, 0 0, -2 -6, 0 0, 6 6, 0 0, -2 3.548, 0 c -4.566, 2.636 -7.548, 7.588 -7.548, 13 0, 0.552 0.447, 1 1, 1 0.553, 0 1, -0.448 1, -1 0, -5.246 3.229, -9.999 8, -11.995 l 0, 2.995 10, 0 0, -2.995 c 4.771, 1.997 8, 6.75 8, 11.995 0, 0.552 0.447, 1 1, 1 0.553, 0 1, -0.448 1, -1 0, -5.412 -2.982, -10.364 -7.548, -13 l 3.548, 0 0, 2 6, 0 z m -30, -2 -2, 0 0, -2 2, 0 0, 2 z m 16, 2 -6, 0 0, -3.754 0, -2.246 6, 0 0, 2.246 0, 3.754 z m 10, -4 2, 0 0, 2 -2, 0 0, -2 z" style="fill:white" />
		</g>
	</g>
</svg>