<svg 
	id="text-file-tile"
	xmlns="http://www.w3.org/2000/svg" 
	xmlns:xlink="http://www.w3.org/1999/xlink" 
	viewBox="0 0 40 40" 
	style="background:#95a5a5;">

	<style>
		.tile-icon {
			fill: white;
		}
	</style>

	<g class="tile-icon" transform="translate(20, 20), scale(0.5), translate(-20, -30)">
		<g transform="translate(0, -16)">
			<path d="m 10.5, 27 -6, 0 c -0.552, 0 -1, -0.448 -1, -1 0, -0.552 0.448, -1 1, -1 l 6, 0 c 0.552, 0 1, 0.448 1, 1 0, 0.552 -0.448, 1 -1, 1 z" style="fill:white" />
			<path d="m 13.5, 32 -9, 0 c -0.552, 0 -1, -0.448 -1, -1 0, -0.552 0.448, -1 1, -1 l 9, 0 c 0.552, 0 1, 0.448 1, 1 0, 0.552 -0.448, 1 -1, 1 z" style="fill:white" />
			<path d="M 17.5, 32 C 17.24, 32 16.98, 31.89 16.79, 31.71 16.61, 31.52 16.5, 31.26 16.5, 31 c 0, -0.26 0.11, -0.52 0.29, -0.71 0.37, -0.37 1.05, -0.37 1.42, 0 0.18, 0.19 0.29, 0.45 0.29, 0.71 0, 0.26 -0.11, 0.52 -0.29, 0.71 C 18.02, 31.89 17.76, 32 17.5, 32 Z" style="fill:white" />
			<path d="m 29.5, 32 -8, 0 c -0.552, 0 -1, -0.448 -1, -1 0, -0.552 0.448, -1 1, -1 l 8, 0 c 0.552, 0 1, 0.448 1, 1 0, 0.552 -0.448, 1 -1, 1 z" style="fill:white" />
			<path d="M 4.5, 47 C 4.24, 47 3.98, 46.89 3.79, 46.71 3.61, 46.52 3.5, 46.26 3.5, 46 c 0, -0.26 0.11, -0.52 0.29, -0.71 0.37, -0.37 1.05, -0.37 1.42, 0 0.18, 0.19 0.29, 0.44 0.29, 0.71 0, 0.26 -0.11, 0.52 -0.29, 0.71 C 5.02, 46.89 4.76, 47 4.5, 47 Z" style="fill:white" />
			<path d="m 16.5, 47 -8, 0 c -0.552, 0 -1, -0.448 -1, -1 0, -0.552 0.448, -1 1, -1 l 8, 0 c 0.552, 0 1, 0.448 1, 1 0, 0.552 -0.448, 1 -1, 1 z" style="fill:white" />
			<path d="m 35.5, 32 -2, 0 c -0.552, 0 -1, -0.448 -1, -1 0, -0.552 0.448, -1 1, -1 l 2, 0 c 0.552, 0 1, 0.448 1, 1 0, 0.552 -0.448, 1 -1, 1 z" style="fill:white" />
			<path d="m 26.5, 37 -22, 0 c -0.552, 0 -1, -0.448 -1, -1 0, -0.552 0.448, -1 1, -1 l 22, 0 c 0.552, 0 1, 0.448 1, 1 0, 0.552 -0.448, 1 -1, 1 z" style="fill:white" />
			<path d="m 35.5, 37 -6, 0 c -0.552, 0 -1, -0.448 -1, -1 0, -0.552 0.448, -1 1, -1 l 6, 0 c 0.552, 0 1, 0.448 1, 1 0, 0.552 -0.448, 1 -1, 1 z" style="fill:white" />
			<path d="m 8.5, 42 -4, 0 c -0.552, 0 -1, -0.448 -1, -1 0, -0.552 0.448, -1 1, -1 l 4, 0 c 0.552, 0 1, 0.448 1, 1 0, 0.552 -0.448, 1 -1, 1 z" style="fill:white" />
			<path d="m 22.5, 42 -10, 0 c -0.552, 0 -1, -0.448 -1, -1 0, -0.552 0.448, -1 1, -1 l 10, 0 c 0.552, 0 1, 0.448 1, 1 0, 0.552 -0.448, 1 -1, 1 z" style="fill:white" />
			<path d="m 35.5, 42 -9, 0 c -0.552, 0 -1, -0.448 -1, -1 0, -0.552 0.448, -1 1, -1 l 9, 0 c 0.552, 0 1, 0.448 1, 1 0, 0.552 -0.448, 1 -1, 1 z" style="fill:white" />
		</g>
	</g>
</svg>