<svg 
	id="thme-file-tile"
	xmlns="http://www.w3.org/2000/svg" 
	xmlns:xlink="http://www.w3.org/1999/xlink" 
	viewBox="0 0 30 30" 
	style="background:silver">

	<style>
		.tile-icon {
			fill: white;
		}
	</style>

	<g class="tile-icon" transform="translate(15, 15), scale(0.5), translate(-15, -22.5)">
		<g transform="translate(-14.5, -2)">
			<g transform="translate(15, 5), scale(1, 1)">
				<path style="fill:white" d="M 0 21.398 c 5.504.456 3.533 -5.392 8.626 -5.445l2.206 1.841c.549 6.645 -7.579 8.127 -10.832 3.604zm16.878 -8.538c1.713 -2.687 7.016 -11.698 7.016 -11.698.423 -.747 -.515 -1.528 -1.17 -.976 0 0 -7.887 6.857 -10.213 9.03 -1.838 1.719 -1.846 2.504 -2.441 5.336l2.016 1.681c2.67 -1.098 3.439 -1.248 4.792 -3.373 z"/>
			</g>
		</g>
	</g>
</svg>
