<svg 
	id="w3-svg-file-tile"
	xmlns:svg="http://www.w3.org/2000/svg" 
	xmlns="http://www.w3.org/2000/svg" 
	xmlns:xlink="http://www.w3.org/1999/xlink" 
	viewBox="0 0 75 75" 
	style="background:#eda921">

	<style>
		.tile-icon {
			fill: white;
		}
	</style>

	<g class="tile-icon" transform="translate(37.5, 37.5), scale(0.5), translate(-37.5, -56.25)">
		<g transform="translate(1.5, -6.9)">
			<g
				 id="g22">
				<g
					 transform="matrix(0.24, 0, 0, 0.24, 0, 8.4)"
					 id="logo">
					<g
						 style="stroke:#000000;stroke-width:38.00859833"
						 id="g25">
						<g
							 transform="translate(150, 150)"
							 id="svgstar">
							<path
								 style="fill:white"
								 d="m -84.1487, -15.8513 a 22.4171, 22.4171 0 1 0 0, 31.7026 l 168.2974, 0 a 22.4171, 22.4171 0 1 0 0, -31.7026 z"
								 id="svgbar" />
							<use
								 height="100%"
								 width="100%"
								 y="0"
								 x="0"
								 id="use29"
								 transform="matrix(0.70710678, 0.70710678, -0.70710678, 0.70710678, 0, 0)"
								 xlink:href="#svgbar" />
							<use
								 height="100%"
								 width="100%"
								 y="0"
								 x="0"
								 id="use31"
								 transform="matrix(0, 1, -1, 0, 0, 0)"
								 xlink:href="#svgbar" />
							<use
								 height="100%"
								 width="100%"
								 y="0"
								 x="0"
								 id="use33"
								 transform="matrix(-0.70710678, 0.70710678, -0.70710678, -0.70710678, 0, 0)"
								 xlink:href="#svgbar" />
						</g>
					</g>
					<use
						 height="100%"
						 width="100%"
						 y="0"
						 x="0"
						 id="use35"
						 xlink:href="#svgstar" />
				</g>
			</g>
		</g>
	</g>
</svg>
