<svg 
	id="xml-file-tile"
	xmlns="http://www.w3.org/2000/svg" 
	xmlns:xlink="http://www.w3.org/1999/xlink" 
	viewBox="0 0 30 30" 
	style="background:#9777a8">

	<style>
		.tile-icon {
			fill: white;
		}
	</style>

	<g class="tile-icon" transform="translate(15, 15), scale(0.5), translate(-15, -22.5)">
		<g transform="translate(-14.49975, -2)">
			<path d="m 17.49975, 18.5 c -0.256, 0 -0.512, -0.098 -0.707, -0.293 -0.391, -0.391 -0.391, -1.023 0, -1.414 l 6, -6 c 0.391, -0.391 1.023, -0.391 1.414, 0 0.391, 0.391 0.391, 1.023 0, 1.414 l -6, 6 c -0.195, 0.195 -0.451, 0.293 -0.707, 0.293 z" style="fill:white" />
			<path d="m 23.49975, 24.5 c -0.256, 0 -0.512, -0.098 -0.707, -0.293 l -6, -6 c -0.391, -0.391 -0.391, -1.023 0, -1.414 0.391, -0.391 1.023, -0.391 1.414, 0 l 6, 6 c 0.391, 0.391 0.391, 1.023 0, 1.414 -0.195, 0.195 -0.451, 0.293 -0.707, 0.293 z" style="fill:white" />
			<path d="m 35.49975, 24.5 c -0.256, 0 -0.512, -0.098 -0.707, -0.293 -0.391, -0.391 -0.391, -1.023 0, -1.414 l 6, -6 c 0.391, -0.391 1.023, -0.391 1.414, 0 0.391, 0.391 0.391, 1.023 0, 1.414 l -6, 6 c -0.195, 0.195 -0.451, 0.293 -0.707, 0.293 z" style="fill:white" />
			<path d="m 41.49975, 18.5 c -0.256, 0 -0.512, -0.098 -0.707, -0.293 l -6, -6 c -0.391, -0.391 -0.391, -1.023 0, -1.414 0.391, -0.391 1.023, -0.391 1.414, 0 l 6, 6 c 0.391, 0.391 0.391, 1.023 0, 1.414 -0.195, 0.195 -0.451, 0.293 -0.707, 0.293 z" style="fill:white" />
			<path d="m 26.49975, 26.5 c -0.11, 0 -0.223, -0.019 -0.333, -0.058 -0.521, -0.184 -0.794, -0.755 -0.61, -1.276 l 6, -17 c 0.185, -0.521 0.753, -0.795 1.276, -0.61 0.521, 0.184 0.794, 0.755 0.61, 1.276 l -6, 17 c -0.145, 0.412 -0.531, 0.668 -0.943, 0.668 z" style="fill:white" />
		</g>
	</g>
</svg>