<svg id="Layer_1" data-name="Layer 1" xmlns="http://www.w3.org/2000/svg" xmlns:xlink="http://www.w3.org/1999/xlink" viewBox="0 0 84.38 84.38"><defs><style>.cls-1{fill:url(#linear-gradient);}.cls-2{fill:#54a3c6;}.cls-3{fill:#77b3d5;}.cls-4{fill:#172730;}.cls-5{fill:#fff;}.cls-6{fill:#1d2c38;}</style><linearGradient id="linear-gradient" x1="-962.38" y1="11855.86" x2="-902.72" y2="11796.2" gradientTransform="translate(-7660.59 -8979.41) rotate(-45)" gradientUnits="userSpaceOnUse"><stop offset="0" stop-color="#efa40f"/><stop offset="0.15" stop-color="#f6af18"/><stop offset="0.38" stop-color="#fbb61e"/><stop offset="1" stop-color="#fcb81f"/></linearGradient></defs><title>schema-6</title><circle class="cls-1" cx="42.19" cy="42.19" r="42.19"/><polygon class="cls-2" points="29.86 35.4 27.11 37.9 28.21 46.24 33.89 52.44 60.39 48.81 54.28 34.08 54.28 34.08 33.72 43.67 29.86 35.4"/><polygon class="cls-3" points="29.86 35.4 33.72 43.67 54.28 34.08 46.93 19.94 29.86 35.4"/><path class="cls-4" d="M252.74,12336.94l-4.26,2a2.75,2.75,0,0,0-1.33,3.66l5.63,12.07a2.75,2.75,0,0,0,3.65,1.33l4.26-2Z" transform="translate(-220.01 -12288.07)"/><path class="cls-5" d="M237.25,12335.16H241a1.38,1.38,0,0,1,1.38,1.38v4a1.37,1.37,0,0,1-1.37,1.37h-3.78a1.38,1.38,0,0,1-1.38-1.38v-4a1.37,1.37,0,0,1,1.37-1.37Z" transform="translate(-5415.21 -11029.45) rotate(-25.02)"/><circle class="cls-5" cx="278.81" cy="12320.05" r="4.3" transform="translate(-5399.03 -11016.71) rotate(-24.99)"/><path class="cls-6" d="M251,12322.54l-10.49,4.89a6.88,6.88,0,0,0-3.33,9.14l2.23,4.78a6.87,6.87,0,0,0,9.14,3.32l10.49-4.89Z" transform="translate(-220.01 -12288.07)"/><path class="cls-6" d="M285.53,12334.46a2.75,2.75,0,0,1-1.33,3.66l-0.16.07a2.75,2.75,0,0,1-3.65-1.33L267,12308a2.75,2.75,0,0,1,1.33-3.65l0.16-.07a2.75,2.75,0,0,1,3.66,1.33Z" transform="translate(-220.01 -12288.07)"/></svg>