<?xml version="1.0" encoding="iso-8859-1"?>
<!-- Generator: Adobe Illustrator 19.0.0, SVG Export Plug-In . SVG Version: 6.00 Build 0)  -->
<svg version="1.1" id="Layer_1" xmlns="http://www.w3.org/2000/svg" xmlns:xlink="http://www.w3.org/1999/xlink" x="0px" y="0px"
	 viewBox="0 0 512.001 512.001" style="enable-background:new 0 0 512.001 512.001;" xml:space="preserve">
<path id="background_17_" style="fill:#E05B49;" d="M511.991,253.87c1.177,141.38-112.481,256.944-253.861,258.122
	C116.75,513.169,1.186,399.51,0.009,258.13C-1.142,119.789,109.855,1.207,253.869,0.009
	C395.249-1.166,510.816,112.49,511.991,253.87z"/>
<path style="fill:#CED1D1;" d="M429.123,6.344L154.349,8.629L110.35,53.995l-68.69,70.822l-12.964,13.367l0.072,8.731l1.992,230.822
	c43.663,80.622,129.297,135.07,227.369,134.255c99.207-0.826,184.755-57.977,226.564-140.841l-1.948-234.089l-0.716-77.755
	C481.789,30.449,457.982,6.102,429.123,6.344z"/>
<polygon style="fill:#B4B8B8;" points="155.216,112.972 281.703,7.569 154.349,8.629 98.809,136.74 "/>
<path style="fill:#FBFFFF;" d="M131.83,136.821c12.973-0.108,23.066-10.301,22.96-23.271L153.926,9.778L28.059,137.684
	L131.83,136.821z"/>
</svg>
