<svg 
	id="albums-full-icon" 
	xmlns:svg="http://www.w3.org/2000/svg" 
	xmlns="http://www.w3.org/2000/svg" 
	viewBox="0 16 48 24">
	
	<style>
		.folder-top {
			fill: tan;
		}
		.folder-body {
			fill: wheat;
		}
		.folder-contents {
			fill: white;
		}
		.folder-icon {
			fill: burlywood;
		}
	</style>

	<g class="folder-top" transform="translate(0 1.5)">
		<path d="M 43.5,11.5 H 21 L 16.5,7 h -12 c -3,0 -3,0 -3,3 v 8 h 45 v -3.5 c 0,0 0,-3 -3,-3 z" />
	</g>

	<g class="folder-body">
		<path id="folder-cover" d="M 3,16.75 C 1.5,16.75 1.5,18 1.5,18 v 25.75 c 0,2.25 0,2 3,2 h 39 c 3,0 3,0.25 3,-2 V 18 c 0,0 0,-1.25 -1.5,-1.25 z" />
	</g>
	
	<rect class="folder-contents" x="3" y="14.5" width="42" height="2.25" />

	<g class="folder-icon" transform="translate(12 19)">
		<path d="M14 12c0 1.103-.896 2-2 2-1.103 0-2-.897-2-2s.897-2 2-2c1.104 0 2 .897 2 2zm10 0c0 6.627-5.373 12-12 12s-12-5.373-12-12 5.373-12 12-12 12 5.373 12 12zm-14.795 7.507c-2.17-.813-3.893-2.54-4.699-4.714l-1.02.127c.896 2.628 2.968 4.704 5.592 5.606l.127-1.019zm.26-2.077c-1.271-.596-2.299-1.624-2.895-2.896l-1.041.13c.709 1.721 2.084 3.097 3.807 3.807l.129-1.041zm6.535-5.43c0-2.209-1.791-4-4-4s-4 1.791-4 4 1.791 4 4 4 4-1.791 4-4zm2.473-2.665c-.711-1.722-2.086-3.097-3.807-3.807l-.131 1.041c1.271.596 2.299 1.624 2.896 2.896l1.042-.13zm2.027-.253c-.902-2.61-2.969-4.672-5.582-5.568l-.129 1.019c2.162.808 3.877 2.52 4.691 4.677l1.02-.128z" />
	</g>
</svg>