<svg 
	id="clipboard-empty-icon" 
	xmlns:svg="http://www.w3.org/2000/svg" 
	xmlns="http://www.w3.org/2000/svg" 
	viewBox="96 0 320 512">
	
	<style>
		.clipboard-handle {
			fill: silver;
		}
		.clipboard-body {
			fill: #9e7860;
		}
	</style>

	<g transform="matrix(1,0,0,1,0,0)">
		<path class="clipboard-handle" 
			d="m 295.857,35.036184 0,-16.4882 c 0,-9.1095498 -7.775,-16.4881998 -17.356,-16.4881998 l -52.068,0 c -9.58,0 -17.356,7.37865 -17.356,16.4881998 l 0,16.4882 -34.712,0 c -4.79,0 -8.678,3.6936 -8.678,8.2441 l 0,57.823646 c 0,4.617 3.94,8.35905 8.799,8.35905 l 155.96,0 c 4.86,0 8.799,-3.743 8.799,-8.35905 l 0,-57.823646 c 0,-4.5505 -3.888,-8.2441 -8.678,-8.2441 l -34.71,0 z" />
		<path class="clipboard-body"
			 d="m 339.247,59.768484 0,41.335446 c 0,4.617 -3.94,8.35905 -8.799,8.35905 l -155.96,0 c -4.86,0 -8.799,-3.743 -8.799,-8.35905 l 0,-41.335446 -86.78,0 0,420.563096 347.119,0 0,-420.563096 -86.781,0 z" />
	</g>
</svg>