<svg 
	id="collections-full-icon" 
	xmlns:svg="http://www.w3.org/2000/svg" 
	xmlns="http://www.w3.org/2000/svg" 
	viewBox="0 16 48 24">
	
	<style>
		.folder-top {
			fill: tan;
		}
		.folder-body {
			fill: wheat;
		}
		.folder-contents {
			fill: white;
		}
		.folder-icon {
			fill: burlywood;
		}
	</style>

	<g class="folder-top" transform="translate(0 1.5)">
		<path d="M 43.5,11.5 H 21 L 16.5,7 h -12 c -3,0 -3,0 -3,3 v 8 h 45 v -3.5 c 0,0 0,-3 -3,-3 z" />
	</g>

	<g class="folder-body">
		<path id="folder-cover" d="M 3,16.75 C 1.5,16.75 1.5,18 1.5,18 v 25.75 c 0,2.25 0,2 3,2 h 39 c 3,0 3,0.25 3,-2 V 18 c 0,0 0,-1.25 -1.5,-1.25 z" />
	</g>
	
	<rect class="folder-contents" x="3" y="14.5" width="42" height="2.25" />

	<g class="folder-icon" transform="translate(12 19)">
		<path d="M18 10.031v-6.423l-6.036-3.608-5.964 3.569v6.499l-6 3.224v7.216l6.136 3.492 5.864-3.393 5.864 3.393 6.136-3.492v-7.177l-6-3.3zm-1.143.036l-4.321 2.384v-4.956l4.321-2.539v5.111zm-4.895-8.71l4.272 2.596-4.268 2.509-4.176-2.554 4.172-2.551zm-10.172 12.274l4.778-2.53 4.237 2.417-4.668 2.667-4.347-2.554zm4.917 3.587l4.722-2.697v5.056l-4.722 2.757v-5.116zm6.512-3.746l4.247-2.39 4.769 2.594-4.367 2.509-4.649-2.713zm9.638 6.323l-4.421 2.539v-5.116l4.421-2.538v5.115z" />
	</g>
</svg>