<svg 
	id="fonts-full-icon" 
	xmlns:svg="http://www.w3.org/2000/svg" 
	xmlns="http://www.w3.org/2000/svg" 
	viewBox="0 16 48 24">

	<style>
		.folder-top {
			fill: tan;
		}
		.folder-body {
			fill: wheat;
		}
		.folder-contents {
			fill: white;
		}
		.folder-icon {
			fill: burlywood;
		}
	</style>

	<g class="folder-top" transform="translate(0 1.5)">
		<path d="M 43.5,11.5 H 21 L 16.5,7 h -12 c -3,0 -3,0 -3,3 v 8 h 45 v -3.5 c 0,0 0,-3 -3,-3 z" />
	</g>

	<g class="folder-body">
		<path id="folder-cover" d="M 3,16.75 C 1.5,16.75 1.5,18 1.5,18 v 25.75 c 0,2.25 0,2 3,2 h 39 c 3,0 3,0.25 3,-2 V 18 c 0,0 0,-1.25 -1.5,-1.25 z" />
	</g>
	
	<rect class="folder-contents" x="3" y="14.5" width="42" height="2.25" />

	<g class="folder-icon" transform="translate(12 19)">
		<path d="M24 20v1h-4v-1h.835c.258 0 .405-.178.321-.422l-.473-1.371h-2.231l-.575-1.59h2.295l-1.362-4.077-1.154 3.451-.879-2.498.921-2.493h2.222l3.033 8.516c.111.315.244.484.578.484h.469zm-6-1h1v2h-7v-2h.532c.459 0 .782-.453.633-.887l-.816-2.113h-6.232l-.815 2.113c-.149.434.174.887.633.887h1.065v2h-7v-2h.43c.593 0 1.123-.375 1.32-.935l5.507-15.065h3.952l5.507 15.065c.197.56.69.935 1.284.935zm-10.886-6h4.238l-2.259-6.199-1.979 6.199z" />
	</g>
</svg>