<svg 
	id="git-full-icon" 
	xmlns:svg="http://www.w3.org/2000/svg" 
	xmlns="http://www.w3.org/2000/svg" 
	viewBox="0 16 48 24">
	
	<style>
		.folder-top {
			fill: tan;
		}
		.folder-body {
			fill: wheat;
		}
		.folder-contents {
			fill: white;
		}
		.folder-icon {
			fill: burlywood;
		}
	</style>

	<g class="folder-top" transform="translate(0 1.5)">
		<path d="M 43.5,11.5 H 21 L 16.5,7 h -12 c -3,0 -3,0 -3,3 v 8 h 45 v -3.5 c 0,0 0,-3 -3,-3 z" />
	</g>

	<g class="folder-body">
		<path id="folder-cover" d="M 3,16.75 C 1.5,16.75 1.5,18 1.5,18 v 25.75 c 0,2.25 0,2 3,2 h 39 c 3,0 3,0.25 3,-2 V 18 c 0,0 0,-1.25 -1.5,-1.25 z" />
	</g>
	
	<rect class="folder-contents" x="3" y="14.5" width="42" height="2.25" />

	<g class="folder-icon" transform="translate(12 19)">
		<path d="M23.548 10.931l-10.479-10.478c-.302-.302-.698-.453-1.093-.453-.396 0-.791.151-1.093.453l-2.176 2.176 2.76 2.76c.642-.216 1.377-.071 1.889.44.513.515.658 1.256.435 1.9l2.66 2.66c.644-.222 1.387-.078 1.901.437.718.718.718 1.881 0 2.6-.719.719-1.883.719-2.602 0-.54-.541-.674-1.334-.4-2l-2.481-2.481v6.529c.175.087.34.202.487.348.717.717.717 1.881 0 2.601-.719.718-1.884.718-2.601 0-.719-.72-.719-1.884 0-2.601.177-.178.383-.312.602-.402v-6.589c-.219-.089-.425-.223-.602-.401-.544-.544-.676-1.343-.396-2.011l-2.721-2.721-7.185 7.185c-.302.302-.453.697-.453 1.093 0 .395.151.791.453 1.093l10.479 10.478c.302.302.697.452 1.092.452.396 0 .791-.15 1.093-.452l10.431-10.428c.302-.303.452-.699.452-1.094 0-.396-.15-.791-.452-1.093" />
	</g>
</svg>