<svg 
	id="github-empty-icon" 
	xmlns:svg="http://www.w3.org/2000/svg" 
	xmlns="http://www.w3.org/2000/svg" 
	viewBox="0 16 48 24">
	
	<style>
		.folder-top {
			fill: tan;
		}
		.folder-body {
			fill: wheat;
		}
		.folder-icon {
			fill: burlywood;
		}
	</style>

	<g class="folder-top" transform="translate(0 1.5)">
		<path d="M 43.5,11.5 H 21 L 16.5,7 h -12 c -3,0 -3,0 -3,3 v 8 h 45 v -3.5 c 0,0 0,-3 -3,-3 z" />
	</g>

	<g class="folder-body">
		<path id="folder-cover" d="M 3,16.75 C 1.5,16.75 1.5,18 1.5,18 v 25.75 c 0,2.25 0,2 3,2 h 39 c 3,0 3,0.25 3,-2 V 18 c 0,0 0,-1.25 -1.5,-1.25 z" />
	</g>
	
	<g class="folder-icon" transform="translate(15, 39), scale(.0125, -0.0125)">
		<path d="M768 1408q209 0 385.5 -103t279.5 -279.5t103 -385.5q0 -251 -146.5 -451.5t-378.5 -277.5q-27 -5 -40 7t-13 30q0 3 0.5 76.5t0.5 134.5q0 97 -52 142q57 6 102.5 18t94 39t81 66.5t53 105t20.5 150.5q0 119 -79 206q37 91 -8 204q-28 9 -81 -11t-92 -44l-38 -24 q-93 26 -192 26t-192 -26q-16 11 -42.5 27t-83.5 38.5t-85 13.5q-45 -113 -8 -204q-79 -87 -79 -206q0 -85 20.5 -150t52.5 -105t80.5 -67t94 -39t102.5 -18q-39 -36 -49 -103q-21 -10 -45 -15t-57 -5t-65.5 21.5t-55.5 62.5q-19 32 -48.5 52t-49.5 24l-20 3q-21 0 -29 -4.5 t-5 -11.5t9 -14t13 -12l7 -5q22 -10 43.5 -38t31.5 -51l10 -23q13 -38 44 -61.5t67 -30t69.5 -7t55.5 3.5l23 4q0 -38 0.5 -88.5t0.5 -54.5q0 -18 -13 -30t-40 -7q-232 77 -378.5 277.5t-146.5 451.5q0 209 103 385.5t279.5 279.5t385.5 103zM291 305q3 7 -7 12 q-10 3 -13 -2q-3 -7 7 -12q9 -6 13 2zM322 271q7 5 -2 16q-10 9 -16 3q-7 -5 2 -16q10 -10 16 -3zM352 226q9 7 0 19q-8 13 -17 6q-9 -5 0 -18t17 -7zM394 184q8 8 -4 19q-12 12 -20 3q-9 -8 4 -19q12 -12 20 -3zM451 159q3 11 -13 16q-15 4 -19 -7t13 -15q15 -6 19 6z M514 154q0 13 -17 11q-16 0 -16 -11q0 -13 17 -11q16 0 16 11zM572 164q-2 11 -18 9q-16 -3 -14 -15t18 -8t14 14z" />
	</g>
</svg>