<svg 
	id="graphics-empty-icon" 
	xmlns:svg="http://www.w3.org/2000/svg" 
	xmlns="http://www.w3.org/2000/svg" 
	viewBox="0 16 48 24">
	
	<style>
		.folder-top {
			fill: tan;
		}
		.folder-body {
			fill: wheat;
		}
		.folder-icon {
			fill: burlywood;
		}
	</style>

	<g class="folder-top" transform="translate(0 1.5)">
		<path d="M 43.5,11.5 H 21 L 16.5,7 h -12 c -3,0 -3,0 -3,3 v 8 h 45 v -3.5 c 0,0 0,-3 -3,-3 z" />
	</g>

	<g class="folder-body">
		<path id="folder-cover" d="M 3,16.75 C 1.5,16.75 1.5,18 1.5,18 v 25.75 c 0,2.25 0,2 3,2 h 39 c 3,0 3,0.25 3,-2 V 18 c 0,0 0,-1.25 -1.5,-1.25 z" />
	</g>
	
	<g class="folder-icon" transform="translate(12 19)">
		<path d="M22 4v16h-20v-16h20zm2-2h-24v20h24v-20zm-5 13.092v-6.184c.581-.207 1-.756 1-1.408 0-.828-.672-1.5-1.5-1.5-.652 0-1.201.419-1.408 1h-10.184c-.207-.581-.756-1-1.408-1-.828 0-1.5.672-1.5 1.5 0 .652.419 1.201 1 1.408v6.184c-.581.207-1 .756-1 1.408 0 .828.672 1.5 1.5 1.5.652 0 1.201-.419 1.408-1h10.184c.207.581.756 1 1.408 1 .828 0 1.5-.672 1.5-1.5 0-.652-.419-1.201-1-1.408zm-1.908.908h-10.184c-.15-.424-.484-.757-.908-.908v-6.184c.424-.151.757-.484.908-.908h10.184c.151.424.484.757.908.908v6.184c-.424.151-.758.484-.908.908zm-9.092-6c0-.552.448-1 1-1s1 .448 1 1-.448 1-1 1-1-.448-1-1zm8 5l-2.75-5-1.891 2.984-1.359-1.312-2 3.328h8z" />
	</g>
</svg>