<svg 
	id="music-empty-icon" 
	xmlns:svg="http://www.w3.org/2000/svg" 
	xmlns="http://www.w3.org/2000/svg" 
	viewBox="0 16 48 24">
	
	<style>
		.folder-top {
			fill: tan;
		}
		.folder-body {
			fill: wheat;
		}
		.folder-icon {
			fill: burlywood;
		}
	</style>

	<g class="folder-top" transform="translate(0 1.5)">
		<path d="M 43.5,11.5 H 21 L 16.5,7 h -12 c -3,0 -3,0 -3,3 v 8 h 45 v -3.5 c 0,0 0,-3 -3,-3 z" />
	</g>

	<g class="folder-body">
		<path id="folder-cover" d="M 3,16.75 C 1.5,16.75 1.5,18 1.5,18 v 25.75 c 0,2.25 0,2 3,2 h 39 c 3,0 3,0.25 3,-2 V 18 c 0,0 0,-1.25 -1.5,-1.25 z" />
	</g>

	<g class="folder-icon" transform="translate(12 19)">
		<path d="M23 0l-15.996 3.585v13.04c-2.979-.589-6.004 1.671-6.004 4.154 0 2.137 1.671 3.221 3.485 3.221 2.155 0 4.512-1.528 4.515-4.638v-10.9l12-2.459v8.624c-2.975-.587-6 1.664-6 4.141 0 2.143 1.715 3.232 3.521 3.232 2.14 0 4.476-1.526 4.479-4.636v-17.364z" />
	</g>
</svg>