<svg 
	id="notes-empty-icon" 
	xmlns:svg="http://www.w3.org/2000/svg" 
	xmlns="http://www.w3.org/2000/svg" 
	viewBox="0 16 48 24">
	
	<style>
		.folder-top {
			fill: tan;
		}
		.folder-body {
			fill: wheat;
		}
		.folder-icon {
			fill: burlywood;
		}
	</style>

	<g class="folder-top" transform="translate(0 1.5)">
		<path d="M 43.5,11.5 H 21 L 16.5,7 h -12 c -3,0 -3,0 -3,3 v 8 h 45 v -3.5 c 0,0 0,-3 -3,-3 z" />
	</g>

	<g class="folder-body">
		<path id="folder-cover" d="M 3,16.75 C 1.5,16.75 1.5,18 1.5,18 v 25.75 c 0,2.25 0,2 3,2 h 39 c 3,0 3,0.25 3,-2 V 18 c 0,0 0,-1.25 -1.5,-1.25 z" />
	</g>
	
	<g class="folder-icon" transform="translate(12 19)">
		<path d="M7 15h5v1h-5v-1zm0 4h5v-1h-5v1zm0-6h10v-1h-10v1zm15-11v12.386c0 2.391-6.648 9.614-9.811 9.614h-10.189v-22h3v1c0 1.103.897 2 2 2s2-.897 2-2v-1h6v1c0 1.103.897 2 2 2s2-.897 2-2v-1h3zm-2 7h-16v13h7.362c4.156 0 2.638-6 2.638-6s6 1.65 6-2.457v-4.543zm-12-8c0-.552-.447-1-1-1s-1 .448-1 1v2c0 .552.447 1 1 1s1-.448 1-1v-2zm10 0c0-.552-.447-1-1-1s-1 .448-1 1v2c0 .552.447 1 1 1s1-.448 1-1v-2z" />
	</g>
</svg>