<svg 
	id="sounds-full-icon" 
	xmlns:svg="http://www.w3.org/2000/svg" 
	xmlns="http://www.w3.org/2000/svg" 
	viewBox="0 16 48 24">
	
	<style>
		.folder-top {
			fill: tan;
		}
		.folder-body {
			fill: wheat;
		}
		.folder-contents {
			fill: white;
		}
		.folder-icon {
			fill: burlywood;
		}
	</style>

	<g class="folder-top" transform="translate(0 1.5)">
		<path d="M 43.5,11.5 H 21 L 16.5,7 h -12 c -3,0 -3,0 -3,3 v 8 h 45 v -3.5 c 0,0 0,-3 -3,-3 z" />
	</g>

	<g class="folder-body">
		<path id="folder-cover" d="M 3,16.75 C 1.5,16.75 1.5,18 1.5,18 v 25.75 c 0,2.25 0,2 3,2 h 39 c 3,0 3,0.25 3,-2 V 18 c 0,0 0,-1.25 -1.5,-1.25 z" />
	</g>
	
	<rect class="folder-contents" x="3" y="14.5" width="42" height="2.25" />

	<g class="folder-icon" transform="translate(12 19)">
		<path d="M3.732 13h1.504s2.32-8.403 2.799-10.263c.156-.605.646-.738.965-.737.319.001.826.224.947.74.581 2.466 3.11 13.908 3.11 13.908s1.597-6.441 1.943-7.891c.101-.425.536-.757 1-.757.464 0 .865.343 1 .707.312.841 1.675 4.287 1.677 4.293h1.591c.346-.598.992-1 1.732-1 1.104 0 2 .896 2 2s-.896 2-2 2c-.741 0-1.388-.404-1.734-1.003-.939-.001-1.856 0-2.266.003-.503.004-.774-.289-.928-.629l-.852-2.128s-1.828 7.367-2.25 8.999c-.153.595-.646.762-.97.758-.324-.004-.847-.198-.976-.783-.549-2.487-2.081-9.369-3.123-14.053 0 0-1.555 5.764-1.936 7.099-.13.454-.431.731-.965.737h-2.268c-.346.598-.992 1-1.732 1-1.104 0-2-.896-2-2s.896-2 2-2c.74 0 1.386.402 1.732 1z" />
	</g>
</svg>