<svg 
	id="trash-empty-icon" 
	xmlns:svg="http://www.w3.org/2000/svg" 
	xmlns="http://www.w3.org/2000/svg" 
	viewBox="10 -2 40 60">
	
	<style>
		.trash-body {
			fill: silver;
			stroke: none;
		}
		.trash-top {
			fill: none;
			stroke: darkgrey;
			stroke-width: 2;
			stroke-linecap: square;
			stroke-linejoin: round;
		}
		.trash-handle {
			fill: none;
			stroke: silver;
			stroke-width: 2;
			stroke-miterlimit: 10;
		}
		.trash-lid {
			fill: silver;
			stroke: none;
		}
		.trash-groove {
			fill: none;
			stroke: darkgrey;
			stroke-width: 2;
			stroke-linecap: round;
			stroke-linejoin: round;
			stroke-miterlimit: 10;
		}
	</style>

	<path class="trash-body" d="m 12.5,12.5 1.52065,36.55 c 0,0 0.07225,3.4 3.3218,3.4 l 11.57445,0 0.05015,0 12.4066,0 c 3.24955,0 3.3218,-3.4 3.3218,-3.4 l 1.52065,-36.55 -33.7161,0 z" />

	<line class="trash-top" x1="13" y1="13" x2="45.5" y2="13" />

	<path class="trash-handle" d="m 35.8,8.5 c 0,0 0.1326,-5.1 -3.4,-5.1 l -4.30185,0 0.1037,0 -4.301,0 c -3.5326,0 -3.4,5.1 -3.4,5.1" />

	<path class="trash-lid" d="m 11 12.5 l 36.5 0 l 0 -4 l -36.5 0 z" />

	<line class="trash-groove" x1="17" y1="16" x2="17" y2="48" />
	<line class="trash-groove" x1="20" y1="16" x2="20" y2="48" />
	<line class="trash-groove" x1="23" y1="16" x2="23" y2="48" />
	<line class="trash-groove" x1="26" y1="16" x2="26" y2="48" />
	<line class="trash-groove" x1="29" y1="16" x2="29" y2="48" />
	<line class="trash-groove" x1="32" y1="16" x2="32" y2="48" />
	<line class="trash-groove" x1="35" y1="16" x2="35" y2="48" />
	<line class="trash-groove" x1="38" y1="16" x2="38" y2="48" />
	<line class="trash-groove" x1="41" y1="16" x2="41" y2="48" />
</svg>