<svg 
	id="trash-full-icon" 
	xmlns:svg="http://www.w3.org/2000/svg" 
	xmlns="http://www.w3.org/2000/svg" 
	viewBox="10 -2 40 60">
	
	<style>
		.trash-body {
			fill: silver;
		}
		.trash-groove {
			fill: none;
			stroke: darkgrey;
			stroke-width: 2;
			stroke-linecap: round;
			stroke-linejoin: round;
			stroke-miterlimit: 10;
		}
		.trash-paper1 {
			fill: #e9e9e0;
		}
		.trash-paper2 {
			fill: #e9e9e0;
		}
		.trash-paper3 {
			fill: #d9d7ca;
		}
		.trash-top {
			fill: none;
			stroke: darkgrey;
			stroke-width: 2;
			stroke-linecap: square;
			stroke-linejoin: round;
		}
	</style>

	<path class="trash-body" d="m 12.5,12.5 1.52065,36.55 c 0,0 0.07225,3.4 3.3218,3.4 l 11.57445,0 0.05015,0 12.4066,0 c 3.24955,0 3.3218,-3.4 3.3218,-3.4 l 1.52065,-36.55 -33.7161,0 z" />

	<line class="trash-groove" x1="17" y1="16" x2="17" y2="48" />
	<line class="trash-groove" x1="20" y1="16" x2="20" y2="48" />
	<line class="trash-groove" x1="23" y1="16" x2="23" y2="48" />
	<line class="trash-groove" x1="26" y1="16" x2="26" y2="48" />
	<line class="trash-groove" x1="29" y1="16" x2="29" y2="48" />
	<line class="trash-groove" x1="32" y1="16" x2="32" y2="48" />
	<line class="trash-groove" x1="35" y1="16" x2="35" y2="48" />
	<line class="trash-groove" x1="38" y1="16" x2="38" y2="48" />
	<line class="trash-groove" x1="41" y1="16" x2="41" y2="48" />

	<g class="trash-papers" transform="matrix(0.1,0,0, 0.1,3.8,1)">
		<polygon class="trash-paper1" points="83.823,110 238.121,110 228.781,52.966 79.542,81.682" />
		<polygon class="trash-paper2" points="298.34,110 416.338,110 423.727,64.044 308.968,45.647" />
		<polygon class="trash-paper3" points="228.785,52.966 238.124,110 298.337,110 308.966,45.647 349.775,52.189 344.276,0 167.23,15.069 172.42,63.815" />
	</g>

	<line class="trash-top" x1="13" y1="13" x2="45.5" y2="13" />
</svg>