<svg 
	id="twitter-empty-icon" 
	xmlns:svg="http://www.w3.org/2000/svg" 
	xmlns="http://www.w3.org/2000/svg" 
	viewBox="0 16 48 24">
	
	<style>
		.folder-top {
			fill: tan;
		}
		.folder-body {
			fill: wheat;
		}
		.folder-icon {
			fill: burlywood;
		}
	</style>

	<g class="folder-top" transform="translate(0 1.5)">
		<path d="M 43.5,11.5 H 21 L 16.5,7 h -12 c -3,0 -3,0 -3,3 v 8 h 45 v -3.5 c 0,0 0,-3 -3,-3 z" />
	</g>

	<g class="folder-body">
		<path id="folder-cover" d="M 3,16.75 C 1.5,16.75 1.5,18 1.5,18 v 25.75 c 0,2.25 0,2 3,2 h 39 c 3,0 3,0.25 3,-2 V 18 c 0,0 0,-1.25 -1.5,-1.25 z" />
	</g>
	
	<g class="folder-icon" transform="translate(14.5, 39), scale(.0125, -0.0125)">
		<path d="M1280 926q-56 -25 -121 -34q68 40 93 117q-65 -38 -134 -51q-61 66 -153 66q-87 0 -148.5 -61.5t-61.5 -148.5q0 -29 5 -48q-129 7 -242 65t-192 155q-29 -50 -29 -106q0 -114 91 -175q-47 1 -100 26v-2q0 -75 50 -133.5t123 -72.5q-29 -8 -51 -8q-13 0 -39 4 q21 -63 74.5 -104t121.5 -42q-116 -90 -261 -90q-26 0 -50 3q148 -94 322 -94q112 0 210 35.5t168 95t120.5 137t75 162t24.5 168.5q0 18 -1 27q63 45 105 109zM1536 1120v-960q0 -119 -84.5 -203.5t-203.5 -84.5h-960q-119 0 -203.5 84.5t-84.5 203.5v960q0 119 84.5 203.5 t203.5 84.5h960q119 0 203.5 -84.5t84.5 -203.5z" />
	</g>
</svg>