<svg 
	id="folder-full-icon" 
	xmlns:svg="http://www.w3.org/2000/svg" 
	xmlns="http://www.w3.org/2000/svg" 
	viewBox="0 16 48 24">
	
	<style>
		.folder-top {
			fill: tan;
		}
		.folder-body {
			fill: wheat;
		}
		.folder-contents {
			fill: white;
		}
		.folder-icon {
			fill: burlywood;
		}
	</style>

	<g class="folder-top" transform="translate(0 1.5)">
		<path d="M 43.5,11.5 H 21 L 16.5,7 h -12 c -3,0 -3,0 -3,3 v 8 h 45 v -3.5 c 0,0 0,-3 -3,-3 z" />
	</g>

	<g class="folder-body">
		<path id="folder-cover" d="M 3,16.75 C 1.5,16.75 1.5,18 1.5,18 v 25.75 c 0,2.25 0,2 3,2 h 39 c 3,0 3,0.25 3,-2 V 18 c 0,0 0,-1.25 -1.5,-1.25 z" />
	</g>
	
	<rect class="folder-contents" x="3" y="14.5" width="42" height="2.25" />

	<g class="folder-icon" transform="translate(12 19)">
		<path d="M8 10h-5l9-10 9 10h-5v10h-8v-10zm8 12h-8v2h8v-2z" />
	</g>
</svg>