<svg 
	id="volumes-full-icon" 
	xmlns:svg="http://www.w3.org/2000/svg" 
	xmlns="http://www.w3.org/2000/svg" 
	viewBox="0 16 48 24">
	
	<style>
		.folder-top {
			fill: tan;
		}
		.folder-body {
			fill: wheat;
		}
		.folder-contents {
			fill: white;
		}
		.folder-icon {
			fill: burlywood;
		}
	</style>

	<g class="folder-top" transform="translate(0 1.5)">
		<path d="M 43.5,11.5 H 21 L 16.5,7 h -12 c -3,0 -3,0 -3,3 v 8 h 45 v -3.5 c 0,0 0,-3 -3,-3 z" />
	</g>

	<g class="folder-body">
		<path id="folder-cover" d="M 3,16.75 C 1.5,16.75 1.5,18 1.5,18 v 25.75 c 0,2.25 0,2 3,2 h 39 c 3,0 3,0.25 3,-2 V 18 c 0,0 0,-1.25 -1.5,-1.25 z" />
	</g>
	
	<rect class="folder-contents" x="3" y="14.5" width="42" height="2.25" />

	<g class="folder-icon" transform="translate(12 19)">
		<path d="M22 18.055v2.458c0 1.925-4.655 3.487-10 3.487-5.344 0-10-1.562-10-3.487v-2.458c2.418 1.738 7.005 2.256 10 2.256 3.006 0 7.588-.523 10-2.256zm-10-3.409c-3.006 0-7.588-.523-10-2.256v2.434c0 1.926 4.656 3.487 10 3.487 5.345 0 10-1.562 10-3.487v-2.434c-2.418 1.738-7.005 2.256-10 2.256zm0-14.646c-5.344 0-10 1.562-10 3.488s4.656 3.487 10 3.487c5.345 0 10-1.562 10-3.487 0-1.926-4.655-3.488-10-3.488zm0 8.975c-3.006 0-7.588-.523-10-2.256v2.44c0 1.926 4.656 3.487 10 3.487 5.345 0 10-1.562 10-3.487v-2.44c-2.418 1.738-7.005 2.256-10 2.256z" />
	</g>
</svg>