<svg
   xmlns:svg="http://www.w3.org/2000/svg"
   xmlns="http://www.w3.org/2000/svg"
   width="512"
   height="512"
   viewBox="-10 -10 180 180">
  <g
     transform="translate(0,-608)" id="layer1">
    <g
       transform="matrix(3.1743367,0,0,-3.1743367,-182.87866,897.39256)"
       id="g4103">
      <g
         transform="translate(59.999405,65.963699)"
         id="g3255">
        <path
           d="m 0,0 c 0,-13.234 10.73,-23.964 23.964,-23.964 3.485,0 6.798,0.745 9.784,2.082 -12.259,3.431 -29.196,11.247 -27.255,26.811 1.278,10.254 14.404,16.898 27.568,16.812 -3.07,1.427 -6.49,2.224 -10.097,2.224 C 10.73,23.965 0,13.235 0,0"
           id="path3257"
           style="fill:#f58113;fill-opacity:1;fill-rule:nonzero;stroke:none" />
      </g>
      <g
         transform="translate(75.465897,75.145493)"
         id="g3259">
        <path
           d="m 0,0 c -1.208,-11.173 14.289,-17.59 23.65,-20.254 1.807,-0.514 3.787,-0.838 5.527,-1.044 2.088,3.555 3.286,7.697 3.286,12.116 0,8.485 -4.411,15.942 -11.065,20.2 l 0,-0.001 C 20.584,11.07 19.779,11.096 18.985,11.096 8.976,11.096 0.752,6.937 0,0"
           id="path3261"
           style="fill:#f58113;fill-opacity:1;fill-rule:nonzero;stroke:none" />
      </g>
    </g>
  </g>
</svg>