<svg xmlns="http://www.w3.org/2000/svg" width="512" height="512" viewBox="0 0 150 70">
  <defs>
    <style>
      .cls-1 {
        fill: #fff;
      }

      .cls-2 {
        fill: #ffcd00;
      }

      .cls-3 {
        fill: #bcbec0;
      }
    </style>
  </defs>
  <g>
    <path class="cls-1" d="M161.32,0h34.85V7.22h-23.69v10.53h22.18v7.22h-22.18v11.93h24.48v7.34h-35.64V0Z"/>
    <path class="cls-1" d="M225.11,.06h10.73V39.23c0,1.84,.14,3.86,.29,5.02h-10.8l-.29-4.47c-.72,1.1-1.44,2.26-3.67,3.49-2.66,1.47-5.47,1.59-7.06,1.59-9.72,0-15.48-5.69-15.48-15.36,0-10.22,6.55-16.59,16.06-16.59,6.55,0,9.29,3.12,10.23,4.22V.06Zm-8.14,38.92c3.1,0,5.62-1.59,6.77-3.49,1.58-2.57,1.73-5.75,1.73-7.28,0-6.06-3.1-9.36-7.92-9.36-7.13,0-7.92,7.28-7.92,10.4,0,5.14,2.02,9.73,7.35,9.73Z"/>
    <path class="cls-1" d="M241.67,19.16c0-1.96-.14-3.86-.36-5.81h10.3l.36,3.98c1.15-1.35,3.96-4.65,11.23-4.65,8.35,0,10.73,4.35,11.45,5.81,3.03-4.96,7.92-5.75,11.67-5.75,7.34,0,10.3,3.73,11.09,4.96,1.95,2.69,1.8,6.43,1.8,9.12v17.44h-10.73V26.07c0-3.3-.58-6.98-6.12-6.98-6.41,0-6.55,5.08-6.55,9.67v15.48h-10.73V25.89c0-2.39-.07-6.79-5.98-6.79-6.7,0-6.7,4.9-6.7,6.98v18.18h-10.73V19.16Z"/>
    <path class="cls-1" d="M316.26,13.34V31.76c0,2.69,0,6.79,5.69,6.79,6.84,0,6.84-4.35,6.84-9.61V13.34h10.95v20.38c.14,6.67,.22,7.47,.22,8.26,.07,.86,.14,1.41,.29,2.26h-10.37l-.36-4.1c-1.08,1.35-3.82,4.9-10.73,4.9-4.9,0-8.93-1.9-10.95-4.16-2.38-2.51-2.38-6.79-2.38-8.32V13.34h10.8Z"/>
    <path class="cls-1" d="M346.36,18.85c0-.12,0-3.49-.22-5.63h10.22l.29,4.65c1.01-1.41,3.89-5.39,11.81-5.39,7.13,0,10.15,3.67,11.09,5.81,.79,1.9,1.01,3.49,1.01,9.24v16.71h-10.87V25.03c0-1.29,0-2.39-.58-3.37-.79-1.35-2.45-2.63-5.19-2.63-2.3,0-4.39,.92-5.54,2.39-.65,.8-1.3,2.33-1.3,4.71v18.12h-10.73V18.85Z"/>
    <path class="cls-1" d="M410.65,.06h10.73V44.25h-10.51l-.29-4.47c-.72,1.1-1.44,2.26-3.67,3.49-2.66,1.47-5.47,1.59-7.06,1.59-9.72,0-15.48-5.69-15.48-15.36,0-10.22,6.55-16.59,16.06-16.59,6.55,0,9.29,3.12,10.22,4.22V.06Zm-8.14,38.92c3.1,0,5.62-1.59,6.77-3.49,1.58-2.57,1.73-5.75,1.73-7.28,0-6.06-3.1-9.36-7.92-9.36-7.13,0-7.92,7.28-7.92,10.4,0,5.14,2.02,9.73,7.34,9.73Z"/>
  </g>
  <g>
    <path class="cls-1" d="M169.28,64.57c-7.16,0-7.96-1.5-7.96-3.25v-2.73c0-1.78,.8-3.25,7.96-3.25s7.96,1.48,7.96,3.25v2.73c0,1.76-.8,3.25-7.96,3.25Zm3.71-5.69c0-1.16-.33-1.89-3.71-1.89s-3.74,.73-3.74,1.89v2.13c0,1.16,.36,1.89,3.74,1.89s3.71-.73,3.71-1.89v-2.13Z"/>
    <path class="cls-1" d="M197.67,61.33c0,1.85-1.1,3.24-6.41,3.24-2.82,0-4.51-.47-5.26-1.22v4.56h-4.25v-12.48h3.83l.3,1.1c.74-.75,2.58-1.22,5.37-1.22,5.31,0,6.41,1.38,6.41,3.24v2.77Zm-7.45-4.27c-3.03,0-4.22,.58-4.22,2.32v1.14c0,1.74,1.19,2.3,4.22,2.3,2.46,0,3.21-.49,3.21-1.78v-2.21c0-1.29-.74-1.78-3.21-1.78Z"/>
    <path class="cls-1" d="M209.61,64.57c-4.81,0-6.62-.88-6.62-2.96v-4.4h-2.05v-1.78h2.05v-2.19h4.25v2.19h6.32v1.78h-6.3v4.21c0,1.03,.92,1.37,3.41,1.37,1.07,0,1.75-.02,2.82-.09v1.63c-.98,.15-2.29,.24-3.89,.24Z"/>
    <path class="cls-1" d="M217.92,54.22v-2.25h4.25v2.25h-4.25Zm0,10.23v-9.02h4.25v9.02h-4.25Z"/>
    <path class="cls-1" d="M234.73,64.57c-7.16,0-7.96-1.5-7.96-3.25v-2.73c0-1.78,.8-3.25,7.96-3.25s7.96,1.48,7.96,3.25v.36h-4.25v-.06c0-1.16-.33-1.89-3.71-1.89s-3.74,.73-3.74,1.89v2.13c0,1.16,.36,1.89,3.74,1.89s3.71-.73,3.71-1.89v-.13h4.25v.43c0,1.76-.8,3.25-7.96,3.25Z"/>
    <path class="cls-1" d="M262.74,61.76c0,1.96-2.26,2.82-8.02,2.82-6.44,0-7.78-.94-7.78-2.54v-.24h4.22v.06c0,.69,.59,1.07,3.56,1.07,3.3,0,3.8-.39,3.8-1.1,0-.58-.5-.82-1.57-.86l-5.14-.21c-3.71-.15-4.87-1.09-4.87-2.6,0-1.95,2.29-2.81,8.02-2.81,6.29,0,7.6,.92,7.6,2.54v.24h-4.25v-.06c0-.69-.48-1.07-3.36-1.07-3.3,0-3.77,.39-3.77,1.1,0,.56,.5,.8,1.54,.86l5.17,.21c3.86,.15,4.84,.92,4.84,2.58Z"/>
  </g>
  <g>
    <path class="cls-1" d="M296.7,55.44v5.89c0,1.23,.39,2.09,2.98,2.09s2.99-.86,2.99-2.09v-5.89h1.95v6.1c0,1.7-.8,3.03-4.93,3.03-2.02,0-3.27-.64-3.95-1.25-.67,.62-1.92,1.25-3.95,1.25-4.13,0-4.93-1.33-4.93-3.03v-6.1h1.95v5.89c0,1.23,.44,2.09,2.98,2.09s2.99-.86,2.99-2.09v-5.89h1.92Z"/>
    <path class="cls-1" d="M315.39,64.57c-5.19,0-5.81-1.33-5.81-3.03v-3.18c0-1.7,.62-3.03,5.81-3.03s5.79,1.33,5.79,3.03v3.18c0,1.7-.62,3.03-5.79,3.03Zm3.84-6.02c0-1.25-.23-2.11-3.84-2.11s-3.87,.86-3.87,2.11v2.81c0,1.25,.26,2.11,3.87,2.11s3.84-.86,3.84-2.11v-2.81Z"/>
    <path class="cls-1" d="M331.87,56.47c-2.67,0-3.66,.66-3.66,2.26v5.72h-1.95v-9.02h1.66l.26,1.05c.57-.69,1.84-1.16,4.02-1.16,1.04,0,1.84,.09,2.44,.26v1.2c-.83-.22-1.74-.32-2.78-.32Z"/>
    <path class="cls-1" d="M339.43,64.45v-12.48h1.97v12.48h-1.97Z"/>
    <path class="cls-1" d="M346.57,58.47c0-1.78,.73-3.14,5.32-3.14,2.23,0,3.5,.47,4.08,1.16v-4.51h1.95v12.48h-1.66l-.29-1.05c-.44,.56-1.61,1.16-4.08,1.16-4.59,0-5.32-1.37-5.32-3.14v-2.96Zm5.66,4.9c3.37,0,3.74-.75,3.74-2.21v-2.43c0-1.46-.36-2.21-3.74-2.21s-3.71,.75-3.71,2.21v2.43c0,1.46,.34,2.21,3.71,2.21Z"/>
    <path class="cls-1" d="M372.97,55.44v5.89c0,1.23,.39,2.09,2.99,2.09s2.98-.86,2.98-2.09v-5.89h1.95v6.1c0,1.7-.8,3.03-4.93,3.03-2.02,0-3.27-.64-3.95-1.25-.67,.62-1.92,1.25-3.95,1.25-4.13,0-4.93-1.33-4.93-3.03v-6.1h1.95v5.89c0,1.23,.44,2.09,2.98,2.09s2.99-.86,2.99-2.09v-5.89h1.92Z"/>
    <path class="cls-1" d="M386.18,54.18v-1.4h1.95v1.4h-1.95Zm0,10.27v-9.02h1.95v9.02h-1.95Z"/>
    <path class="cls-1" d="M393.3,58.47c0-1.78,.73-3.14,5.32-3.14,2.23,0,3.5,.47,4.08,1.16v-4.51h1.95v12.48h-1.66l-.29-1.05c-.44,.56-1.61,1.16-4.08,1.16-4.59,0-5.32-1.37-5.32-3.14v-2.96Zm5.66,4.9c3.37,0,3.74-.75,3.74-2.21v-2.43c0-1.46-.36-2.21-3.74-2.21s-3.71,.75-3.71,2.21v2.43c0,1.46,.34,2.21,3.71,2.21Z"/>
    <path class="cls-1" d="M415.54,64.57c-5.14,0-5.81-1.33-5.81-3.03v-3.16c0-1.7,.67-3.05,5.81-3.05s5.79,1.35,5.79,3.05v1.93h-9.66v1.05c0,1.25,.31,2.11,3.87,2.11s3.82-.84,3.84-1.83h1.95c0,1.57-.65,2.94-5.79,2.94Zm0-8.14c-3.56,0-3.87,.88-3.87,2.13v.62h7.71v-.62c0-1.25-.29-2.13-3.84-2.13Z"/>
  </g>
  <rect class="cls-3" x="273.71" y="52.83" width="2" height="14"/>
  <g>
    <path class="cls-2" d="M139.75,6.02c-.69,.69-1.52,1.04-2.5,1.04s-1.81-.35-2.49-1.04c-.68-.69-1.02-1.52-1.02-2.5s.34-1.8,1.03-2.49c.69-.68,1.51-1.03,2.48-1.03s1.81,.34,2.5,1.03c.69,.69,1.03,1.52,1.03,2.49s-.34,1.81-1.03,2.5Zm-4.64-4.65c-.59,.59-.88,1.31-.88,2.15s.29,1.57,.88,2.16c.59,.6,1.31,.89,2.15,.89s1.56-.3,2.15-.89c.59-.6,.88-1.32,.88-2.16s-.3-1.55-.88-2.15c-.59-.6-1.31-.89-2.15-.89s-1.55,.3-2.14,.89Zm2.08,.2c.48,0,.83,.05,1.06,.14,.4,.17,.6,.49,.6,.98,0,.35-.13,.6-.38,.77-.13,.08-.32,.15-.56,.19,.3,.05,.52,.17,.66,.38,.14,.21,.21,.41,.21,.6v.28c0,.09,0,.19,0,.29,0,.1,.02,.17,.03,.2l.02,.05h-.64s0-.03,0-.04c0-.01,0-.03,0-.04v-.12s-.01-.31-.01-.31c0-.45-.12-.74-.36-.89-.14-.08-.4-.12-.76-.12h-.54v1.52h-.68V1.57h1.35Zm.74,.61c-.17-.09-.45-.14-.83-.14h-.58v1.4h.62c.29,0,.51-.03,.65-.08,.27-.11,.4-.31,.4-.61,0-.28-.09-.47-.26-.57Z"/>
    <path class="cls-2" d="M64.62,30.38H30.36v28.88h3.77v-25.12l30.45-.02v14.74c0,8.59-6.96,15.55-15.55,15.55H15.55c-8.59,0-15.55-6.96-15.55-15.55V15.56C0,6.97,6.96,0,15.55,0H49.03c8.59,0,15.55,6.97,15.55,15.56l.04,14.82Zm-30.67-4.6V4h-3.77V25.78h3.77Z"/>
    <path class="cls-2" d="M69.06,15.56c0-8.59,6.96-15.56,15.55-15.56h33.47c8.59,0,15.55,6.97,15.55,15.56V48.86c0,8.59-6.96,15.55-15.55,15.55h-33.47c-8.59,0-15.55-6.96-15.55-15.55V15.56ZM103.31,4.11h-3.88V59.05h3.88V4.11Z"/>
  </g>
</svg>