<svg clip-rule="evenodd" fill-rule="evenodd" image-rendering="optimizeQuality" shape-rendering="geometricPrecision" text-rendering="geometricPrecision" viewBox="0 0 1800 1800" width="512" height="512" xmlns="http://www.w3.org/2000/svg">
	<linearGradient id="b" gradientUnits="userSpaceOnUse" x1="689.61" x2="1200.91" y1="422.26" y2="1577.28"><stop offset="0" stop-color="#fff"/><stop offset=".522" stop-color="#fff"/><stop offset="1" stop-color="#8a878d"/></linearGradient><radialGradient id="a" cx="433.92" cy="351.48" gradientTransform="matrix(1.60663 1.46382 1.54328 -1.65061 -806 296)" gradientUnits="userSpaceOnUse" r="250.9"><stop offset="0" stop-color="#fff"/><stop offset=".22" stop-color="#7f8fa2"/><stop offset="1" stop-color="#001f46"/></radialGradient><path d="M1762.68 878.36c0-477.01-391.31-863.72-874.02-863.72-482.72 0-874.02 386.71-874.02 863.72s391.3 863.75 874.02 863.75c482.71 0 874.02-386.74 874.02-863.75z" fill="#fff" fill-rule="nonzero"/><path d="M1748.04 878.36c0-234.47-96.15-446.73-251.59-600.34-155.51-153.67-370.4-248.74-607.79-248.74s-452.28 95.07-607.79 248.74C125.43 431.63 29.28 643.89 29.28 878.36s96.15 446.75 251.59 600.36c155.51 153.67 370.41 248.75 607.79 248.75s452.28-95.07 607.79-248.76c155.44-153.61 251.59-365.89 251.59-600.35zm-231.12-621.15c160.89 158.98 260.4 378.61 260.4 621.15s-99.52 462.17-260.4 621.16c-160.81 158.91-382.94 257.23-628.26 257.23s-467.45-98.31-628.26-257.22C99.51 1340.53 0 1120.91 0 878.36 0 635.82 99.52 416.2 260.4 257.21 421.21 98.3 643.33 0 888.66 0c245.31 0 467.45 98.3 628.26 257.21z" fill="#001f46" fill-rule="nonzero"/><path d="M104.62 878.37c0 427.9 351.01 774.81 784.02 774.81 433.04 0 784.08-346.91 784.08-774.81 0-427.95-351.04-774.83-784.08-774.83-433.01 0-784.02 346.88-784.02 774.83z" fill="url(#a)"/><path d="M900.7 519.35c-5.99-100.19-12.06-200.97-12.06-200.97l-12.13 202.34L611.93 262.1l-27.77 25.96 70.14 362.4-371.07-73.63-26.3 27.43 264.04 261.1c-104.06 6.48-208.53 13.01-208.53 13.01l208.53 13.01-264.04 261.1 26.3 27.4 371.07-73.63-70.14 362.38 27.77 25.99L876.51 1236l12.13 202.33s6.06-101.04 12.08-201.53l263.69 257.75 27.77-25.99-70.15-362.4 371.1 73.63 26.3-27.43-263.89-260.94 209.33-13.04-209.95-13.08 265.35-262.39-26.3-27.43-371.07 73.63 70.12-362.37-27.77-25.99-264.56 258.62zm175.39-55.31l-54.07 282.91 291.19-54.64-136.58 133.56 30.86 36.44-179.44-11.18 252.73-141.51-314.14 119.83 49.68-75.07-74.48 47.64 119.77-307.51-147.54 248.33s-5.42-90.66-10.59-176.19L940.23 597l135.83-132.96zm-374.97 1.37l135.82 132.96 36.75-30.4-10.48 174.87-147.57-248.33 119.82 307.51-74.53-47.64 49.68 75.07-314.14-119.83 252.79 141.51s-92.21 5.73-178.39 11.1l29.66-34.97-136.58-133.58 291.22 54.64-54.06-282.91zM600.54 929.47l-29.66-35.02 178.39 11.12-252.79 141.49 314.14-119.83-49.68 75.1 74.53-47.67-119.82 307.51 147.57-248.3 10.48 174.85-36.75-30.38-135.82 132.97 54.06-282.91-291.22 54.63 136.58-133.56zm427.51-23.9l177.24-11.04-29.52 34.81 136.58 133.56-291.19-54.64 54.06 282.91-135.8-132.94-35.77 29.53c5.06-84.08 10.42-173.89 10.42-173.89l147.54 248.3-119.77-307.51 74.48 47.67-49.68-75.1 314.14 119.83z" fill="url(#b)"/></svg>