<?xml version="1.0" encoding="UTF-8" standalone="no"?>
<!-- Created with Inkscape (http://www.inkscape.org/) -->

<svg xmlns:dc="http://purl.org/dc/elements/1.1/" xmlns:cc="http://creativecommons.org/ns#" xmlns:rdf="http://www.w3.org/1999/02/22-rdf-syntax-ns#" xmlns:svg="http://www.w3.org/2000/svg" xmlns="http://www.w3.org/2000/svg" xmlns:sodipodi="http://sodipodi.sourceforge.net/DTD/sodipodi-0.dtd" xmlns:inkscape="http://www.inkscape.org/namespaces/inkscape" id="svg3120" version="1.1" inkscape:version="0.48.5 r10040" width="512" height="349" sodipodi:docname="Pepsi_Logo_1980s.svg">
  <metadata id="metadata3126">
    <rdf:RDF>
      <cc:Work rdf:about="">
        <dc:format>image/svg+xml</dc:format>
        <dc:type rdf:resource="http://purl.org/dc/dcmitype/StillImage" />
        <dc:title />
      </cc:Work>
    </rdf:RDF>
  </metadata>
  <defs id="defs3124" />
  <sodipodi:namedview pagecolor="#ffffff" bordercolor="#666666" borderopacity="1" objecttolerance="10" gridtolerance="10" guidetolerance="10" inkscape:pageopacity="0" inkscape:pageshadow="2" inkscape:window-width="1366" inkscape:window-height="706" id="namedview3122" showgrid="false" inkscape:zoom="0.7429882" inkscape:cx="70.750429" inkscape:cy="268.36409" inkscape:window-x="-8" inkscape:window-y="-8" inkscape:window-maximized="1" inkscape:current-layer="svg3120" />
  <g id="g3964">
    <path id="rect3130" d="m -4.7817036e-7,-0.28062266 512.55878047817031,0 0,349.28064266 -512.55878047817031,0 z" style="fill:white;fill-opacity:1;fill-rule:evenodd;stroke:none" />
    <path sodipodi:nodetypes="cscccc" inkscape:connector-curvature="0" id="rect3132" d="M 146.03853,328.51708 C 103.98227,291.13824 65.345556,242.51014 65.345556,172.12732 c 0,-68.2695 33.290499,-111.884876 78.872134,-153.283287 l -129.41261,0 1.251527,309.673047 z" style="fill:#df0100;fill-opacity:1;fill-rule:evenodd;stroke:none" />
    <path sodipodi:nodetypes="ccccc" inkscape:connector-curvature="0" id="path3920" d="m 113.56931,102.26795 c 38.14976,29.93172 105.78722,13.66462 157.4731,3.99125 52.84719,-6.821927 97.14789,-5.25351 128.72266,7.26312 C 380.8568,64.878268 332.91204,15.880267 255.0774,14.823209 161.24772,18.364849 130.72917,70.990799 113.56931,102.26795 z" style="fill:#df0100;stroke:none;fill-opacity:1" />
    <path style="fill:#010066;stroke:none;fill-opacity:1" d="M 395.27575,243.67172 C 357.12599,213.74 287.70762,228.82669 236.02174,238.50006 c -52.84719,6.82193 -97.55647,4.84493 -129.13124,-7.6717 18.90827,48.64405 68.58648,98.94214 146.42112,99.9992 93.82968,-3.54164 124.80427,-55.87869 141.96413,-87.15584 z" id="path3922" inkscape:connector-curvature="0" sodipodi:nodetypes="ccccc" />
    <path id="path3924" d="M 89 134.96875 L 89 210.25 L 111 210.25 L 111 185.84375 L 147.28125 185.84375 C 173.24751 180.95688 169.38941 136.02468 144.03125 134.96875 L 89 134.96875 z M 110.96875 152.96875 L 135.59375 152.96875 C 144.84541 152.96875 146.42121 168.03125 136.0625 168.03125 L 110.96875 168.03125 L 110.96875 152.96875 z " style="fill:#010066;fill-opacity:1;stroke:none" />
    <path inkscape:connector-curvature="0" style="fill:#010066;fill-opacity:1;stroke:none" d="m 240.70117,134.96875 0,75.28125 22,0 0,-24.40625 36.28125,0 c 25.96626,-4.88687 22.10816,-49.81907 -3.25,-50.875 l -55.03125,0 z m 21.96875,18 24.625,0 c 9.25166,0 10.82746,15.0625 0.46875,15.0625 l -25.09375,0 0,-15.0625 z" id="path3930" />
    <path sodipodi:nodetypes="cccccccscccccc" inkscape:connector-curvature="0" id="path3932" d="m 236.73944,193.00464 0,17.02766 -51.26609,0 c -16.18673,-2.13655 -19.12511,-17.9111 -18.85859,-36.98481 0.94777,-16.52884 -3.17597,-35.72689 24.35139,-38.26647 l 45.95638,0 0,18.30932 -42.6607,0 c -5.43663,0 -7.36289,6.1885 -6.40826,10.98558 l 45.95637,0 0,17.57695 -45.77328,0 c -1.06973,4.50708 -0.60017,9.84006 6.40826,11.71796 z" style="fill:#010066;stroke:none;fill-opacity:1" />
    <path sodipodi:nodetypes="cccccccccccsc" inkscape:connector-curvature="0" id="path3934" d="m 383.03086,164.07592 c 22.14534,5.96318 18.80132,45.95638 -10.61941,45.95638 l -51.08298,0 0,-17.76003 50.16752,0 c 6.05236,0 5.0956,-10.43631 0,-10.43631 l -33.32295,0 c -24.62773,1.17785 -28.20797,-46.34647 2.19711,-46.87185 l 53.4632,0 0,18.12623 -48.15349,0 c -6.5472,0.42794 -7.39858,11.20495 0,11.16868 z" style="fill:#010066;stroke:none;fill-opacity:1" />
    <path id="rect3936" d="m 399.87543,134.96411 19.95715,0 0,75.06819 -19.95715,0 z" style="fill:#010066;fill-opacity:1;fill-rule:evenodd;stroke:none" />
    <g style="fill:#3c5d83;fill-opacity:1" transform="matrix(0.4471465,0,0,0.4471465,270.60453,190.57233)" id="g3943">
      <g id="text3945" style="font-size:60px;font-style:normal;font-weight:normal;text-align:start;text-anchor:start;fill:#3c5d83;font-family:Arial;fill-opacity:1">
        <path inkscape:connector-curvature="0" id="path3957" style="font-size:60px;font-style:normal;font-weight:normal;text-align:start;text-anchor:start;fill:#010066;font-family:Arial;fill-opacity:1" d="m 22.207031,12.594414 c 3.710912,4.3e-5 7.333955,0.952191 10.869141,2.856445 3.53512,1.904336 6.289023,4.628943 8.261719,8.173828 1.972613,3.544951 2.95894,7.241237 2.958984,11.088867 -4.4e-5,3.808612 -0.971723,7.470718 -2.915039,10.986329 -1.943399,3.515632 -4.668006,6.245121 -8.173828,8.188476 -3.505889,1.94336 -7.172878,2.915039 -11.000977,2.915039 -3.828143,0 -7.495132,-0.971679 -11.000976,-2.915039 C 7.7001876,51.945004 4.9706982,49.215515 3.0175781,45.699883 1.0644521,42.184272 0.08789054,38.522166 0.08789062,34.713554 c -8e-8,-3.84763 0.99120988,-7.543916 2.97363278,-11.088867 1.9824169,-3.544885 4.7412032,-6.269492 8.2763676,-8.173828 3.535141,-1.904254 7.158184,-2.856402 10.86914,-2.856445 z m 0,3.662109 c -3.105488,4e-5 -6.127946,0.795938 -9.067383,2.387695 C 10.200185,20.236051 7.9003827,22.51144 6.2402344,25.47039 4.5800735,28.429403 3.7499962,31.510454 3.75,34.713554 c -3.8e-6,3.183613 0.8154251,6.235367 2.4462891,9.155274 1.6308515,2.919931 3.9111229,5.19532 6.8408199,6.826172 2.929672,1.630863 5.986309,2.446292 9.169922,2.446289 3.183569,3e-6 6.240206,-0.815426 9.169922,-2.446289 2.929653,-1.630852 5.205042,-3.906241 6.826172,-6.826172 1.621054,-2.919907 2.4316,-5.971661 2.431641,-9.155274 -4.1e-5,-3.2031 -0.825235,-6.284151 -2.475586,-9.243164 -1.650427,-2.95895 -3.95023,-5.234339 -6.899414,-6.826172 -2.949247,-1.591757 -5.966823,-2.387655 -9.052735,-2.387695 z m -9.697265,30.673828 0,-23.789062 8.173828,0 c 2.792945,3.3e-5 4.814427,0.219759 6.064453,0.659179 1.249972,0.439486 2.246065,1.206086 2.988281,2.299805 0.742157,1.093779 1.113251,2.255887 1.113281,3.486328 -3e-5,1.738306 -0.620147,3.251977 -1.860351,4.541016 -1.240262,1.289083 -2.885768,2.011739 -4.936524,2.167969 0.839819,0.351582 1.513647,0.771503 2.021485,1.259765 0.957004,0.937518 2.128878,2.509782 3.515625,4.716797 l 2.90039,4.658203 -4.6875,0 -2.109375,-3.75 c -1.66018,-2.949202 -2.998069,-4.794904 -4.013672,-5.537109 -0.703145,-0.546856 -1.728535,-0.820293 -3.076171,-0.820313 l -2.25586,0 0,10.107422 z m 3.83789,-13.388672 4.658203,0 c 2.22654,2.3e-5 3.745093,-0.332008 4.555664,-0.996093 0.810521,-0.664038 1.215794,-1.542944 1.215821,-2.636719 -2.7e-5,-0.703098 -0.195339,-1.33298 -0.585938,-1.889649 -0.390651,-0.556611 -0.932642,-0.97165 -1.625976,-1.245117 -0.693384,-0.273407 -1.977562,-0.410126 -3.852539,-0.410156 l -4.365235,0 z" />
      </g>
      <g id="text3947" style="font-size:60px;font-style:normal;font-weight:normal;text-align:start;text-anchor:start;fill:#3c5d83;font-family:Arial;fill-opacity:1" />
    </g>
    <path style="fill:#007dfd;fill-opacity:1;fill-rule:evenodd;stroke:none" d="m 363.30649,328.51708 c 42.05626,-37.37884 80.69297,-86.00694 80.69297,-156.38976 0,-68.2695 -33.2905,-111.884876 -78.87213,-153.283287 l 130.75853,0 -1.25153,309.673047 z" id="path3960" inkscape:connector-curvature="0" sodipodi:nodetypes="cscccc" />
  </g>
</svg>
