<svg xmlns="http://www.w3.org/2000/svg" width="512px" height="512px" viewBox="0 0 24 24">
	<path d="M 6.043,19.496 4.561,21.001 C 1.77,18.8 0,15.588 0,12 0,8.412 1.77,5.2 4.561,3 L 6.043,4.504 C 3.717,6.339 2.239,9.016 2.239,12 c 0,2.984 1.478,5.661 3.804,7.496 z M 6.718,12 C 6.718,10.209 7.605,8.603 9,7.502 L 7.519,6 c -1.86,1.467 -3.04,3.608 -3.04,6 0,2.392 1.18,4.533 3.04,6 L 9,16.498 C 7.604,15.397 6.718,13.791 6.718,12 Z M 12,9 c -1.656,0 -3,1.343 -3,3 0,1.657 1.344,3 3,3 1.656,0 3,-1.343 3,-3 0,-1.657 -1.344,-3 -3,-3 z"/>
</svg>