<svg xmlns="http://www.w3.org/2000/svg" width="512px" height="512px" viewBox="0 0 512 512">
	<path d="M 351.138, 275.698 L 223.167, 161.24 l 22.908 -25.583 c 14.107, 12.632, 35.825, 11.425, 48.449 -2.724 l 60.116 -65.758 C 364.817, 55.8, 378.916, 50, 393.064, 50 c 28.601, 0, 51.77, 23.319, 51.77, 51.425 c 0, 12.414 -4.661, 24.635 -13.379, 34.425l -60.15, 65.75 c -12.606, 14.141 -11.416, 35.826, 2.717, 48.5L351.138, 275.698 Z M 277.072, 255.522 L 143.327, 404.012 c -5.398, 6.053 -22.69, 5.549 -31.811, 9.572 c 2.959 -9.521, 0.821 -26.42, 6.22 -32.455 l 133.745 -148.507 l -25.599 -22.892 L 90.26, 360.693 c -21.928, 24.426 -2.942, 38.809 -19.732, 69.555 c -2.288, 4.191 -3.361, 8.248 -3.361, 12.004 c 0, 11.332, 9.271, 19.748, 19.581, 19.748 c 4.133, 0, 8.449 -1.342, 12.423 -4.393 c 29.756 -22.866, 45.381 -3.151, 67.87 -28.298 l 135.632 -150.913 L 277.072, 255.522 Z"/>
</svg>
