
<svg xmlns="http://www.w3.org/2000/svg" width="512px" height="512px" viewBox="0 0 512 512">
	<path d="M 329.025, 238.196 c 0 -8.231, 8.349 -15.038, 26.99 -17.2 c 63.336 -7.334, 88.818 -45.574, 88.818 -83.763
	c 0 -48.047 -36.898 -87.233 -87.443 -87.233 c -41.777, 0 -83.621, 29.304 -82.346, 100.1 c 0.352, 20.042 -6.119, 29.145 -15.172, 29.145 c -5.114, 0 -10.244 -2.909 -15.055 -6.63 c -6.991 -5.415 -16.999 -4.459 -22.851, 2.213 c -6.42, 7.318 -5.649, 18.474, 1.644, 24.853 l 90.176, 78.917 c7.258, 6.371, 18.322, 5.633, 24.677 -1.643 c 5.884 -6.723, 5.499 -16.814 -0.839 -23.092 C 332.864, 249.144, 329.025, 243.888, 329.025, 238.196 z M 284.281, 298.85 l -117.25, 130.46 c -22.48, 25.146 -38.105, 5.432 -67.861, 28.298 C 95.196, 460.658, 90.888, 462, 86.747, 462 c -10.31, 0 -19.581 -8.416 -19.581 -19.748 c 0 -3.756, 1.073 -7.812, 3.37 -12.004 c 16.781 -30.746 -2.213 -45.129, 19.715 -69.555 l 116.512 -129.689 l25.834, 22.607 L 117.744, 381.129 c -5.397, 6.035 -3.269, 22.934 -6.236, 32.455 c 9.12 -4.023, 26.421 -3.52, 31.819 -9.572 l 115.104 -127.794 L 284.281, 298.85 z"/>
</svg>
