<svg xmlns="http://www.w3.org/2000/svg" width="512px" height="512px" viewBox="0 0 512 512">
	<path d="m 307.5,153 c 0,0 -40.234,27.359 -64.626,42.439 -11.919,5.959 -25.062,9.061 -38.374,9.061 l -123.478,0 C 64.577,208.289 50,231.239 50,257.467 c 0,25.256 13.948,46.11 31.022,50.033 l 123.478,0 c 13.311,0 26.454,2.564 38.374,8.516 C 269.947,332.713 307.5,359 307.5,359 Z M 170.167,273.166 C 160.687,273.166 153,265.48 153,256 c 0,-9.479 7.687,-17.166 17.167,-17.166 9.48,0 17.167,7.687 17.167,17.166 -0.001,9.48 -7.687,17.166 -17.167,17.166 z M 359,153 l 0,206 -34.334,0 0,-206 z m 103,120.166 -68.666,0 0,-34.332 68.666,0 z"/>
</svg>
