<svg xmlns="http://www.w3.org/2000/svg" width="512px" height="512px" viewBox="0 0 24 24">
	<path d="m 21.761,12 c 0,-2.984 -1.478,-5.661 -3.804,-7.496 L 19.439,3 C 22.23,5.2 24,8.412 24,12 c 0,3.588 -1.77,6.8 -4.561,9.001 L 17.957,19.496 C 20.283,17.661 21.761,14.984 21.761,12 Z M 15,16.498 16.481,18 c 1.86,-1.467 3.04,-3.608 3.04,-6 0,-2.392 -1.18,-4.533 -3.04,-6 L 15,7.502 c 1.396,1.101 2.282,2.707 2.282,4.498 0,1.791 -0.886,3.397 -2.282,4.498 z M 12,9 c -1.656,0 -3,1.343 -3,3 0,1.657 1.344,3 3,3 1.656,0 3,-1.343 3,-3 0,-1.657 -1.344,-3 -3,-3 z"/>
</svg>