<svg xmlns="http://www.w3.org/2000/svg" width="512px" height="512px" viewBox="0 0 24 24">
	<path d="m 2.1355932,9.6444915 0,-1.498 c 0.565,-0.025 3.163,0.046 3.163,-1.977 l 1.837,0 0,11.0000005 -2.255,0 0,-7.5250005 z" />
	<path d="m 16.135593,9.6444915 0,-1.498 c 0.565,-0.025 3.163,0.046 3.163,-1.977 l 1.837,0 0,11.0000005 -2.255,0 0,-7.5250005 z" />
	<path d="m 12.025391,9.609375 c 0.834349,0 1.499999,-0.6656507 1.5,-1.5 0,-0.8343494 -0.665651,-1.5 -1.5,-1.5 -0.83435,0 -1.5,0.6656506 -1.5,1.5 0,0.8343493 0.66565,1.5 1.5,1.5 z" />
	<path d="m 12.025391,16.640625 c 0.834349,0 1.5,-0.665651 1.5,-1.5 0,-0.834349 -0.665651,-1.5 -1.5,-1.5 -0.83435,0 -1.5,0.665651 -1.5,1.5 0,0.834349 0.66565,1.5 1.5,1.5 z" />
</svg>