<svg xmlns="http://www.w3.org/2000/svg" width="512px" height="512px" viewBox="0 0 512 512">
	<path d="M96.251,196.001H50v-40h46.251V196.001z M96.251,236.001H50v39.998h46.251V236.001z M96.251,315.999H50v40
	h46.251V315.999z M96.251,76.001H50v40h46.251V76.001z M96.251,395.999H50v40h46.251V395.999z M136.251,76.001v40H462v-40H136.251z
	 M136.251,196.001H462v-40H136.251V196.001z M136.251,275.999H462v-39.998H136.251V275.999z M136.251,355.999H462v-40H136.251V355.999z M136.251,435.999H462v-40H136.251V435.999z"/>
</svg>
