<svg xmlns="http://www.w3.org/2000/svg" viewBox="0 0 224.17 224.17">
	<path d="M214.301,75.896c0-4.143-3.357-7.5-7.5-7.5H188.5C184.255,29.982,151.612,0,112.085,0S39.915,29.982,35.67,68.396H17.369
	c-4.143,0-7.5,3.357-7.5,7.5c0,51.478,38.253,94.182,87.824,101.198v32.077H80.277c-4.143,0-7.5,3.357-7.5,7.5s3.357,7.5,7.5,7.5
	h24.916h13.783h24.916c4.143,0,7.5-3.357,7.5-7.5s-3.357-7.5-7.5-7.5h-17.416v-32.077
	C176.048,170.077,214.301,127.373,214.301,75.896z M121.061,38.706c2.93-2.928,7.678-2.928,10.607,0
	c2.929,2.93,2.929,7.678,0,10.607L84.04,96.941c-1.465,1.464-3.385,2.196-5.304,2.196s-3.839-0.732-5.304-2.196
	c-2.929-2.93-2.929-7.678,0-10.607L121.061,38.706z M64.779,48.379l18.326-18.326c2.93-2.928,7.678-2.928,10.607,0
	c2.929,2.93,2.929,7.678,0,10.607L75.387,58.986c-1.465,1.464-3.385,2.196-5.304,2.196s-3.839-0.732-5.304-2.196
	C61.851,56.057,61.851,51.309,64.779,48.379z M112.085,163.111c-45.563,0-83.079-35.124-86.896-79.716h10.296
	c3.313,39.367,36.391,70.396,76.601,70.396s73.287-31.028,76.601-70.396h10.296C195.164,127.987,157.648,163.111,112.085,163.111z"
	/>
</svg>
