<svg xmlns="http://www.w3.org/2000/svg" width="512px" height="512px" viewBox="0 0 512 512">
	<path d="M256.536,50C169.597,50,101.5,102.782,101.5,170.167v227.459C101.5,431.857,153,462,256.503,462
	c101.961,0,153.997-30.008,153.997-64.374V170.167C410.5,102.782,342.873,50,256.536,50z M256.536,67.167
	c73.73,0,131.92,41.827,136.361,96.345c-25.8-16.446-77.367-27.679-136.897-27.679c-59.522,0-111.097,11.232-136.897,27.67
	C123.579,108.994,182.246,67.167,256.536,67.167z M359.001,409.427c-6.907,4.979-25.818,10.981-34.334,10.897V247.861
	c11.315-0.679,23.57-3.043,34.334-6.613V409.427z M257.342,217.911c-35.23,0-111.4-6.697-111.4-23.872
	c0-17.352,68.432-23.872,111.4-23.872c44.09,0,111.768,6.697,111.768,23.872C369.109,211.39,293.402,217.911,257.342,217.911z"/>
</svg>
