<svg xmlns="http://www.w3.org/2000/svg" width="512px" height="512px" viewBox="0 0 512 512">
	<polygon points="396,236 276,236 276,116 236,116 236,236 116,236 116,276 236,276 236,396 276,396 276,276 396,276" transform="matrix(1.5,0,0,1.5,-128,-128)" />
	<path d="M 28.691406,44.636719 C 28.072633,87.716204 41.648893,124.30674 63.964844,153.14453 73.827279,165.88927 85.27268,177.1975 97.75,187.40234 c 64.78409,52.98504 157.0641,79.2506 229.94141,116.31836 36.43865,18.53388 67.60859,39.28486 88.64648,64.46485 20.97494,25.10463 33.02134,54.08274 32.14844,95.67578 l 0,0.93164 49.99219,0.57031 c 0.004,-0.19443 -0.0157,-0.37614 -0.0117,-0.57031 l 0.0195,0 0,-16.27149 -0.35352,0 C 495.71134,403.39432 479.44121,365.73098 454.70703,336.12695 426.94846,302.90307 389.81105,279.2207 350.35938,259.1543 271.45602,219.0215 181.62711,191.41075 129.4043,148.69922 119.34626,140.47304 110.66903,131.799 103.50781,122.54492 87.303969,101.6055 78.215304,78.09412 78.685547,45.355469 l -49.994141,-0.71875 z" />
</svg>
