<svg xmlns="http://www.w3.org/2000/svg" width="512px" height="512px" viewBox="0 0 24 24">
	<path d="m 16.5,12 c 0,2.4855 -2.016,4.5 -4.5,4.5 -2.484,0 -4.5,-2.0145 -4.5,-4.5 0,-2.4855 2.016,-4.5 4.5,-4.5 2.484,0 4.5,2.0145 4.5,4.5 z M 12,19.5 c -0.8295,0 -1.5,0.672 -1.5,1.5 0,0.828 0.6705,1.5 1.5,1.5 0.8295,0 1.5,-0.672 1.5,-1.5 0,-0.828 -0.6705,-1.5 -1.5,-1.5 z M 4.5,12 c 0,0.828 -0.6705,1.5 -1.5,1.5 -0.8295,0 -1.5,-0.672 -1.5,-1.5 0,-0.828 0.6705,-1.5 1.5,-1.5 0.8295,0 1.5,0.672 1.5,1.5 z m 9,-9 c 0,0.828 -0.6705,1.5 -1.5,1.5 -0.8295,0 -1.5,-0.672 -1.5,-1.5 0,-0.828 0.6705,-1.5 1.5,-1.5 0.8295,0 1.5,0.672 1.5,1.5 z m 9,9 c 0,0.828 -0.6705,1.5 -1.5,1.5 -0.8295,0 -1.5,-0.672 -1.5,-1.5 0,-0.828 0.6705,-1.5 1.5,-1.5 0.8295,0 1.5,0.672 1.5,1.5 z M 18,16.5 c -0.8295,0 -1.5,0.672 -1.5,1.5 0,0.828 0.6705,1.5 1.5,1.5 0.8295,0 1.5,-0.672 1.5,-1.5 0,-0.828 -0.6705,-1.5 -1.5,-1.5 z m -12,0 c -0.8295,0 -1.5,0.672 -1.5,1.5 0,0.828 0.6705,1.5 1.5,1.5 0.8295,0 1.5,-0.672 1.5,-1.5 C 7.5,17.172 6.8295,16.5 6,16.5 Z M 6,4.5 C 5.1705,4.5 4.5,5.172 4.5,6 4.5,6.828 5.1705,7.5 6,7.5 6.8295,7.5 7.5,6.828 7.5,6 7.5,5.172 6.8295,4.5 6,4.5 Z m 12,0 c -0.8295,0 -1.5,0.672 -1.5,1.5 0,0.828 0.6705,1.5 1.5,1.5 0.8295,0 1.5,-0.672 1.5,-1.5 0,-0.828 -0.6705,-1.5 -1.5,-1.5 z"/>
</svg>