<svg xmlns="http://www.w3.org/2000/svg" width="512px" height="512px" viewBox="0 0 512 512">
	<path d="M50,101.5v309h412v-309H50z M307.5,135.833h17.167v85.833H307.5V135.833z M153,135.833h17.167v85.833H153
	V135.833z M118.667,187.333H101.5v-51.5h17.167V187.333z M187.333,359h-23.235v-66.756h-25.549v-17.175
	c15.323-0.704,29.204-3.454,29.204-19.069h19.581V359z M221.667,187.333H204.5v-51.5h17.167V187.333z M273.167,187.333H256v-51.5
	h17.167V187.333z M341.834,358.547h-67.326v-16.445c26.253-25.6,40.838-38.524,41.006-51.818c0-7.93-4.594-12.305-12.942-12.305
	c-7.778,0-14.015,4.199-20.05,8.994l-7.275-19.715C284.6,259.495,295.698,256,306.713,256c20.234,0,33.326,12.699,33.326,32.363
	c0,19.824-15.439,35.062-29.555,47.762h31.35V358.547z M376.167,187.333H359v-51.5h17.167V187.333z M427.667,187.333H410.5v-51.5
	h17.167V187.333z"/>
</svg>
