<svg xmlns="http://www.w3.org/2000/svg" width="512px" height="512px" viewBox="0 0 512 512">
	<path d="M424.562,78.022v40.032H87.438V78.022h94.938c15.464,0,28-12.546,28-28.022h91.25
	c0,15.477,12.536,28.022,28,28.022H424.562z M406.334,148.079V462H105.666V148.079H406.334z M197.333,210.462
	c0-8.291-6.716-15.012-15-15.012s-15,6.721-15,15.012v190.153c0,8.291,6.716,15.012,15,15.012s15-6.721,15-15.012V210.462z
	 M271,210.462c0-8.291-6.716-15.012-15-15.012s-15,6.721-15,15.012v190.153c0,8.291,6.716,15.012,15,15.012s15-6.721,15-15.012
	V210.462z M344.667,210.462c0-8.291-6.716-15.012-15-15.012s-15,6.721-15,15.012v190.153c0,8.291,6.716,15.012,15,15.012
	s15-6.721,15-15.012V210.462z"/>
</svg>
